<svg width="1734" height="952" viewBox="0 0 1734 952" fill="none" xmlns="http://www.w3.org/2000/svg">
<g clip-path="url(#clip0_855_13176)">
<path d="M1196.15 860.617C1033.24 860.617 887.87 865.508 792.703 873.144C712.443 870.758 607.735 869.207 493.248 869.207C240.9 869.207 36.2542 876.365 36.2542 885.193C36.2542 893.901 240.9 901.059 493.248 901.059C561.105 901.059 625.385 900.582 683.225 899.628C691.334 902.968 706.837 906.189 728.781 909.052C709.819 913.586 698.251 919.67 698.251 926.35C698.251 940.428 748.816 951.761 811.307 951.761C873.798 951.761 924.363 940.428 924.363 926.35C924.363 925.277 924.005 924.203 923.409 923.129C1002.71 926.35 1096.09 928.14 1196.15 928.14C1482.84 928.14 1715.28 912.989 1715.28 894.379C1715.28 875.768 1482.84 860.617 1196.15 860.617Z" fill="#F9E5CF"/>
<path d="M1459.35 830.316H10.2561C5.00878 830.316 0.834778 826.14 0.834778 821.011V820.891C0.834778 815.642 5.00878 811.467 10.2561 811.467H1459.35C1464.48 811.467 1468.65 815.642 1468.65 820.891V821.011C1468.65 826.14 1464.48 830.316 1459.35 830.316Z" fill="#F9E5CF"/>
<path d="M135.595 244.68C138.815 228.575 154.438 213.305 147.879 198.154C143.705 188.252 131.541 183.599 127.486 173.578C123.312 162.961 128.321 147.094 116.634 142.799C110.074 140.533 102.919 143.754 99.699 149.838C90.6355 167.375 86.7 187.298 87.8925 206.982C88.6081 219.27 83.2415 230.842 73.5817 238.238C57.0049 250.764 46.9873 272.238 49.7302 292.877C30.5298 310.056 19.7967 336.421 21.9433 362.189C23.6129 381.873 32.5572 400.722 46.5103 414.68C53.1887 421.361 55.4546 431.143 52.9502 440.329C51.1613 447.129 51.2806 454.526 53.4272 461.207C56.0509 469.319 61.7752 476.238 69.0499 480.771C74.5357 484.112 77.7557 490.077 78.7097 496.399C80.0216 505.228 86.5807 513.698 95.2865 516.68C107.57 520.856 121.881 515.607 130.706 505.943C139.531 496.28 143.466 483.038 144.659 470.035C145.375 461.803 145.017 453.333 147.402 445.459C151.457 432.575 162.19 423.031 168.153 410.863C176.143 394.519 173.758 373.761 163.025 359.087C159.566 354.315 159.328 348.112 161.951 342.863C166.245 334.87 166.364 324.371 163.621 315.424C159.805 303.017 151.695 292.519 145.136 281.424C138.458 270.329 133.091 257.445 135.595 244.68Z" fill="#189FB1"/>
<path d="M59.0323 319.481C58.6745 319.242 58.5553 318.765 58.7938 318.407C59.0323 317.93 59.5093 317.81 59.8671 318.049C60.3441 318.288 60.4634 318.765 60.2249 319.242C59.9863 319.6 59.5093 319.719 59.0323 319.481Z" fill="#54CED1"/>
<path d="M56.2894 328.429C55.5739 327.951 55.2161 326.997 55.6932 326.162C56.1702 325.327 57.1242 325.088 57.959 325.565C58.7938 326.043 59.0324 326.997 58.5553 327.832C58.0783 328.548 57.1242 328.906 56.2894 328.429Z" fill="#54CED1"/>
<path d="M89.3237 304.21C90.1585 304.926 90.2778 306.239 89.443 307.074C88.7274 308.028 87.4156 308.028 86.5808 307.312C85.746 306.477 85.6267 305.165 86.3423 304.33C87.1771 303.495 88.4889 303.375 89.3237 304.21Z" fill="#54CED1"/>
<path d="M90.5163 316.737C91.5896 317.691 91.7088 319.481 90.7548 320.555C89.6814 321.628 88.0118 321.747 86.9385 320.793C85.8652 319.719 85.746 318.049 86.7 316.976C87.6541 315.902 89.3237 315.783 90.5163 316.737Z" fill="#54CED1"/>
<path d="M94.571 298.962C95.6443 299.797 95.7635 301.467 94.8095 302.421C93.8554 303.495 92.3051 303.614 91.2318 302.66C90.1585 301.706 90.1585 300.155 90.9933 299.081C91.9473 298.127 93.4977 298.007 94.571 298.962Z" fill="#54CED1"/>
<path d="M126.413 284.646C127.248 285.362 127.367 286.674 126.651 287.39C125.936 288.225 124.624 288.344 123.908 287.628C123.074 286.912 122.954 285.6 123.67 284.884C124.385 284.049 125.697 283.93 126.413 284.646Z" fill="#54CED1"/>
<path d="M127.248 313.515C127.725 313.873 127.725 314.589 127.367 314.946C127.009 315.424 126.293 315.424 125.816 315.066C125.459 314.708 125.459 313.992 125.816 313.634C126.174 313.157 126.77 313.157 127.248 313.515Z" fill="#54CED1"/>
<path d="M125.22 322.463C126.055 323.179 126.174 324.372 125.459 325.207C124.743 326.042 123.431 326.042 122.716 325.327C121.881 324.611 121.762 323.418 122.477 322.583C123.193 321.867 124.505 321.748 125.22 322.463Z" fill="#54CED1"/>
<path d="M137.623 327.115C138.577 327.95 138.696 329.501 137.861 330.455C137.027 331.41 135.476 331.529 134.522 330.694C133.449 329.739 133.449 328.308 134.284 327.354C135.118 326.28 136.669 326.28 137.623 327.115Z" fill="#54CED1"/>
<path d="M61.656 284.646C60.9404 283.692 61.179 282.499 62.0138 281.902C62.9678 281.306 64.1604 281.425 64.7567 282.26C65.353 283.214 65.2337 284.407 64.2796 285.004C63.4448 285.6 62.2523 285.481 61.656 284.646Z" fill="#54CED1"/>
<path d="M54.0235 305.283C53.4272 304.568 53.6657 303.613 54.3813 303.017C55.0968 302.54 56.1701 302.659 56.6472 303.375C57.2435 304.09 57.0049 305.164 56.2894 305.641C55.5739 306.238 54.5005 306.119 54.0235 305.283Z" fill="#54CED1"/>
<path d="M60.3442 296.575C59.1516 294.904 59.5094 292.519 61.179 291.326C62.8486 290.133 65.2337 290.49 66.4263 292.161C67.6189 293.831 67.2611 296.097 65.5915 297.41C63.9219 298.603 61.656 298.245 60.3442 296.575Z" fill="#54CED1"/>
<path d="M79.9023 301.347C80.8564 302.182 80.9756 303.733 80.1408 304.688C79.1868 305.642 77.7557 305.761 76.6824 304.926C75.7283 304.091 75.6091 302.54 76.5631 301.586C77.3979 300.512 78.9483 300.512 79.9023 301.347Z" fill="#54CED1"/>
<path d="M95.5251 324.492C97.0754 325.804 97.1947 328.071 95.8828 329.503C94.571 330.934 92.3051 331.054 90.874 329.741C89.3237 328.429 89.2044 326.282 90.5163 324.731C91.8281 323.299 94.094 323.18 95.5251 324.492Z" fill="#54CED1"/>
<path d="M142.155 305.166C143.109 305.881 143.109 307.194 142.393 308.029C141.558 308.864 140.246 308.983 139.412 308.267C138.577 307.432 138.458 306.12 139.292 305.285C140.008 304.45 141.32 304.33 142.155 305.166Z" fill="#54CED1"/>
<path d="M128.559 329.741C130.11 331.173 130.229 333.678 128.798 335.229C127.486 336.78 124.982 336.899 123.431 335.587C121.762 334.155 121.642 331.65 123.074 330.099C124.505 328.429 126.89 328.31 128.559 329.741Z" fill="#54CED1"/>
<path d="M150.741 318.407C151.576 319.123 151.576 320.316 150.86 321.151C150.145 321.986 148.952 321.986 148.117 321.271C147.402 320.674 147.283 319.362 147.998 318.646C148.714 317.811 149.906 317.692 150.741 318.407Z" fill="#54CED1"/>
<path d="M63.4449 444.743C64.2797 445.459 64.3989 446.652 63.6834 447.487C62.9678 448.203 61.7753 448.322 60.9405 447.607C60.1057 446.891 60.1057 445.698 60.8212 444.863C61.4175 444.028 62.7293 444.028 63.4449 444.743Z" fill="#54CED1"/>
<path d="M81.6912 379.129C80.4987 377.34 80.8564 374.954 82.526 373.761C84.3149 372.449 86.7 372.807 87.8926 374.596C89.2044 376.266 88.8467 378.652 87.0578 379.965C85.3882 381.158 83.0031 380.8 81.6912 379.129Z" fill="#54CED1"/>
<path d="M43.4096 321.867C42.3363 321.27 42.0978 320.077 42.5748 319.004C43.1711 318.049 44.483 317.691 45.437 318.288C46.3911 318.884 46.7489 320.197 46.1526 321.151C45.6755 322.105 44.3637 322.463 43.4096 321.867Z" fill="#54CED1"/>
<path d="M67.2611 457.269C67.2611 456.554 67.7381 455.957 68.4537 455.838C69.1692 455.838 69.7655 456.315 69.7655 457.031C69.8848 457.747 69.2885 458.343 68.6922 458.343C67.9766 458.462 67.3804 457.985 67.2611 457.269Z" fill="#54CED1"/>
<path d="M62.2522 414.323C62.133 412.892 63.2063 411.699 64.6374 411.579C65.9492 411.46 67.1418 412.534 67.261 413.846C67.3803 415.278 66.4262 416.471 64.9951 416.59C63.564 416.709 62.3715 415.636 62.2522 414.323Z" fill="#54CED1"/>
<path d="M87.4155 473.375C87.2962 472.182 88.131 471.108 89.3236 470.989C90.6354 470.869 91.7088 471.824 91.7088 473.017C91.828 474.21 90.9932 475.283 89.6814 475.403C88.4888 475.522 87.4155 474.568 87.4155 473.375Z" fill="#54CED1"/>
<path d="M91.9473 457.032C91.8281 455.481 93.0206 454.049 94.571 453.93C96.1213 453.811 97.4331 455.004 97.5524 456.555C97.6717 458.106 96.5983 459.418 95.048 459.537C93.4977 459.656 92.0666 458.583 91.9473 457.032Z" fill="#54CED1"/>
<path d="M79.5446 473.495C79.4253 472.064 80.4986 470.751 81.9297 470.632C83.3608 470.513 84.6726 471.586 84.7919 473.137C84.9112 474.569 83.8378 475.881 82.4067 476.001C80.8564 476.12 79.6638 474.927 79.5446 473.495Z" fill="#54CED1"/>
<path d="M53.785 399.53C53.6658 398.337 54.5006 397.383 55.6931 397.263C56.7664 397.144 57.7205 397.979 57.8398 399.172C57.959 400.246 57.1242 401.319 55.9316 401.319C54.8583 401.439 53.9043 400.604 53.785 399.53Z" fill="#54CED1"/>
<path d="M62.3716 389.389C62.3716 388.793 62.8486 388.196 63.4449 388.196C64.0412 388.077 64.5182 388.554 64.6375 389.151C64.6375 389.747 64.1604 390.344 63.5642 390.344C62.9679 390.463 62.4908 389.986 62.3716 389.389Z" fill="#54CED1"/>
<path d="M70.481 384.021C70.481 382.828 71.3158 381.874 72.3891 381.754C73.4624 381.635 74.5357 382.589 74.5357 383.663C74.655 384.737 73.8202 385.81 72.7468 385.81C71.5543 385.93 70.6002 385.095 70.481 384.021Z" fill="#54CED1"/>
<path d="M64.5181 371.376C64.3988 369.944 65.3529 368.751 66.784 368.632C68.2151 368.513 69.4076 369.586 69.5269 371.018C69.6462 372.33 68.5728 373.523 67.1418 373.643C65.8299 373.762 64.6374 372.808 64.5181 371.376Z" fill="#54CED1"/>
<path d="M52.8309 383.544C52.7117 382.351 53.5465 381.396 54.739 381.277C55.8123 381.158 56.7664 381.993 56.8857 383.186C57.0049 384.259 56.1701 385.214 54.9775 385.333C53.9042 385.452 52.9502 384.617 52.8309 383.544Z" fill="#54CED1"/>
<path d="M51.6384 349.664C51.5191 348.71 52.2347 347.874 53.1887 347.755C54.1428 347.636 54.9776 348.352 55.0968 349.306C55.2161 350.26 54.5005 351.096 53.5465 351.215C52.5924 351.334 51.7576 350.618 51.6384 349.664Z" fill="#54CED1"/>
<path d="M46.9873 362.309C46.7488 360.162 48.4184 358.253 50.565 358.014C52.7117 357.895 54.6198 359.446 54.8583 361.713C54.9776 363.86 53.308 365.769 51.1613 365.888C49.0147 366.007 47.1066 364.456 46.9873 362.309Z" fill="#54CED1"/>
<path d="M78.7097 453.691C78.5905 452.379 79.5446 451.186 80.9756 451.067C82.4067 450.947 83.5993 451.902 83.7185 453.333C83.8378 454.765 82.7645 455.958 81.3334 456.077C80.0216 456.196 78.829 455.123 78.7097 453.691Z" fill="#54CED1"/>
<path d="M93.7362 447.369C93.6169 445.341 95.1673 443.552 97.1946 443.313C99.222 443.194 101.13 444.745 101.249 446.773C101.369 448.92 99.8183 450.71 97.7909 450.829C95.6443 451.067 93.8554 449.517 93.7362 447.369Z" fill="#54CED1"/>
<path d="M53.785 391.775C53.6657 390.582 54.6198 389.508 55.8124 389.389C57.0049 389.27 58.0782 390.224 58.1975 391.417C58.3168 392.61 57.3627 393.684 56.1701 393.803C54.9776 393.922 53.9042 392.968 53.785 391.775Z" fill="#54CED1"/>
<path d="M82.6453 356.105C82.4068 353.838 84.1956 351.81 86.3423 351.691C88.6082 351.452 90.6355 353.122 90.7548 355.389C90.9933 357.656 89.3237 359.564 87.0578 359.803C84.7919 359.922 82.7646 358.252 82.6453 356.105Z" fill="#54CED1"/>
<path d="M57.482 348.47C57.3628 347.277 58.1976 346.323 59.3901 346.203C60.4635 346.084 61.4175 347.039 61.5368 348.112C61.656 349.186 60.8212 350.26 59.6287 350.26C58.5553 350.379 57.6013 349.544 57.482 348.47Z" fill="#54CED1"/>
<path d="M58.436 340.955C58.436 340.239 58.9131 339.523 59.7479 339.523C60.4634 339.404 61.0597 340 61.179 340.716C61.179 341.432 60.7019 342.148 59.8671 342.148C59.1516 342.267 58.5553 341.67 58.436 340.955Z" fill="#54CED1"/>
<path d="M36.4927 348.946C36.3734 347.396 37.4467 346.203 38.8778 346.083C40.4282 345.964 41.6208 347.038 41.74 348.469C41.8593 350.02 40.786 351.213 39.3549 351.332C37.9238 351.452 36.612 350.378 36.4927 348.946Z" fill="#54CED1"/>
<path d="M42.217 374.119C42.0977 372.449 43.4096 370.898 45.0792 370.779C46.868 370.66 48.4184 371.972 48.5376 373.642C48.6569 375.432 47.3451 376.863 45.6755 376.983C43.8866 377.221 42.3363 375.909 42.217 374.119Z" fill="#54CED1"/>
<path d="M105.662 354.912V485.305C100.892 484.112 99.4605 481.726 98.1487 476.357L95.2865 477.073C96.7176 483.396 98.8642 486.855 105.662 488.406V763.15H108.643V501.41C118.184 498.905 125.22 491.866 129.513 480.175L126.77 479.101C122.835 489.719 116.991 495.922 108.643 498.308V379.248C127.247 378.175 136.549 358.848 141.916 344.055L139.054 343.101C131.064 365.171 121.642 375.55 108.643 376.266V321.15C113.891 319.003 119.496 313.157 126.174 302.778L123.67 301.108C117.945 310.175 113.056 315.662 108.643 317.81V244.441H105.662V285.003C102.323 284.526 98.2679 277.845 95.4057 272.596L92.7821 274.027C96.7176 281.185 100.892 287.747 105.662 287.985V351.691C92.1858 346.919 82.526 336.778 76.3246 320.673L73.5817 321.747C80.1408 338.806 90.9932 349.901 105.662 354.912Z" fill="#14345A"/>
<path d="M598.433 279.396H537.254V143.396H598.433V279.396Z" fill="#D3A479"/>
<path d="M537.254 170.477V279.396H598.433V229.171L537.254 170.477Z" fill="#B27C4F"/>
<path d="M413.107 62.2734L70.004 405.494V433.53H763.127V412.533L413.107 62.2734Z" fill="#F0CD95"/>
<path d="M413.823 94.0078L755.852 433.889H688.591V778.78H139.054V433.889H71.7928L413.823 94.0078Z" fill="#54CED1"/>
<path d="M413.823 136.001L713.635 433.889H755.852L413.823 94.0078L71.7928 433.889H114.01L413.823 136.001Z" fill="#189FB1"/>
<path d="M417.639 97.9434V139.817L713.635 433.887H755.852L417.639 97.9434Z" fill="#14345A"/>
<path d="M403.447 788.92H299.455V440.092H403.447V788.92Z" fill="#14345A"/>
<path d="M516.264 788.92H412.272V440.092H516.264V788.92Z" fill="#14345A"/>
<path d="M403.447 788.919H299.455V473.137H403.447V788.919Z" fill="#189FB1"/>
<path d="M516.264 788.919H412.272V473.137H516.264V788.919Z" fill="#189FB1"/>
<path d="M577.443 422.434H231.12V389.389H577.443V422.434Z" fill="#189FB1"/>
<path d="M240.9 490.197H289.556V441.523H240.9V490.197Z" fill="white"/>
<path d="M182.821 490.197H231.478V441.523H182.821V490.197Z" fill="white"/>
<path d="M240.9 547.818H289.556V499.145H240.9V547.818Z" fill="white"/>
<path d="M182.821 547.818H231.478V499.145H182.821V547.818Z" fill="white"/>
<path d="M584.122 490.197H632.779V441.523H584.122V490.197Z" fill="white"/>
<path d="M526.044 490.197H574.701V441.523H526.044V490.197Z" fill="white"/>
<path d="M584.122 547.818H632.779V499.145H584.122V547.818Z" fill="white"/>
<path d="M526.044 547.818H574.701V499.145H526.044V547.818Z" fill="white"/>
<path d="M715.066 155.087C718.286 138.862 733.909 123.711 727.469 108.441C723.295 98.5396 711.012 93.8869 707.076 83.8659C702.783 73.2483 707.911 57.501 696.104 53.2062C689.665 50.8203 682.39 54.0413 679.289 60.1255C670.226 77.6624 666.171 97.7045 667.363 117.269C668.198 129.557 662.832 141.248 653.053 148.645C636.595 161.171 626.577 182.526 629.32 203.283C610.001 220.343 599.387 246.827 601.533 272.476C603.084 292.161 612.147 311.01 625.981 324.968C632.779 331.768 635.045 341.55 632.54 350.736C630.632 357.536 630.751 364.813 633.017 371.613C635.641 379.606 641.365 386.645 648.521 391.059C654.126 394.399 657.227 400.364 658.181 406.806C659.492 415.634 666.171 423.985 674.757 426.968C687.16 431.262 701.471 425.894 710.177 416.231C719.002 406.568 723.057 393.326 724.13 380.322C724.845 372.09 724.488 363.74 726.992 355.866C730.927 342.982 741.78 333.319 747.743 321.269C755.733 304.806 753.229 284.048 742.495 269.375C739.037 264.722 738.798 258.399 741.541 253.269C745.715 245.157 745.835 234.659 743.092 225.712C739.395 213.424 731.285 202.926 724.607 191.831C717.928 180.617 712.562 167.733 715.066 155.087Z" fill="#189FB1"/>
<path d="M688.233 408.597V289.657C706.837 288.583 716.02 269.137 721.387 254.345L718.644 253.39C710.654 275.46 701.113 285.839 688.233 286.674V231.439C693.481 229.411 699.086 223.446 705.764 213.067L703.26 211.516C697.416 220.464 692.527 225.952 688.233 228.218V154.73H685.252V195.411C681.793 194.815 677.739 188.253 674.996 183.004L672.372 184.436C676.188 191.594 680.482 198.036 685.252 198.394V261.98C671.776 257.208 662.116 247.067 655.795 231.081L653.052 232.155C659.731 249.215 670.583 260.309 685.252 265.201V395.713C680.362 394.401 678.931 392.134 677.739 386.646L674.757 387.362C676.308 393.685 678.335 397.145 685.252 398.695V471.587H688.233V411.699C697.774 409.313 704.81 402.155 709.103 390.464L706.241 389.509C702.425 400.008 696.462 406.211 688.233 408.597Z" fill="#14345A"/>
<path d="M650.31 367.32C651.979 367.081 653.53 368.274 653.768 369.825C654.007 371.495 652.814 373.046 651.264 373.284C649.594 373.523 648.044 372.449 647.805 370.779C647.567 369.109 648.64 367.558 650.31 367.32Z" fill="#54CED1"/>
<path d="M665.336 377.697C667.483 377.339 669.391 378.771 669.748 380.918C670.106 382.946 668.675 384.975 666.529 385.332C664.382 385.571 662.474 384.14 662.116 381.992C661.758 379.964 663.189 377.936 665.336 377.697Z" fill="#54CED1"/>
<path d="M649.356 356.701C651.264 356.343 653.172 357.656 653.53 359.684C653.768 361.712 652.456 363.501 650.429 363.859C648.402 364.217 646.613 362.786 646.255 360.757C646.016 358.849 647.328 356.94 649.356 356.701Z" fill="#54CED1"/>
<path d="M669.51 358.372C671.06 358.134 672.492 359.088 672.73 360.639C672.969 362.19 671.895 363.621 670.345 363.86C668.914 364.099 667.483 363.025 667.244 361.474C667.006 360.043 668.079 358.611 669.51 358.372Z" fill="#54CED1"/>
<path d="M674.042 345.011C674.877 344.892 675.592 345.489 675.831 346.204C675.95 347.039 675.354 347.875 674.519 347.994C673.684 348.113 672.968 347.517 672.849 346.682C672.73 345.846 673.207 345.131 674.042 345.011Z" fill="#54CED1"/>
<path d="M692.288 379.608C693.839 379.369 695.27 380.443 695.508 381.874C695.747 383.425 694.673 384.857 693.123 385.095C691.692 385.334 690.261 384.26 690.022 382.709C689.784 381.278 690.857 379.846 692.288 379.608Z" fill="#54CED1"/>
<path d="M708.865 370.063C710.773 369.825 712.562 371.137 712.8 372.926C713.039 374.835 711.846 376.625 709.938 376.863C708.03 377.221 706.361 375.909 706.003 374C705.764 372.091 707.076 370.421 708.865 370.063Z" fill="#54CED1"/>
<path d="M650.787 326.997C652.337 326.759 653.768 327.713 654.007 329.264C654.245 330.815 653.172 332.246 651.622 332.485C650.071 332.724 648.64 331.65 648.521 330.099C648.282 328.548 649.236 327.117 650.787 326.997Z" fill="#54CED1"/>
<path d="M629.32 303.375C630.632 303.136 631.825 304.09 631.944 305.403C632.183 306.596 631.348 307.908 630.036 308.027C628.724 308.266 627.532 307.311 627.293 306.118C627.174 304.806 628.009 303.613 629.32 303.375Z" fill="#54CED1"/>
<path d="M636.357 317.334C639.219 316.976 641.962 319.004 642.439 321.867C642.916 324.85 640.888 327.594 637.907 327.951C635.045 328.429 632.302 326.401 631.825 323.537C631.348 320.555 633.375 317.811 636.357 317.334Z" fill="#54CED1"/>
<path d="M644.704 341.551C646.613 341.193 648.402 342.506 648.64 344.414C648.998 346.204 647.686 347.993 645.778 348.232C643.87 348.59 642.2 347.277 641.842 345.369C641.604 343.579 642.916 341.79 644.704 341.551Z" fill="#54CED1"/>
<path d="M676.665 368.393C679.528 368.035 682.151 369.944 682.509 372.687C682.986 375.551 681.078 378.175 678.216 378.652C675.473 379.01 672.849 377.101 672.372 374.358C671.895 371.494 673.923 368.87 676.665 368.393Z" fill="#54CED1"/>
<path d="M698.132 353.48C699.682 353.242 701.233 354.315 701.471 355.986C701.71 357.656 700.636 359.087 698.967 359.445C697.297 359.684 695.866 358.491 695.627 356.94C695.27 355.27 696.462 353.719 698.132 353.48Z" fill="#54CED1"/>
<path d="M673.446 402.632C676.546 402.155 679.289 404.183 679.766 407.285C680.243 410.267 678.216 413.13 675.115 413.607C672.134 414.085 669.272 412.057 668.795 408.955C668.318 405.972 670.345 403.109 673.446 402.632Z" fill="#54CED1"/>
<path d="M711.25 347.636C712.8 347.397 714.231 348.352 714.47 349.903C714.709 351.454 713.635 352.885 712.204 353.124C710.654 353.362 709.223 352.289 708.984 350.738C708.746 349.187 709.819 347.875 711.25 347.636Z" fill="#54CED1"/>
<path d="M708.03 327.832C709.58 327.594 711.012 328.667 711.25 330.099C711.489 331.65 710.415 333.081 708.865 333.32C707.434 333.558 706.003 332.485 705.764 331.053C705.526 329.502 706.48 328.071 708.03 327.832Z" fill="#54CED1"/>
<path d="M677.977 322.702C680.005 322.463 681.794 323.775 682.151 325.804C682.39 327.832 681.078 329.621 679.051 329.979C677.143 330.218 675.234 328.905 674.877 326.877C674.638 324.849 675.95 323.06 677.977 322.702Z" fill="#54CED1"/>
<path d="M702.067 241.818C703.498 240.864 705.287 241.341 706.241 242.653C707.076 244.085 706.718 245.875 705.287 246.829C703.975 247.664 702.067 247.306 701.233 245.875C700.278 244.443 700.755 242.653 702.067 241.818Z" fill="#54CED1"/>
<path d="M647.924 265.201C648.64 265.439 648.879 266.155 648.64 266.752C648.402 267.348 647.686 267.706 647.09 267.467C646.493 267.11 646.136 266.513 646.374 265.797C646.613 265.201 647.328 264.962 647.924 265.201Z" fill="#54CED1"/>
<path d="M650.31 251.958C651.502 252.435 652.098 253.866 651.621 255.059C651.144 256.372 649.713 256.849 648.521 256.372C647.209 255.895 646.732 254.463 647.209 253.27C647.686 252.077 649.117 251.481 650.31 251.958Z" fill="#54CED1"/>
<path d="M661.162 281.544C662.235 281.902 662.712 283.215 662.235 284.169C661.878 285.243 660.566 285.839 659.492 285.362C658.419 284.885 657.942 283.692 658.419 282.618C658.896 281.544 660.089 281.067 661.162 281.544Z" fill="#54CED1"/>
<path d="M666.29 292.997C667.721 293.594 668.317 295.264 667.721 296.576C667.125 297.888 665.575 298.604 664.263 298.008C662.832 297.411 662.235 295.86 662.832 294.429C663.309 293.117 664.978 292.52 666.29 292.997Z" fill="#54CED1"/>
<path d="M664.501 274.743C665.813 275.34 666.409 276.771 665.813 278.084C665.336 279.396 663.786 279.992 662.474 279.515C661.162 278.919 660.566 277.487 661.162 276.175C661.758 274.863 663.189 274.266 664.501 274.743Z" fill="#54CED1"/>
<path d="M675.831 283.215C676.785 283.572 677.262 284.765 676.904 285.72C676.427 286.674 675.354 287.151 674.28 286.674C673.326 286.316 672.849 285.123 673.326 284.169C673.684 283.215 674.877 282.737 675.831 283.215Z" fill="#54CED1"/>
<path d="M680.601 294.906C681.078 295.145 681.317 295.741 681.078 296.218C680.959 296.815 680.243 297.053 679.766 296.815C679.289 296.576 678.931 295.98 679.17 295.383C679.408 294.906 680.005 294.668 680.601 294.906Z" fill="#54CED1"/>
<path d="M681.555 304.092C682.509 304.449 682.986 305.642 682.628 306.597C682.151 307.551 681.078 308.028 680.005 307.67C679.051 307.193 678.574 306 679.051 305.046C679.408 304.092 680.601 303.614 681.555 304.092Z" fill="#54CED1"/>
<path d="M694.792 304.45C695.985 304.927 696.581 306.359 696.104 307.552C695.627 308.864 694.196 309.341 693.004 308.864C691.692 308.387 691.215 306.955 691.692 305.762C692.169 304.569 693.6 303.973 694.792 304.45Z" fill="#54CED1"/>
<path d="M677.977 268.183C679.885 269.018 680.72 271.165 679.885 273.074C679.17 274.983 676.904 275.818 674.996 275.102C673.207 274.267 672.253 272.12 673.088 270.211C673.923 268.302 676.069 267.348 677.977 268.183Z" fill="#54CED1"/>
<path d="M651.264 281.902C652.456 282.379 653.053 283.811 652.576 285.004C652.098 286.197 650.667 286.793 649.475 286.197C648.282 285.72 647.686 284.288 648.163 283.095C648.64 281.902 650.071 281.305 651.264 281.902Z" fill="#54CED1"/>
<path d="M673.565 298.722C675.473 299.558 676.308 301.586 675.473 303.375C674.757 305.284 672.611 306.119 670.822 305.284C669.033 304.568 668.198 302.421 668.914 300.631C669.749 298.842 671.776 298.007 673.565 298.722Z" fill="#54CED1"/>
<path d="M682.271 286.554C683.344 287.031 683.94 288.224 683.463 289.298C682.986 290.372 681.794 290.849 680.72 290.372C679.647 289.894 679.17 288.701 679.647 287.628C680.005 286.554 681.316 286.077 682.271 286.554Z" fill="#54CED1"/>
<path d="M704.452 292.042C705.406 292.4 705.883 293.593 705.526 294.548C705.049 295.502 703.975 295.979 702.902 295.621C701.948 295.144 701.471 294.07 701.948 293.116C702.306 292.042 703.498 291.565 704.452 292.042Z" fill="#54CED1"/>
<path d="M707.553 306.955C708.507 307.313 708.984 308.506 708.507 309.46C708.149 310.414 706.957 310.892 706.003 310.534C705.049 310.057 704.572 308.983 704.929 307.909C705.406 306.955 706.599 306.478 707.553 306.955Z" fill="#54CED1"/>
<path d="M693.838 265.201C695.031 265.678 695.627 267.229 695.15 268.541C694.554 269.853 693.123 270.45 691.811 269.853C690.499 269.257 689.903 267.825 690.499 266.513C690.976 265.201 692.527 264.604 693.838 265.201Z" fill="#54CED1"/>
<path d="M669.987 258.996C671.537 259.593 672.253 261.382 671.657 262.933C670.941 264.484 669.272 265.2 667.721 264.484C666.171 263.887 665.455 262.098 666.171 260.547C666.767 259.115 668.556 258.4 669.987 258.996Z" fill="#54CED1"/>
<path d="M185.684 533.382C185.326 531.116 181.271 530.519 179.959 528.372C177.932 524.674 174.593 522.884 170.18 523.242C166.602 523.6 163.025 522.646 160.759 526.105C158.612 529.326 155.75 531.951 153.842 535.291C152.53 537.677 147.76 538.87 148.237 542.091C148.833 545.432 151.457 547.102 150.145 550.681C149.549 552.47 148.594 554.26 148.356 556.288C146.567 556.049 144.778 556.288 142.989 556.526C137.861 557.004 133.21 556.884 128.321 558.435C124.385 559.747 121.404 559.867 117.826 562.253C114.487 564.519 111.505 567.502 107.928 569.53C103.992 571.677 104.827 573.586 104.112 577.404C103.396 581.34 97.6717 580.028 96.9561 584.323C96.3598 588.379 94.8095 591.719 93.9747 595.656C92.9014 600.428 94.0939 605.916 92.6628 610.568C91.5895 614.386 90.2777 616.295 94.0939 618.681C98.9835 621.782 94.8095 623.572 96.7176 627.628C90.9933 625.958 86.223 626.435 82.049 631.326C80.2601 633.593 78.7098 635.263 77.5172 637.888C76.3246 640.274 74.0587 640.751 72.2699 642.421C70.1232 644.568 72.2699 647.67 71.6736 650.175C71.0773 653.158 67.8574 654.709 68.8114 657.93C69.7655 661.151 70.8388 662.821 69.7655 666.161C68.6922 669.502 69.4077 672.961 69.7655 676.302C67.4996 674.274 63.4448 674.154 60.7019 672.604C57.2435 670.695 52.8309 672.126 49.2532 673.439C44.8407 675.228 44.6022 677.495 41.5015 680.477C39.4741 682.505 33.869 679.761 33.392 683.698C32.7957 687.635 34.1076 689.305 31.1261 692.526C27.7869 695.867 30.1721 698.253 29.218 702.07C28.1447 706.007 28.264 710.779 27.5484 714.835C27.0714 717.937 23.1359 719.368 22.4203 722.828C21.4663 727.361 21.7048 728.197 24.4477 731.656C26.3558 734.281 25.7596 739.53 25.521 742.512C25.044 746.807 24.8055 748 22.0626 751.221C19.7967 753.965 21.5856 760.049 22.8974 763.032C24.2092 766.133 25.4018 768.161 27.0714 771.025C29.4565 774.842 24.4477 777.109 29.9336 779.018C32.5572 779.972 36.4927 779.853 39.3549 779.853C42.8133 779.853 44.7215 777.228 48.7762 777.825C51.9961 778.302 55.0968 777.586 58.1975 777.586C61.0597 777.586 61.7752 781.046 64.5182 781.046C67.4996 781.046 67.8574 776.989 70.8388 776.989C74.655 776.989 77.7557 777.705 81.6912 777.109C85.2689 776.512 85.5074 778.421 87.7733 780.449C89.6814 782.358 93.7362 781.046 96.1213 781.046C98.1487 781.046 103.157 780.33 104.827 779.018C107.212 776.989 109.24 775.439 111.863 778.182C114.01 780.33 116.276 779.972 118.661 778.66C122 776.99 124.505 779.495 127.724 779.495C130.825 779.495 134.045 779.375 137.146 779.137C140.962 778.779 144.898 780.926 148.594 779.972C151.695 779.137 153.484 778.421 156.585 779.853C159.685 781.284 162.548 779.495 165.648 779.495C168.63 779.495 170.538 781.761 173.758 781.046C177.216 780.211 181.032 778.898 184.61 778.898C187.353 778.898 189.977 779.972 192.839 779.614C195.463 779.137 197.848 778.421 200.471 779.614C202.499 780.568 206.315 781.165 208.581 781.046C212.278 780.926 209.296 776.274 208.7 774.007C207.985 771.025 210.131 768.997 209.893 766.133C209.773 763.151 208.939 759.333 207.388 756.709C205.599 753.607 206.554 751.937 207.388 748.835C208.342 745.018 204.407 742.035 206.792 738.337C208.342 735.951 209.416 734.4 207.388 731.895C205.719 729.986 204.049 728.435 205.838 726.049C210.489 719.726 206.196 715.909 205.719 709.109C205.242 701.951 203.095 695.151 202.618 688.112C202.022 680.358 200.829 672.484 200.352 664.849C200.233 662.225 203.691 660.912 203.572 658.288C203.334 654.828 202.857 651.249 202.618 647.79C202.38 644.688 200.233 642.302 199.994 639.439C199.756 635.144 199.875 630.968 199.637 626.674C199.16 620.351 204.288 614.983 198.444 610.449C193.674 606.632 200.948 598.877 198.921 593.27C196.894 587.305 194.509 580.386 194.747 573.944C194.866 567.382 198.444 558.554 194.031 553.186C191.527 550.204 194.032 547.698 193.793 544.358C193.554 541.018 192.72 538.035 193.316 534.695C194.866 526.344 188.665 526.94 185.684 533.382C186.876 530.758 185.326 530.997 185.684 533.382Z" fill="#189FB1"/>
<path d="M173.4 791.424H63.9219V677.137H173.4V791.424Z" fill="#D3A479"/>
<path d="M173.4 706.723L88.7274 791.424H173.4V706.723Z" fill="#B27C4F"/>
<path d="M304.821 787.964H192.839V624.168H304.821V787.964Z" fill="#D3A479"/>
<path d="M192.839 775.796V787.965H304.821V663.775L192.839 775.796Z" fill="#B27C4F"/>
<path d="M271.668 571.916V815.165H1104.44V571.916H271.668Z" fill="#189FB1"/>
<path d="M1053.64 817.67H1104.44V551.516H1053.64V817.67Z" fill="white"/>
<path d="M997.348 817.67H1046.84V551.516H997.348V817.67Z" fill="white"/>
<path d="M941.178 817.67H990.55V551.516H941.178V817.67Z" fill="white"/>
<path d="M885.008 817.67H934.38V551.516H885.008V817.67Z" fill="white"/>
<path d="M828.719 817.67H878.21V551.516H828.719V817.67Z" fill="white"/>
<path d="M772.548 817.67H821.921V551.516H772.548V817.67Z" fill="white"/>
<path d="M716.378 817.67H765.751V551.516H716.378V817.67Z" fill="white"/>
<path d="M660.089 817.67H709.58V551.516H660.089V817.67Z" fill="white"/>
<path d="M603.919 817.67H653.41V551.516H603.919V817.67Z" fill="white"/>
<path d="M547.748 817.67H597.121V551.516H547.748V817.67Z" fill="white"/>
<path d="M491.459 817.67H540.951V551.516H491.459V817.67Z" fill="white"/>
<path d="M435.289 817.67H484.781V551.516H435.289V817.67Z" fill="white"/>
<path d="M379.119 817.67H428.491V551.516H379.119V817.67Z" fill="white"/>
<path d="M322.948 817.67H372.321V551.516H322.948V817.67Z" fill="white"/>
<path d="M271.668 551.516V817.67H316.151V551.516H271.668Z" fill="white"/>
<path d="M1053.64 817.67H1104.44V559.15H1053.64V817.67Z" fill="#F9E5CF"/>
<path d="M997.348 817.67H1046.84V559.15H997.348V817.67Z" fill="#F9E5CF"/>
<path d="M941.178 817.67H990.55V559.15H941.178V817.67Z" fill="#F9E5CF"/>
<path d="M885.008 817.67H934.38V559.15H885.008V817.67Z" fill="#F9E5CF"/>
<path d="M828.719 817.67H878.21V559.15H828.719V817.67Z" fill="#F9E5CF"/>
<path d="M772.548 817.67H821.921V559.15H772.548V817.67Z" fill="#F9E5CF"/>
<path d="M716.378 817.67H765.751V559.15H716.378V817.67Z" fill="#F9E5CF"/>
<path d="M660.089 817.67H709.58V559.15H660.089V817.67Z" fill="#F9E5CF"/>
<path d="M603.919 817.67H653.41V559.15H603.919V817.67Z" fill="#F9E5CF"/>
<path d="M547.748 817.67H597.121V559.15H547.748V817.67Z" fill="#F9E5CF"/>
<path d="M491.459 817.67H540.951V559.15H491.459V817.67Z" fill="#F9E5CF"/>
<path d="M435.289 817.67H484.781V559.15H435.289V817.67Z" fill="#F9E5CF"/>
<path d="M379.119 817.67H428.491V559.15H379.119V817.67Z" fill="#F9E5CF"/>
<path d="M322.948 817.67H372.321V559.15H322.948V817.67Z" fill="#F9E5CF"/>
<path d="M271.668 559.15V817.67H316.151V559.15H271.668Z" fill="#F9E5CF"/>
<path d="M1053.64 817.67H1104.44V783.432H1053.64V817.67Z" fill="#D3A479"/>
<path d="M997.348 817.67H1046.84V783.432H997.348V817.67Z" fill="#D3A479"/>
<path d="M941.178 817.67H990.55V783.432H941.178V817.67Z" fill="#D3A479"/>
<path d="M885.008 817.67H934.38V783.432H885.008V817.67Z" fill="#D3A479"/>
<path d="M828.719 817.67H878.21V783.432H828.719V817.67Z" fill="#D3A479"/>
<path d="M772.548 817.67H821.921V783.432H772.548V817.67Z" fill="#D3A479"/>
<path d="M716.378 817.67H765.751V783.432H716.378V817.67Z" fill="#D3A479"/>
<path d="M660.089 817.67H709.58V783.432H660.089V817.67Z" fill="#D3A479"/>
<path d="M603.919 817.67H653.41V783.432H603.919V817.67Z" fill="#D3A479"/>
<path d="M547.748 817.67H597.121V783.432H547.748V817.67Z" fill="#D3A479"/>
<path d="M491.459 817.67H540.951V783.432H491.459V817.67Z" fill="#D3A479"/>
<path d="M435.289 817.67H484.781V783.432H435.289V817.67Z" fill="#D3A479"/>
<path d="M379.119 817.67H428.491V783.432H379.119V817.67Z" fill="#D3A479"/>
<path d="M322.948 817.67H372.321V783.432H322.948V817.67Z" fill="#D3A479"/>
<path d="M271.668 783.432V817.67H316.151V783.432H271.668Z" fill="#D3A479"/>
<path d="M1529.24 357.537L1625.95 471.825V432.218H1668.41V521.811L1720.05 582.772H1682.48V775.32H1375.87V582.772H1338.3L1529.24 357.537Z" fill="#F0CD95"/>
<path d="M1625 618.799H1659.46V584.322H1625V618.799Z" fill="white"/>
<path d="M1583.97 618.799H1618.44V584.322H1583.97V618.799Z" fill="white"/>
<path d="M1625 659.481H1659.46V625.004H1625V659.481Z" fill="white"/>
<path d="M1583.97 659.481H1618.44V625.004H1583.97V659.481Z" fill="white"/>
<path d="M1546.29 683.938V808.843H1729.11V683.938H1546.29Z" fill="#E0CACA"/>
<path d="M1720.4 810.035H1733.17V677.375H1720.4V810.035Z" fill="white"/>
<path d="M1695.6 810.035H1708.24V677.375H1695.6V810.035Z" fill="white"/>
<path d="M1670.79 810.035H1683.43V677.375H1670.79V810.035Z" fill="white"/>
<path d="M1645.87 810.035H1658.63V677.375H1645.87V810.035Z" fill="white"/>
<path d="M1621.06 810.035H1633.82V677.375H1621.06V810.035Z" fill="white"/>
<path d="M1596.26 810.035H1608.9V677.375H1596.26V810.035Z" fill="white"/>
<path d="M1571.45 810.035H1584.09V677.375H1571.45V810.035Z" fill="white"/>
<path d="M1547.24 677.375V810.035H1558.57V677.375H1547.24Z" fill="white"/>
<path d="M1018.34 741.797C1015.71 739.172 1017.26 734.4 1020.25 732.253C1023.23 730.105 1023.11 730.583 1030.62 728.435C1035.03 727.123 1038.73 724.618 1045.65 716.863C1052.92 717.937 1060.32 717.937 1067.59 717.102C1069.38 724.618 1069.98 732.491 1069.5 740.246C1052.48 741.518 1035.43 742.035 1018.34 741.797Z" fill="#14345A"/>
<path d="M761.815 632.042C761.1 636.814 761.457 653.278 760.623 657.93L838.14 657.692C837.782 656.021 834.801 635.741 834.324 634.19C830.03 619.874 831.104 614.744 830.507 599.832C829.911 583.249 833.489 576.449 837.186 560.344C839.094 552.351 839.452 544.358 830.984 533.979C825.021 526.702 823.113 523.242 815.719 510C811.784 502.962 803.674 506.541 795.565 505.348C792.226 504.751 786.501 510 783.639 512.028C781.493 513.46 777.915 519.425 776.961 521.811C774.576 528.134 773.622 535.888 772.906 542.688C770.879 561.179 775.53 569.172 774.099 587.783C772.906 603.292 764.558 615.102 761.815 632.042Z" fill="#189FB1"/>
<path d="M955.727 616.175H847.561V501.648H955.727V616.175Z" fill="#D3A479"/>
<path d="M823.948 551.039C821.325 544.239 819.297 540.183 816.912 530.162C815.242 523.004 812.022 511.074 805.225 508.807C798.427 506.66 790.198 508.807 786.501 515.13C783.401 520.498 783.997 527.298 785.19 533.383C787.455 545.312 791.272 556.884 796.638 567.74C805.702 586.351 817.866 597.446 834.324 609.137C850.781 620.709 865.807 627.628 891.09 634.428C893.237 630.372 895.622 625.242 897.649 621.186C867.119 604.962 837.066 584.323 823.948 551.039Z" fill="#F0CD95"/>
<path d="M1139.74 486.618C1130.56 491.39 1120.18 493.776 1109.93 494.73C1106.83 495.088 1103.49 495.208 1100.86 493.776C1098.12 492.344 1096.21 488.646 1097.76 486.022C1123.28 482.323 1147.37 470.155 1165.38 451.902C1167.65 455.839 1165.74 460.73 1163.35 464.548C1157.63 473.853 1149.4 481.608 1139.74 486.618Z" fill="#14345A"/>
<path d="M1139.98 488.05C1138.43 485.186 1137.24 482.323 1136.4 479.221L1138.79 478.625C1139.5 481.488 1140.7 484.232 1142.01 486.857L1139.98 488.05Z" fill="#54CED1"/>
<path d="M1110.52 501.649C1108.38 496.877 1107.18 491.509 1107.3 486.26H1109.69C1109.57 491.151 1110.64 496.162 1112.67 500.695L1110.52 501.649Z" fill="#54CED1"/>
<path d="M799.739 595.298C804.628 601.621 809.995 607.586 816.554 611.881C818.582 613.193 820.847 614.505 823.233 614.863C825.618 615.221 828.361 614.505 829.911 612.716C831.938 610.33 831.7 606.751 831.104 603.649C824.664 571.2 790.914 549.726 783.997 517.277C778.034 529.923 777.557 544.716 780.896 558.316C784.236 571.797 791.272 584.323 799.739 595.298Z" fill="#14345A"/>
<path d="M1570.38 159.502C1570.26 153.06 1566.09 147.572 1560.24 145.544C1558.81 128.842 1544.74 115.72 1527.68 115.72C1522.32 115.72 1517.31 117.032 1512.9 119.299C1502.76 101.762 1483.92 89.9512 1462.33 89.9512C1440.87 89.9512 1422.26 101.523 1412.12 118.583C1407.83 116.435 1402.94 115.123 1397.81 115.123C1381.71 115.123 1368.48 127.172 1366.33 142.681C1358.58 146.379 1352.5 153.06 1349.63 161.292C1339.02 161.888 1333.06 162.604 1333.06 163.32C1333.06 165.825 1403.42 167.853 1490.36 167.853C1577.18 167.853 1647.66 165.825 1647.66 163.32C1647.66 161.649 1616.65 160.218 1570.38 159.502Z" fill="white"/>
<path d="M720.91 61.4383C720.791 55.712 717.094 50.94 711.966 49.1506C710.654 34.4769 698.37 22.9049 683.344 22.9049C678.693 22.9049 674.28 24.0979 670.345 26.0067C661.52 10.6172 644.943 0.238281 625.862 0.238281C607.019 0.238281 590.681 10.3786 581.737 25.4102C577.92 23.5014 573.627 22.4278 569.215 22.4278C555.023 22.4278 543.336 32.926 541.547 46.6453C534.63 49.8663 529.383 55.712 526.878 62.9892C517.457 63.5856 512.21 64.1821 512.21 64.7786C512.21 66.926 574.104 68.7155 650.548 68.7155C726.873 68.7155 788.767 66.926 788.767 64.7786C788.767 63.347 761.577 62.0348 720.91 61.4383Z" fill="white"/>
<path d="M1637.28 816H1258.16V653.754H1637.28V816Z" fill="#14345A"/>
<path d="M1604.13 750.146C1596.26 750.146 1575.51 750.146 1567.76 750.146C1556.19 750.146 1546.77 781.045 1546.77 819.22C1546.77 857.396 1556.19 888.294 1567.76 888.294C1575.51 888.294 1596.26 888.294 1604.13 888.294C1615.7 888.294 1625.12 857.396 1625.12 819.22C1625.12 781.045 1615.7 750.146 1604.13 750.146Z" fill="#14345A"/>
<path d="M1619.39 823.278C1619.39 851.074 1612.83 873.621 1604.73 873.621C1596.73 873.621 1590.18 851.074 1590.18 823.278C1590.18 795.362 1596.73 772.814 1604.73 772.814C1612.83 772.814 1619.39 795.362 1619.39 823.278Z" fill="#FEECCB"/>
<path d="M1612 440.927L1440.87 315.783V815.523H1571.93V766.253C1571.93 749.432 1587.08 736.667 1603.65 739.531L1604.25 739.65C1619.75 742.394 1631.08 755.874 1631.08 771.622V815.523H1650.64V605.201C1650.64 603.451 1650.48 601.701 1650.16 599.952L1627.86 466.695C1626.19 456.317 1620.47 447.131 1612 440.927Z" fill="#F47362"/>
<path d="M1664.12 602.575H1660.54C1654.1 602.575 1648.85 597.326 1648.85 590.884V557.242C1648.85 550.8 1654.1 545.551 1660.54 545.551H1664.12C1670.67 545.551 1675.8 550.8 1675.8 557.242V590.884C1675.8 597.326 1670.67 602.575 1664.12 602.575Z" fill="#5F45AA"/>
<path d="M1661.01 602.575H1657.32C1650.88 602.575 1645.63 597.326 1645.63 590.884V557.242C1645.63 550.8 1650.88 545.551 1657.32 545.551H1661.01C1667.45 545.551 1672.7 550.8 1672.7 557.242V590.884C1672.7 597.326 1667.45 602.575 1661.01 602.575Z" fill="white"/>
<path d="M1574.2 447.01L1572.65 576.09C1572.65 578.476 1574.31 580.624 1576.7 580.982L1631.68 590.168C1634.9 590.645 1637.76 587.782 1637.28 584.561L1617.96 467.41C1617.72 465.978 1616.89 464.785 1615.7 464.069L1581.59 442.834C1578.37 440.925 1574.2 443.192 1574.2 447.01Z" fill="#14345A"/>
<path d="M1596.85 607.347L1582.19 605.557C1580.04 605.199 1578.37 603.41 1578.37 601.143V597.803L1599.72 600.427V604.722C1599.72 606.273 1598.4 607.585 1596.85 607.347Z" fill="#E3E6F4"/>
<path d="M1638.24 784.744L1635.14 784.625C1636.69 743.109 1617.37 738.099 1617.25 737.979L1567.28 731.418V422.436H1570.38V728.674L1617.72 734.878C1618.8 735.116 1639.91 740.723 1638.24 784.744Z" fill="#14345A"/>
<path d="M879.045 693.123C866.404 693.123 832.773 693.123 820.132 693.123C801.408 693.123 786.144 743.228 786.144 805.025C786.144 866.702 801.408 916.807 820.132 916.807C832.773 916.807 866.404 916.807 879.045 916.807C897.768 916.807 913.033 866.702 913.033 805.025C913.033 743.228 897.768 693.123 879.045 693.123Z" fill="#14345A"/>
<path d="M895.502 812.302C895.502 853.46 888.943 886.863 880.834 886.863C872.844 886.863 866.284 853.46 866.284 812.302C866.284 771.144 872.844 737.74 880.834 737.74C888.943 737.74 895.502 771.144 895.502 812.302Z" fill="#FEECCB"/>
<path d="M1255.9 693.123C1243.38 693.123 1209.63 693.123 1197.1 693.123C1178.26 693.123 1163.12 743.228 1163.12 805.025C1163.12 866.702 1178.26 916.807 1197.1 916.807C1209.63 916.807 1243.38 916.807 1255.9 916.807C1274.74 916.807 1289.89 866.702 1289.89 805.025C1289.89 743.228 1274.74 693.123 1255.9 693.123Z" fill="#14345A"/>
<path d="M1272.36 812.302C1272.36 853.46 1265.8 886.863 1257.81 886.863C1249.7 886.863 1243.14 853.46 1243.14 812.302C1243.14 771.144 1249.7 737.74 1257.81 737.74C1265.8 737.74 1272.36 771.144 1272.36 812.302Z" fill="#FEECCB"/>
<path d="M971.112 693.123C958.47 693.123 924.721 693.123 912.199 693.123C893.356 693.123 878.21 743.228 878.21 805.025C878.21 866.702 893.356 916.807 912.199 916.807C924.721 916.807 958.47 916.807 971.112 916.807C989.835 916.807 1004.98 866.702 1004.98 805.025C1004.98 743.228 989.835 693.123 971.112 693.123Z" fill="#14345A"/>
<path d="M987.45 812.302C987.45 853.46 981.01 886.863 972.9 886.863C964.791 886.863 958.232 853.46 958.232 812.302C958.232 771.144 964.791 737.74 972.9 737.74C981.01 737.74 987.45 771.144 987.45 812.302Z" fill="#FEECCB"/>
<path d="M1352.38 693.123C1339.74 693.123 1306.11 693.123 1293.46 693.123C1274.74 693.123 1259.48 743.228 1259.48 805.025C1259.48 866.702 1274.74 916.807 1293.46 916.807C1306.11 916.807 1339.74 916.807 1352.38 916.807C1371.1 916.807 1386.37 866.702 1386.37 805.025C1386.37 743.228 1371.1 693.123 1352.38 693.123Z" fill="#14345A"/>
<path d="M1373.25 812.302C1373.25 853.46 1366.69 886.863 1358.58 886.863C1350.47 886.863 1344.03 853.46 1344.03 812.302C1344.03 771.144 1350.47 737.74 1358.58 737.74C1366.69 737.74 1373.25 771.144 1373.25 812.302Z" fill="#FEECCB"/>
<path d="M1563.82 405.734L1440.87 315.783V815.523H1563.82V405.734Z" fill="#14345A"/>
<path d="M719.479 173.818V815.523H1234.43V46.7656L719.479 173.818Z" fill="#FDB2B0"/>
<path d="M1215.71 75.6348L736.294 194.098V816.119H1215.71V75.6348Z" fill="#14345A"/>
<path d="M1234.43 46.7656V815.523H1305.87V716.387C1305.87 694.078 1326.02 677.138 1347.96 680.955L1368.48 684.415C1388.15 687.874 1402.58 704.934 1402.58 724.857V815.523H1557.26V281.187L1234.43 46.7656Z" fill="#F47362"/>
<path d="M1557.26 352.169L1234.43 151.867V373.046L1557.26 491.271V352.169Z" fill="#F0CD95"/>
<path d="M1554.64 300.87L1251.13 99.1368L1254.11 94.6035L1557.74 296.337L1554.64 300.87Z" fill="#14345A"/>
<path d="M1558.33 671.052L1257.81 627.866L1258.52 622.498L1559.17 665.684L1558.33 671.052Z" fill="#14345A"/>
<path d="M1558.57 506.063L1240.87 398.694L1242.54 393.564L1560.36 500.933L1558.57 506.063Z" fill="#14345A"/>
<path d="M1566.09 778.301L1396.74 764.582V820.294H1566.09V778.301Z" fill="#14345A"/>
<path d="M1627.38 783.312V820.295H1651.47V785.221L1627.38 783.312Z" fill="#14345A"/>
<path d="M1313.5 757.782L1255.54 753.129V820.294H1313.5V757.782Z" fill="#14345A"/>
<path d="M1255.54 820.294H715.424C707.076 820.294 700.398 813.613 700.398 805.382V768.041C700.398 759.81 707.076 753.129 715.424 753.129H1255.54V820.294Z" fill="#14345A"/>
<path d="M1255.54 761.957V753.129H715.424C709.342 753.129 704.095 756.708 701.709 761.957H1255.54Z" fill="white"/>
<path d="M769.567 790.709H736.413C730.45 790.709 725.68 785.817 725.68 779.853V779.614C725.68 773.649 730.45 768.758 736.413 768.758H769.567C775.53 768.758 780.419 773.649 780.419 779.614V779.853C780.419 785.817 775.53 790.709 769.567 790.709Z" fill="#F47362"/>
<path d="M1199.13 790.709H1165.98C1160.02 790.709 1155.13 785.817 1155.13 779.853V779.614C1155.13 773.649 1160.02 768.758 1165.98 768.758H1199.13C1205.09 768.758 1209.98 773.649 1209.98 779.614V779.853C1209.98 785.817 1205.09 790.709 1199.13 790.709Z" fill="#F47362"/>
<path d="M980.891 742.87H745V498.07H980.891V742.87Z" fill="#F0CD95"/>
<path d="M957.516 718.771L949.049 708.75L940.462 718.771H944.875V736.547H953.104V718.771H957.516Z" fill="#5F45AA"/>
<path fill-rule="evenodd" clip-rule="evenodd" d="M934.619 736.309H907.786V709.467H934.619V736.309ZM910.171 733.923H932.234V711.853H910.171V733.923Z" fill="#604B9F"/>
<path fill-rule="evenodd" clip-rule="evenodd" d="M904.208 736.309H877.375V709.467H904.208V736.309ZM879.761 733.923H901.823V711.853H879.761V733.923Z" fill="#604B9F"/>
<path d="M976.24 481.607H803.913V302.779H976.24V481.607Z" fill="#F0CD95"/>
<path d="M962.048 418.737L944.04 397.502L925.913 418.737H935.334V425.179H952.627V418.737H962.048Z" fill="#5F45AA"/>
<path d="M1158.46 741.201H986.138V375.074H1158.46V741.201Z" fill="#D3A479"/>
<path d="M1021.68 741.201H986.138V375.074H1021.68V741.201Z" fill="#B27C4F"/>
<path d="M1144.15 719.606L1126.15 698.371L1108.14 719.606H1117.44V726.048H1134.85V719.606H1144.15Z" fill="#5F45AA"/>
<path d="M447.692 543.165C438.39 534.099 430.519 523.72 424.317 512.506C415.015 515.369 406.19 519.783 397.723 525.032C406.548 540.78 418.116 557.481 433.619 566.906C450.912 577.285 469.158 585.636 502.192 590.646C503.782 585.954 505.372 581.301 506.963 576.688C484.661 570.604 464.03 559.032 447.692 543.165Z" fill="#F0CD95"/>
<path d="M413.703 485.185C412.034 479.697 410.483 473.613 405.594 470.511C400.466 467.29 393.072 468.841 388.659 473.136C384.366 477.431 382.577 483.754 382.935 489.718C383.293 495.683 385.439 501.41 387.824 506.897C390.687 513.578 393.907 520.139 397.484 526.462C406.309 520.975 415.611 516.322 425.39 513.339C428.968 522.048 416.804 495.683 413.703 485.185Z" fill="#D3584F"/>
<path d="M434.454 889.368C439.105 890.919 444.114 891.038 449.003 890.919C461.247 890.84 473.491 890.124 485.735 888.772C485.735 887.261 485.735 885.71 485.735 884.119C468.562 884.994 451.389 885.431 434.216 885.431C434.295 886.784 434.375 888.096 434.454 889.368Z" fill="#14345A"/>
<path d="M485.496 886.029C488.001 883.285 486.212 878.632 483.111 876.604C480.01 874.576 480.13 875.173 472.497 873.383C468.085 872.31 464.268 869.924 456.874 862.646C449.719 863.959 442.325 864.436 435.05 863.839C433.619 871.594 433.381 879.348 434.216 887.103C451.309 887.5 468.403 887.142 485.496 886.029Z" fill="#189FB1"/>
<path d="M433.858 602.814L370.532 619.278C374.945 643.137 379.715 653.636 386.751 670.457C413.703 734.758 427.418 799.179 431.115 870.52C441.53 869.645 451.905 868.73 462.241 867.776C460.929 809.797 457.948 751.699 452.82 693.839C450.077 662.821 446.261 631.207 433.858 602.814Z" fill="#14345A"/>
<path d="M440.417 868.73C435.17 787.25 427.776 704.815 418.474 623.692L420.74 623.334C430.161 704.576 437.555 787.011 442.802 868.611L440.417 868.73Z" fill="#5F45AA"/>
<path d="M355.267 867.06C356.698 862.289 358.368 857.596 360.276 852.983C352.644 852.268 345.051 851.552 337.498 850.836C336.067 856.165 335.073 861.573 334.516 867.06C341.433 866.583 348.35 866.583 355.267 867.06Z" fill="#5F45AA"/>
<path d="M333.92 886.862C338.571 888.413 343.58 888.533 348.47 888.413C360.713 888.334 372.917 887.618 385.082 886.266C385.082 884.755 385.082 883.204 385.082 881.613C367.988 882.488 350.815 882.926 333.562 882.926C333.722 884.278 333.841 885.59 333.92 886.862Z" fill="#14345A"/>
<path d="M384.604 883.523C387.109 881.495 385.32 875.53 382.1 873.979C378.999 872.547 379.238 872.905 371.605 871.593C367.193 870.758 363.377 868.968 355.983 863.361C348.827 864.435 341.433 864.793 334.039 864.316C332.728 870.161 332.966 878.87 333.92 884.716C350.974 885.074 367.551 884.477 384.604 883.523Z" fill="#189FB1"/>
<path d="M369.34 620.828C362.9 660.912 384.247 702.428 373.871 741.558C371.248 751.221 366.835 760.287 362.781 769.473C350.497 796.793 341.433 825.663 335.709 855.249C344.296 858.351 359.441 860.975 367.909 862.526C387.944 822.442 407.621 789.993 419.666 742.512C431.473 695.866 428.849 648.386 426.225 604.842C426.225 604.842 369.459 620.47 369.34 620.828Z" fill="#14345A"/>
<path d="M349.424 856.681L347.158 855.966C360.992 807.769 369.578 789.397 376.614 774.604C381.623 763.748 385.678 755.159 390.329 738.218C400.823 698.85 405.594 659.481 405.117 614.506L407.502 614.387C407.979 659.601 403.209 699.208 392.595 738.815C387.944 755.994 383.65 765.06 378.761 775.559C371.844 790.232 363.138 808.604 349.424 856.681Z" fill="#5F45AA"/>
<path d="M385.32 619.396C380.908 619.993 376.376 620.47 371.963 620.589C372.122 622.498 372.242 624.367 372.321 626.196C376.932 626.117 381.504 625.719 386.036 625.004C385.439 623.214 385.201 621.305 385.32 619.396Z" fill="#189FB1"/>
<path d="M387.109 619.159C386.99 621.068 387.228 622.976 387.944 624.766C395.695 623.573 403.328 621.545 410.603 618.801C411.159 618.562 411.716 618.324 412.272 618.085C411.557 616.494 410.96 614.864 410.483 613.194L412.272 612.717C412.749 614.307 413.306 615.898 413.942 617.489C421.455 614.268 428.73 609.615 432.546 602.457C418.712 610.927 403.089 616.534 387.109 619.159Z" fill="#189FB1"/>
<path d="M421.694 525.271C420.62 512.864 419.666 500.338 415.85 488.408C412.153 476.478 405.236 465.145 394.622 458.464C384.127 451.783 369.578 450.59 359.322 457.868C348.47 465.503 345.011 479.938 344.057 493.299C342.864 509.166 344.296 525.152 345.727 541.018C348.589 570.843 349.543 592.913 360.395 620.71C386.155 623.096 412.63 617.489 435.408 605.201C436.601 604.485 438.032 603.65 438.509 602.218C438.986 600.668 438.151 599.117 437.435 597.566C424.794 573.11 424.079 552.829 421.694 525.271Z" fill="#F47362"/>
<path d="M388.659 479.58C396.53 487.573 400.346 498.548 402.135 509.643C403.805 520.618 403.566 531.833 404.401 542.927C405.832 560.941 410.126 578.717 417.162 595.418C418.354 598.162 419.547 601.264 418.951 604.127C417.877 609.257 411.914 611.524 406.786 612.717C399.074 614.466 391.323 615.938 383.531 617.131C381.504 617.369 379.238 617.608 377.449 616.654C375.422 615.699 374.348 613.552 373.394 611.404C361.946 586.59 354.79 559.748 352.524 532.548C351.57 521.334 351.451 509.643 355.506 499.145C359.68 488.647 368.863 479.461 380.073 478.268L388.659 479.58Z" fill="#D3584F"/>
<path d="M399.75 434.484C387.348 433.172 384.128 430.666 374.348 422.912L362.542 454.407C375.064 452.14 386.99 455.361 397.961 461.445C395.815 451.902 395.934 441.881 399.75 434.484Z" fill="#F0CD95"/>
<path d="M396.769 453.811C396.172 446.773 397.007 439.973 399.75 434.485C388.659 433.292 384.962 431.145 377.211 425.18C377.568 439.018 385.678 448.443 396.769 453.811Z" fill="#14345A"/>
<path d="M362.423 452.498C362.661 451.782 362.9 450.828 363.496 450.35C363.973 449.993 364.689 449.873 365.404 449.754C379.238 448.084 393.43 450.589 405.952 456.673C405.355 462.4 405.594 468.126 406.429 473.733C399.392 469.557 392.356 465.382 384.605 462.638C376.853 459.894 364.569 458.94 356.46 460.372C357.175 457.866 361.707 455.003 362.423 452.498Z" fill="white"/>
<path d="M416.923 431.74C416.327 428.281 414.061 425.179 413.823 421.719C414.3 420.646 415.492 419.333 415.611 418.26C416.088 412.772 415.969 409.432 415.969 403.944C416.088 401.677 416.088 399.411 415.373 397.263C414.061 392.969 410.006 389.748 405.713 388.435C401.42 387.004 396.888 387.123 392.356 387.481C386.513 387.958 380.311 389.151 376.376 393.446C373.752 396.309 372.56 400.126 372.082 403.944C370.771 414.8 374.825 426.133 382.339 434.126C389.852 442.119 398.796 448.084 409.41 447.607C410.722 442.955 412.034 439.256 413.107 435.081C413.663 435.001 414.22 434.922 414.777 434.842C415.254 434.723 415.85 434.604 416.327 434.246C417.042 433.649 417.042 432.576 416.923 431.74Z" fill="#F0CD95"/>
<path d="M407.144 436.871C407.263 437.109 407.502 437.348 407.74 437.348C408.933 437.825 410.364 437.945 411.557 437.706C411.636 437.308 411.716 436.911 411.795 436.513C411.08 436.513 410.245 436.513 409.41 436.513C408.695 436.394 407.86 436.155 407.263 435.559C407.025 436.036 406.906 436.513 407.144 436.871Z" fill="#14345A"/>
<path d="M411.08 419.452C411.08 418.975 410.96 418.498 410.483 418.379C410.126 418.259 409.768 418.498 409.529 418.856C409.052 419.452 408.814 420.287 408.814 421.003C408.814 421.361 408.814 421.6 409.052 421.838C409.291 421.958 409.768 421.838 410.006 421.48C410.603 421.003 410.96 420.168 411.08 419.452Z" fill="#14345A"/>
<path d="M407.502 415.873C409.172 415.555 410.841 415.436 412.511 415.515C412.431 415.118 412.391 414.68 412.391 414.203C410.722 413.965 409.052 414.084 407.502 414.68C407.581 415.078 407.581 415.476 407.502 415.873Z" fill="#14345A"/>
<path d="M372.083 397.62C374.348 391.178 380.55 386.883 387.228 385.452C393.787 384.139 400.585 385.332 407.144 387.241C409.41 387.957 411.914 388.911 413.465 390.82C414.657 392.252 415.254 394.041 415.731 395.831C416.088 397.262 416.327 398.694 416.327 400.006C415.969 403.585 413.226 406.448 409.887 407.76C406.667 409.073 402.97 408.953 399.512 408.715C391.283 407.999 383.293 405.971 375.303 404.062C374.468 403.824 373.514 403.585 372.917 403.108C371.367 401.796 371.486 399.41 372.083 397.62Z" fill="#14345A"/>
<path d="M391.879 416.589C391.999 414.918 393.43 413.248 395.099 413.368C396.769 413.487 398.319 414.918 398.558 416.589C398.915 418.975 399.035 420.525 399.989 421.48C400.943 416.708 402.612 412.055 404.759 407.641C395.218 405.573 385.718 403.506 376.257 401.438C375.541 401.199 374.706 401.08 373.991 401.199C373.394 401.438 372.798 401.796 372.321 402.273C370.174 404.301 369.459 407.522 369.697 410.624C369.817 413.606 370.771 416.469 371.486 419.452C372.202 422.315 372.679 425.417 371.725 428.28C376.972 427.683 381.862 425.536 386.036 422.315C387.705 421.003 389.733 419.333 391.76 419.571C391.76 418.497 391.76 417.424 391.879 416.589Z" fill="#14345A"/>
<path d="M395.338 384.259C400.585 384.855 405.832 385.929 410.96 387.48C412.869 387.957 414.777 388.792 415.969 390.343C416.804 391.775 416.923 393.445 417.043 395.115C417.122 400.125 416.844 405.136 416.208 410.147C403.447 412.652 390.21 412.055 377.807 408.476C374.825 407.522 371.486 406.09 370.771 403.108C370.413 401.676 370.771 400.125 371.248 398.694C372.083 395.592 372.917 392.49 374.825 389.866C377.091 387.003 380.669 385.213 384.247 384.378C387.944 383.662 391.641 383.782 395.338 384.259Z" fill="#5F45AA"/>
<path d="M416.088 399.173C416.088 396.787 416.208 394.162 415.015 392.134C413.823 389.987 411.557 388.674 409.172 387.959C406.906 387.362 404.401 387.243 402.016 386.766C403.447 387.959 404.282 389.748 404.64 391.538C404.998 393.327 404.878 395.117 404.759 396.906C404.401 401.917 403.566 406.927 402.016 411.699C404.163 411.699 406.19 411.699 408.217 411.222C410.245 410.864 412.153 409.909 413.465 408.359C415.611 405.973 415.85 402.394 416.088 399.173Z" fill="#F47362"/>
<path d="M416.088 406.568C418.831 406.091 419.428 407.761 429.565 408.835C425.033 413.249 420.501 415.754 414.3 414.919C408.098 414.203 402.374 413.13 396.172 411.579C403.089 411.698 409.291 407.88 416.088 406.568Z" fill="#5F45AA"/>
<path d="M375.541 397.025C375.422 396.667 374.945 396.429 374.587 396.19C374.229 396.071 373.752 395.832 373.275 396.071C372.917 396.19 372.679 396.667 372.56 397.145C372.202 398.099 371.963 399.173 372.083 400.246C372.321 401.32 373.156 402.394 374.229 402.274C374.627 400.843 375.024 399.411 375.422 397.98C375.541 397.622 375.66 397.383 375.541 397.025Z" fill="#14345A"/>
<path d="M405.117 561.774C397.484 549.01 391.76 535.29 388.182 521.094C377.091 521.452 366 523.838 355.148 527.178C360.276 547.101 368.147 568.932 382.696 583.845C398.796 600.427 416.446 614.862 451.508 630.013C454.608 625.4 457.709 620.748 460.81 616.055C437.912 602.813 418.474 583.964 405.117 561.774Z" fill="#F0CD95"/>
<path d="M384.366 487.691C384.247 481.249 384.247 474.091 379.834 469.2C375.064 464.189 366.358 463.712 360.276 467.171C354.194 470.631 350.497 477.073 349.185 483.754C347.754 490.554 348.47 497.473 349.543 504.154C350.736 512.385 352.405 520.617 354.433 528.61C365.881 525.15 377.449 522.764 389.136 522.287C386.274 510.954 384.724 499.382 384.366 487.691Z" fill="#F47362"/>
<path d="M354.79 529.089C366 525.51 377.688 523.243 389.375 522.527L389.256 520.738C377.449 521.453 365.881 523.72 354.552 527.299C353.955 522.408 352.763 517.636 351.69 512.864C350.855 509.404 349.901 505.825 349.304 502.246C347.277 491.39 347.993 482.801 351.451 476.001C355.148 468.724 364.212 462.52 372.798 464.906L373.275 463.117C363.734 460.492 353.836 467.173 349.781 475.285C346.204 482.443 345.488 491.39 347.516 502.604C348.231 506.183 349.066 509.762 349.901 513.341C351.212 518.59 352.524 523.959 353.121 529.327L353.836 529.208V529.446C354.154 529.367 354.472 529.248 354.79 529.089Z" fill="#14345A"/>
<path d="M1028.95 742.633C1026.33 740.008 1027.88 735.236 1030.86 733.089C1033.84 730.822 1033.72 731.419 1041.23 729.271C1045.65 727.959 1049.34 725.454 1056.26 717.699C1063.54 718.773 1070.93 718.773 1078.2 717.819C1079.99 725.454 1080.59 733.208 1080.11 740.962C1063.1 742.314 1046.04 742.871 1028.95 742.633Z" fill="#14345A"/>
<path d="M1161.57 459.895C1143.92 464.309 1125.55 465.859 1107.3 464.428L1097.88 464.07C1099.79 483.158 1092.04 504.273 1083.57 521.452C1074.98 538.751 1069.02 552.231 1062.58 570.365C1046.6 615.459 1051.61 672.484 1052.45 720.323L1080.35 719.607C1081.9 664.968 1088.7 603.53 1120.3 558.912C1130.92 543.761 1143.2 529.684 1152.14 513.34C1160.97 497.116 1166.22 477.789 1161.57 459.895Z" fill="#189FB1"/>
<path d="M1066.16 717.937C1061.27 651.25 1071.65 584.562 1096.93 520.021L1099.19 520.857C1074.03 585.158 1063.66 651.369 1068.54 717.818L1066.16 717.937Z" fill="#54CED1"/>
<path d="M1085.96 626.554C1095.02 600.666 1104.08 574.778 1110.88 548.294C1112.43 542.21 1113.86 535.768 1112.67 529.684C1111.48 523.48 1107.06 517.396 1100.86 516.441C1087.15 559.031 1073.2 602.813 1075.58 647.431C1080.71 641.466 1083.33 633.95 1085.96 626.554Z" fill="#14345A"/>
<path d="M1084.29 741.797C1081.66 739.172 1083.21 734.4 1086.19 732.253C1089.18 730.105 1089.06 730.583 1096.57 728.435C1100.98 727.123 1104.68 724.618 1111.6 716.863C1118.87 717.937 1126.27 717.937 1133.54 717.102C1135.33 724.618 1136.04 732.491 1135.45 740.246C1118.43 741.518 1101.38 742.035 1084.29 741.797Z" fill="#14345A"/>
<path d="M1134.49 720.801C1128.89 665.685 1128.53 614.029 1144.51 562.492C1155.36 528.015 1178.26 508.689 1172.89 463.236L1167.41 445.699C1144.87 457.629 1126.86 458.583 1101.58 461.924C1102.41 499.861 1094.54 532.787 1091.2 566.668C1086.08 618.085 1094.9 669.861 1104.08 720.801H1134.49Z" fill="#54CED1"/>
<path d="M1124.71 719.607C1123.4 709.348 1122.81 700.4 1122.21 691.572C1121.61 682.864 1121.02 673.916 1119.83 663.657C1118.27 650.892 1116.61 637.53 1116.37 624.407C1115.77 601.383 1118.99 578.716 1125.91 556.765C1128.65 548.176 1131.99 539.706 1135.21 531.474C1137.83 524.674 1140.58 517.516 1142.96 510.478C1144.87 504.99 1146.78 501.292 1148.33 498.428C1151.19 492.821 1153.1 489.123 1152.14 478.864L1154.53 478.625C1155.48 489.6 1153.34 493.776 1150.47 499.502C1148.8 502.485 1147.02 505.944 1145.23 511.313C1142.84 518.351 1140.1 525.509 1137.36 532.428C1134.14 540.541 1130.92 549.011 1128.17 557.481C1121.38 579.193 1118.16 601.621 1118.75 624.288C1118.99 637.411 1120.66 650.653 1122.21 663.418C1123.4 673.678 1124 682.744 1124.6 691.453C1125.19 700.162 1125.79 709.109 1127.1 719.369L1124.71 719.607Z" fill="#189FB1"/>
<path d="M1039.57 384.499C1020.01 407.166 994.725 424.941 966.818 435.797C969.76 441.285 972.741 446.812 975.763 452.38C999.495 442.836 1022.75 431.86 1043.5 416.829C1051.97 410.745 1060.44 404.541 1068.19 397.741C1064.85 387.004 1056.98 380.92 1047.44 374.955C1044.81 378.176 1042.19 381.397 1039.57 384.499Z" fill="#F0CD95"/>
<path d="M1082.14 343.46C1075.1 345.727 1067.83 352.527 1063.66 356.464C1057.81 362.19 1052.56 368.513 1047.44 374.955C1056.74 380.562 1064.49 387.362 1068.19 397.741C1079.4 387.839 1089.18 376.864 1095.62 363.025C1100.03 353.481 1094.66 339.404 1082.14 343.46Z" fill="#D3584F"/>
<path d="M1064.73 391.059C1059.48 384.856 1052.92 379.488 1045.65 375.789L1046.48 374.119C1053.88 378.056 1060.67 383.424 1066.16 389.986L1064.73 391.059Z" fill="#14345A"/>
<path d="M1148.57 474.449C1134.85 482.8 1118.39 487.93 1101.58 489.004C1094.42 489.481 1087.98 484.47 1086.91 477.313C1083.45 454.288 1077.85 431.502 1070.21 409.193C1065.44 394.997 1059.72 380.323 1062.46 365.769C1064.61 354.316 1072.12 343.818 1082.97 337.137C1093.71 330.456 1107.54 325.327 1120.66 327.355C1145.23 355.509 1155.72 393.207 1165.26 427.684C1167.77 436.632 1170.15 446.176 1167.05 455.004C1164.07 463.116 1156.68 469.558 1148.57 474.449Z" fill="#F47362"/>
<path d="M1062.58 326.877C1074.03 320.435 1076.06 316.617 1082.26 304.926L1104.8 327.592C1095.85 340.357 1091.44 343.698 1078.68 353.242C1072.6 343.459 1071.65 334.273 1062.58 326.877Z" fill="#F0CD95"/>
<path d="M1073.67 344.296C1071.29 337.257 1067.59 331.054 1062.58 326.878C1072.96 321.032 1075.58 317.454 1080.47 308.268C1086.08 321.868 1082.14 334.394 1073.67 344.296Z" fill="#14345A"/>
<path d="M1076.3 401.917C1079.04 382.352 1090.37 364.576 1105.51 352.05C1110.64 347.755 1117.92 343.938 1123.64 347.397C1126.27 348.948 1127.93 351.931 1129.01 354.913C1133.18 367.201 1129.01 380.562 1124.83 392.85C1118.63 411.341 1112.31 429.833 1105.51 448.204C1102.41 456.913 1098.84 465.861 1092.16 472.303C1082.62 449.875 1072.96 426.015 1076.3 401.917Z" fill="#D3584F"/>
<path d="M1100.27 322.82C1101.1 326.28 1100.15 329.978 1098.24 332.961C1096.45 335.943 1093.83 338.448 1091.32 340.954C1088.34 343.817 1085.36 346.68 1082.02 349.066C1080.95 349.901 1079.87 350.617 1079.04 351.69C1078.56 352.287 1078.32 353.122 1077.97 353.957C1076.42 358.371 1075.46 363.143 1075.34 367.796C1080.35 360.638 1087.51 355.15 1093.95 349.066C1100.39 342.982 1106.47 335.824 1108.14 327.115C1105.28 326.161 1102.65 324.729 1100.27 322.82Z" fill="white"/>
<path d="M1074.15 343.102C1071.65 345.845 1069.98 351.095 1070.1 354.793C1070.33 358.491 1071.53 362.07 1073.08 365.41C1073.67 360.28 1076.3 355.389 1080.11 351.93C1077.25 350.14 1075.58 346.203 1074.15 343.102Z" fill="white"/>
<path d="M1078.32 284.764C1076.18 281.305 1073.43 278.084 1069.74 276.413C1064.13 273.908 1057.57 275.459 1051.73 277.487C1047.2 279.038 1042.67 280.947 1039.09 284.049C1035.51 287.27 1033.01 291.922 1033.6 296.694C1033.84 299.08 1034.79 301.347 1035.87 303.494C1038.25 308.743 1039.57 311.964 1042.31 317.094C1042.79 318.168 1044.69 318.884 1045.53 319.719C1045.77 320.435 1045.89 321.15 1045.89 321.866C1046.01 325.922 1046.01 329.143 1047.32 332.961C1047.56 333.438 1048.75 334.154 1049.22 334.273C1049.82 334.392 1051.49 334.154 1051.97 333.677C1052.09 333.438 1052.33 333.319 1052.44 333.199C1055.07 336.42 1057.69 339.164 1060.79 342.863C1071.17 338.806 1077.37 329.263 1081.31 318.287C1085.12 307.431 1084.29 294.666 1078.32 284.764Z" fill="#F0CD95"/>
<path d="M1045.29 313.397C1047.44 312.801 1049.82 312.681 1052.09 312.92C1052.01 313.318 1052.05 313.675 1052.21 313.994C1050.06 313.874 1047.91 314.113 1045.89 314.709C1045.65 314.232 1045.45 313.795 1045.29 313.397Z" fill="#14345A"/>
<path d="M1052.8 318.168C1052.44 317.691 1052.09 317.333 1051.73 317.094C1051.25 316.856 1050.54 316.856 1050.3 317.333C1049.94 317.691 1050.06 318.407 1050.42 318.764C1050.66 319.242 1051.13 319.599 1051.61 319.719C1052.09 319.957 1052.68 319.957 1053.04 319.599C1053.28 319.122 1053.04 318.645 1052.8 318.168Z" fill="#14345A"/>
<path d="M1055.9 334.155C1057.33 333.916 1058.53 332.962 1059.84 332.246C1059.96 332.127 1060.2 332.127 1060.32 332.127C1060.79 332.127 1061.03 332.604 1060.91 332.962C1060.91 333.32 1060.55 333.678 1060.32 333.916C1059.72 334.632 1059.12 335.229 1058.29 335.587C1057.45 336.064 1056.5 336.183 1055.66 335.825C1055.43 335.706 1055.31 335.587 1055.07 335.348C1054.95 335.109 1054.95 334.752 1055.07 334.632C1055.31 334.274 1055.66 334.274 1055.9 334.155Z" fill="#14345A"/>
<path d="M1075.58 278.681C1070.69 273.432 1062.82 271.881 1055.9 273.313C1048.87 274.863 1042.79 278.92 1037.42 283.572C1035.39 285.242 1033.36 287.151 1032.65 289.656C1032.05 291.565 1032.29 293.593 1032.65 295.502C1032.89 296.934 1033.24 298.484 1033.96 299.797C1035.63 303.137 1039.68 304.688 1043.38 304.569C1047.08 304.449 1050.54 302.779 1053.76 300.99C1061.51 296.814 1068.43 291.565 1075.34 286.197C1076.06 285.72 1076.77 285.123 1077.13 284.288C1078.09 282.379 1077.01 280.113 1075.58 278.681Z" fill="#14345A"/>
<path d="M1064.01 305.403C1063.18 303.971 1061.15 302.897 1059.48 303.613C1057.93 304.448 1057.1 306.596 1057.57 308.385C1058.17 310.771 1058.77 312.322 1058.29 313.515C1055.19 309.339 1051.73 305.522 1047.67 302.301C1056.02 296.256 1064.37 290.172 1072.72 284.048C1073.31 283.571 1074.03 283.094 1074.75 282.975C1075.46 282.855 1076.18 282.975 1076.77 283.213C1079.75 284.406 1081.78 287.15 1082.97 290.132C1084.05 293.115 1084.29 296.336 1084.88 299.438C1085.48 302.539 1086.43 305.76 1088.46 308.266C1083.09 309.697 1077.49 309.817 1072.12 308.504C1069.86 307.908 1067.35 307.192 1065.32 308.266C1064.97 307.311 1064.49 306.238 1064.01 305.403Z" fill="#F47362"/>
<path d="M1047.44 275.58C1042.55 278.443 1038.01 281.664 1033.72 285.362C1032.17 286.675 1030.5 288.226 1030.14 290.254C1029.79 292.043 1030.5 293.713 1031.1 295.264C1033.17 300.195 1035.59 304.967 1038.37 309.58C1051.61 306.597 1064.25 300.275 1074.75 291.566C1077.25 289.419 1079.87 286.555 1079.28 283.334C1078.92 281.783 1077.85 280.471 1076.89 279.278C1074.75 276.654 1072.6 274.029 1069.62 272.359C1066.28 270.45 1062.1 270.212 1058.17 271.047C1054.35 271.882 1050.78 273.671 1047.44 275.58Z" fill="#5F45AA"/>
<path d="M1034.56 298.604C1033.36 296.337 1032.29 293.951 1032.53 291.327C1032.77 288.821 1034.44 286.555 1036.35 284.884C1038.37 283.334 1040.64 282.141 1042.79 280.709C1041.95 282.498 1041.95 284.527 1042.31 286.435C1042.79 288.225 1043.62 290.014 1044.45 291.684C1046.96 296.456 1049.94 300.87 1053.4 304.807C1051.37 305.762 1049.46 306.597 1047.32 307.074C1045.17 307.432 1042.9 307.432 1040.88 306.477C1037.78 305.046 1036.11 301.705 1034.56 298.604Z" fill="#F47362"/>
<path d="M1036.82 306.001C1033.96 306.717 1034.2 308.625 1024.78 313.994C1030.98 316.38 1036.46 316.738 1042.19 313.397C1047.91 310.057 1053.04 306.597 1058.29 302.422C1051.61 305.404 1043.98 304.331 1036.82 306.001Z" fill="#5F45AA"/>
<path d="M1072 279.516C1072 279.039 1072.36 278.681 1072.6 278.323C1072.96 277.965 1073.32 277.607 1073.79 277.607C1074.27 277.607 1074.63 277.965 1074.98 278.323C1075.7 279.278 1076.53 280.113 1076.77 281.186C1077.01 282.379 1076.65 283.692 1075.58 284.05C1074.55 282.857 1073.51 281.624 1072.48 280.351C1072.24 280.113 1072.12 279.874 1072 279.516Z" fill="#14345A"/>
<path d="M1071.65 389.151C1054.95 418.498 1030.86 443.67 1002.24 461.684C1006.77 467.172 1011.3 472.66 1015.83 478.147C1039.92 462.4 1063.42 445.221 1083.09 424.105C1091.2 415.516 1099.19 406.807 1106.23 397.621C1100.27 386.407 1090.25 381.397 1078.32 376.863C1076.18 380.919 1074.03 385.095 1071.65 389.151Z" fill="#F0CD95"/>
<path d="M1109.93 334.513C1102.65 338.569 1096.09 347.636 1092.4 352.885C1087.03 360.401 1082.62 368.632 1078.32 376.864C1089.89 381.039 1099.91 387.004 1106.23 397.622C1116.49 384.26 1124.95 369.825 1129.13 353.243C1131.99 341.671 1122.93 327.355 1109.93 334.513Z" fill="#F47362"/>
<path d="M1106.11 400.126L1104.68 399.052C1111.84 389.747 1118.04 379.607 1123.16 369.108C1125.43 364.456 1127.82 358.968 1127.82 353.361C1127.82 348.589 1125.43 342.505 1120.18 340.477L1120.9 338.807C1126.86 341.193 1129.6 347.754 1129.6 353.361C1129.6 359.326 1127.1 365.052 1124.83 369.824C1119.59 380.561 1113.27 390.701 1106.11 400.126Z" fill="#14345A"/>
<path d="M1105.4 398.457C1099.31 388.317 1089.3 380.92 1077.85 378.176L1078.32 376.387C1090.13 379.369 1100.62 387.004 1106.95 397.503L1105.4 398.457Z" fill="#14345A"/>
<path d="M522.824 803.712L1026.21 665.923C1037.78 662.821 1044.57 650.891 1041.47 639.319L1036.82 622.379L491.578 771.621L496.229 788.561C499.33 800.133 511.256 806.933 522.824 803.712Z" fill="#14345A"/>
<path d="M1000.09 704.218L987.092 707.916L962.764 654.828L984.945 648.744L1000.09 704.218Z" fill="#14345A"/>
<path d="M579.232 819.101L565.398 823.157L550.253 767.803L572.315 761.719L579.232 819.101Z" fill="#14345A"/>
<path d="M1017.26 636.456L982.918 645.881C974.332 648.267 965.387 643.137 963.002 634.547L916.73 465.024C914.345 456.435 919.354 447.607 928.06 445.221L962.406 435.796C970.992 433.41 979.937 438.54 982.322 447.13L1028.71 616.653C1030.98 625.242 1025.97 634.07 1017.26 636.456Z" fill="#14345A"/>
<path d="M560.032 761.72L525.567 771.144C516.98 773.411 508.036 768.401 505.651 759.692L459.379 590.288C456.994 581.579 462.003 572.751 470.708 570.365L505.054 560.941C513.641 558.555 522.585 563.685 524.97 572.274L571.361 741.797C573.627 750.386 568.618 759.334 560.032 761.72Z" fill="#14345A"/>
<path d="M974.689 626.197L549.537 742.632C536.061 746.33 522.227 738.337 518.53 724.857L512.806 703.86C509.109 690.379 516.98 676.541 530.456 672.843L955.608 556.407C969.084 552.829 982.918 560.702 986.615 574.183L992.339 595.179C996.036 608.66 988.165 622.499 974.689 626.197Z" fill="#14345A"/>
<path d="M1034.68 631.684L1021.68 635.263C1007.13 639.2 992.22 630.73 988.165 616.175L947.737 468.126C943.682 453.572 952.269 438.54 966.818 434.603L979.817 431.024C994.367 427.088 1009.27 435.558 1013.33 450.112L1053.76 598.161C1057.81 612.716 1049.22 627.747 1034.68 631.684Z" fill="#5F45AA"/>
<path d="M516.145 773.65L499.568 778.183C485.973 781.881 472.02 773.888 468.323 760.408L426.822 608.66C423.125 595.179 431.115 581.222 444.591 577.523L461.287 572.99C474.763 569.292 488.716 577.165 492.413 590.765L533.915 742.513C537.612 755.994 529.741 769.951 516.145 773.65Z" fill="#5F45AA"/>
<path d="M988.762 659.36L552.4 778.778C544.171 781.045 535.703 776.153 533.438 767.922L522.466 727.718C520.2 719.487 524.97 711.017 533.318 708.75L969.561 589.332C977.79 587.066 986.377 591.838 988.642 600.189L999.614 640.273C1001.88 648.624 996.99 657.094 988.762 659.36Z" fill="white"/>
<path d="M988.762 659.362L552.4 778.779C544.171 781.046 535.823 776.871 533.795 769.355L523.897 733.088C521.87 725.692 526.878 717.818 535.107 715.551L971.469 596.134C979.698 593.867 988.046 598.043 990.074 605.558L999.972 641.706C1002 649.222 996.99 657.095 988.762 659.362Z" fill="#5F45AA"/>
<path d="M938.077 563.685L549.537 669.979C537.85 673.2 525.805 666.281 522.585 654.59L490.624 537.558C487.404 525.867 494.202 513.818 505.889 510.597L894.429 404.183C906.116 401.081 918.281 407.881 921.381 419.572L953.461 536.723C956.681 548.414 949.764 560.464 938.077 563.685Z" fill="white"/>
<path d="M942.967 565.712L550.014 673.319C538.208 676.54 526.163 670.217 523.181 659.122L492.771 547.936C489.67 536.841 496.826 525.15 508.632 521.929L901.585 414.441C913.391 411.22 925.436 417.543 928.417 428.638L958.828 539.824C961.929 550.919 954.773 562.491 942.967 565.712Z" fill="#5F45AA"/>
<path d="M783.401 515.726C783.043 515.129 783.281 514.533 783.401 513.817C786.621 502.484 791.629 484.828 794.849 473.375C800.097 474.687 803.794 481.487 809.16 481.368C807.848 494.491 811.188 505.108 812.499 518.35C801.289 517.396 796.519 517.515 785.309 516.561C784.593 516.442 783.758 516.322 783.401 515.726Z" fill="#F0CD95"/>
<path d="M791.868 451.425C795.088 446.176 800.454 442.359 806.298 441.404C812.142 440.331 822.279 443.432 826.81 447.369C829.315 449.397 829.315 455.124 829.673 458.464C829.792 460.969 828.838 462.639 829.076 465.145C829.315 467.65 829.434 467.65 829.911 469.32C830.627 471.587 830.984 474.092 830.627 476.597C829.553 483.636 824.902 489.004 822.159 495.446C821.444 497.355 819.297 498.31 817.389 497.594C808.683 494.611 800.454 489.72 794.849 482.085C788.529 473.495 786.382 460.731 791.868 451.425Z" fill="#F0CD95"/>
<path d="M833.966 447.964C833.846 453.929 829.553 459.536 823.948 460.729C824.266 460.093 824.544 459.457 824.783 458.82C822.04 463.592 817.15 466.933 812.022 467.768C812.34 467.052 812.658 466.336 812.976 465.62C811.188 469.438 807.371 471.585 803.794 473.613C800.216 475.642 796.519 477.908 794.969 481.845C789.841 478.982 786.144 473.852 784.235 468.126C782.327 462.399 781.97 456.196 782.685 450.231C783.281 445.578 784.593 440.568 788.171 437.585C792.345 434.006 789.96 435.677 794.969 433.291C816.554 422.554 834.085 441.999 833.966 447.964Z" fill="#14345A"/>
<path d="M793.538 454.527C794.492 452.499 795.446 450.351 795.803 448.085C796.042 445.818 795.565 443.313 794.015 441.762C792.345 440.092 789.483 439.615 787.813 441.165C791.987 444.148 794.253 449.516 793.538 454.527Z" fill="#F47362"/>
<path d="M816.196 470.274C816.554 468.843 816.793 467.411 816.435 465.979C816.196 464.667 815.362 463.355 814.169 462.639C812.38 461.804 810.234 462.639 808.922 464.071C807.61 465.621 807.014 467.65 806.656 469.678C806.417 472.183 806.537 474.807 807.848 476.955C809.279 478.983 812.142 479.937 814.05 478.386L816.196 470.274Z" fill="#F0CD95"/>
<path d="M787.336 467.531C785.666 463.236 783.52 458.941 783.758 454.408C784.116 450.232 786.501 446.415 789.96 444.267C791.51 443.432 790.795 440.927 789.006 440.808C785.666 440.688 782.208 442.12 779.704 444.387C775.649 448.204 773.621 453.931 772.906 459.538C772.071 465.145 772.31 470.871 771.833 476.478C770.879 487.453 766.705 498.787 757.999 504.99C764.2 506.66 770.879 508.092 776.961 505.945C783.639 503.559 788.29 496.759 789.84 489.481C791.272 482.204 789.96 474.45 787.336 467.531Z" fill="#14345A"/>
<path d="M775.053 769.594H809.876C802.005 808.246 794.492 848.45 787.694 886.625C786.263 894.618 787.336 900.822 791.272 905.713C791.391 905.832 797.115 909.053 797.115 909.053C806.179 911.797 815.242 914.66 810.711 919.432C802.959 925.636 791.272 927.903 781.016 926.113C777.199 925.397 771.952 927.783 770.759 926.471C769.209 924.801 769.567 921.222 770.044 918.001C770.6 914.581 771.197 911.201 771.833 907.86C772.787 902.611 773.025 897.481 772.31 892.71C766.705 855.369 767.659 813.257 775.053 769.594Z" fill="#F0CD95"/>
<path d="M805.702 911.916C804.151 914.302 801.886 916.33 798.904 918C794.611 920.267 788.648 920.148 784.712 919.79C779.942 919.312 775.053 917.642 770.044 918C769.567 921.221 769.209 924.8 770.759 926.47C771.952 927.783 777.199 925.397 781.016 926.112C791.272 927.902 802.959 925.635 810.711 919.432C813.692 916.33 810.711 913.944 805.702 911.916Z" fill="#14345A"/>
<path d="M808.803 878.392C799.62 834.848 814.646 786.413 815.6 741.915C816.316 711.255 822.279 679.403 824.664 648.743C804.748 649.578 784.713 648.266 765.154 645.045C758.357 664.848 760.026 686.561 764.2 707.199C768.255 727.719 766.109 745.494 768.494 766.371C772.787 802.757 752.036 830.792 764.558 880.182C778.034 878.869 795.327 879.824 808.803 878.392Z" fill="#189FB1"/>
<path d="M786.74 868.013C787.336 870.399 788.29 873.024 790.437 874.694C794.969 878.392 802.124 876.483 807.849 874.336C798.785 839.74 815.719 803.115 808.087 768.161C802.482 742.631 784.236 720.441 776.245 695.389C776.961 712.568 776.484 725.094 779.585 739.052C782.804 753.129 785.905 757.543 786.144 775.796C786.74 805.62 778.869 839.024 786.74 868.013Z" fill="#14345A"/>
<path d="M799.739 854.892C796.042 834.134 798.785 797.271 795.207 769.594H832.535C836.232 803.236 825.499 832.225 831.223 918.478C836.709 927.903 846.607 929.334 857.221 932.913C859.129 933.51 861.633 934.464 860.918 937.208C860.56 938.52 859.725 939.594 858.771 940.429C856.148 942.696 853.285 943.292 850.423 943.889C835.874 946.871 833.012 944.246 825.976 943.292C819.893 942.457 816.435 944.485 813.334 939.952C812.022 937.924 812.619 935.06 813.573 931.839C814.885 927.425 816.554 921.818 815.481 918.239C810.591 902.015 802.84 872.31 799.739 854.892Z" fill="#F0CD95"/>
<path d="M857.221 932.912C856.267 932.554 855.193 932.077 854.239 931.6C851.258 934.94 847.203 936.729 842.91 937.207C833.608 938.28 820.847 936.491 813.334 932.435C812.499 935.417 812.022 938.042 813.334 939.95C816.435 944.484 819.893 942.456 825.975 943.291C833.012 944.245 835.874 946.87 850.423 943.887C853.285 943.291 856.148 942.694 858.771 940.428C859.725 939.593 860.56 938.519 860.918 937.207C861.633 934.463 859.129 933.508 857.221 932.912Z" fill="#14345A"/>
<path d="M838.975 876.127C829.911 832.583 836.47 802.877 837.424 758.498C838.14 727.839 837.186 677.972 836.112 651.249C816.077 652.084 799.739 650.653 780.061 647.312C773.264 667.235 774.933 688.948 779.107 709.467C783.162 730.106 789.602 750.267 792.106 771.025C796.4 807.411 788.409 845.228 798.785 880.302C812.142 878.95 825.538 877.558 838.975 876.127Z" fill="#54CED1"/>
<path d="M797.95 869.685V867.299C810.233 867.299 822.636 865.748 834.562 862.766L835.158 865.032C822.994 868.134 810.472 869.685 797.95 869.685Z" fill="#189FB1"/>
<path d="M761.219 661.27C785.15 659.6 809.081 657.97 833.012 656.379C833.012 658.924 833.051 661.469 833.131 664.014C809.637 665.923 786.263 669.502 763.246 674.632C761.219 670.575 760.503 665.803 761.219 661.27Z" fill="#14345A"/>
<path d="M760.265 634.548C755.972 656.141 758.118 661.748 757.283 666.401L837.901 660.078C837.544 658.289 835.397 630.85 834.92 629.299C830.627 614.983 831.7 609.734 831.104 594.941C830.507 578.359 833.966 571.559 837.782 555.454C839.69 547.461 840.048 539.468 831.581 529.089C825.618 521.692 826.095 518.352 818.701 505.229C814.646 498.071 799.62 499.98 791.63 498.787C788.171 498.19 784.713 504.99 781.85 507.018C779.585 508.569 776.365 516.324 775.649 518.471C773.86 525.033 771.833 534.338 771.117 541.018C769.09 559.629 774.099 572.752 772.668 591.362C771.475 606.99 763.604 617.727 760.265 634.548Z" fill="#189FB1"/>
<path d="M757.283 662.94V660.554C783.639 660.076 810.472 658.287 836.709 655.424L836.947 657.81C810.591 660.673 783.759 662.462 757.283 662.94Z" fill="#54CED1"/>
<path d="M818.701 506.302C818.621 506.302 818.502 506.302 818.343 506.302C808.087 502.843 796.638 502.485 786.144 504.99C785.547 505.109 784.951 504.751 784.713 504.155C784.593 503.439 784.951 502.843 785.667 502.723C796.519 499.979 808.445 500.457 819.059 504.036C819.774 504.155 820.013 504.871 819.893 505.467C819.655 505.944 819.178 506.302 818.701 506.302Z" fill="#54CED1"/>
<path d="M942.967 622.259H834.801V507.732H942.967V622.259Z" fill="#F0CD95"/>
<path d="M942.967 626.434H834.801V511.908H942.967V626.434Z" fill="#D3A479"/>
<path d="M942.848 626.434C901.823 621.424 861.872 609.017 834.801 578.715V626.434H942.848Z" fill="#B27C4F"/>
<path d="M931.16 595.06L922.693 585.039L914.107 595.06H918.519V612.836H926.748V595.06H931.16Z" fill="#14345A"/>
<path d="M816.077 529.327C814.288 521.811 810.83 509.166 803.794 506.78C796.638 504.513 787.813 506.78 783.878 513.46C780.658 519.067 781.373 526.225 782.566 532.787C783.679 538.592 785.15 544.319 786.978 549.966C797.115 544.955 807.729 541.376 818.82 540.422C818.105 537.559 817.27 534.218 816.077 529.327Z" fill="#54CED1"/>
<path d="M926.986 623.334C926.748 622.738 926.032 622.618 925.317 622.618C922.932 622.738 920.785 624.169 918.638 625.124C912.437 627.987 904.924 627.629 899.08 624.169C903.851 625.482 908.859 626.197 913.749 626.078C914.464 626.078 915.18 626.078 915.538 625.482C916.015 625.004 915.657 624.169 915.299 623.573C914.345 622.26 912.676 621.664 911.125 621.425C909.575 621.187 907.905 621.187 906.355 620.829C903.97 620.113 901.942 618.443 899.557 617.727C897.172 617.131 894.548 617.489 892.163 617.966C889.937 618.284 887.711 618.642 885.485 619.039C884.054 619.278 883.338 619.159 881.669 618.801C851.854 605.32 831.581 586.829 821.682 550.801C820.49 546.745 819.774 543.882 818.82 540.422C807.729 541.376 797.115 544.955 786.979 549.966C789.125 556.527 791.63 562.85 794.611 568.934C804.152 588.618 817.031 600.31 834.443 612.597C851.497 624.646 872.605 630.969 885.843 631.446C888.109 631.685 889.778 631.924 891.09 632.401C893.237 633.117 895.264 634.31 897.411 635.145C899.557 635.98 901.942 636.457 904.089 635.98C904.646 635.9 905.162 635.741 905.639 635.503C908.899 634.787 912.119 634.111 915.299 633.475C916.373 633.236 917.446 632.997 918.4 632.52C919.354 632.043 920.07 631.446 920.904 630.85C922.256 629.816 923.647 628.782 925.078 627.748C925.794 627.271 926.509 626.555 926.271 625.72C926.271 625.601 926.152 625.601 926.032 625.482C926.271 625.362 926.39 625.243 926.509 625.004C926.986 624.527 927.344 623.931 926.986 623.334Z" fill="#F0CD95"/>
<path d="M201.425 745.256C204.884 753.726 205.242 763.27 207.985 772.098C214.901 794.049 227.662 813.137 232.552 836.4C228.258 852.028 246.743 848.568 251.394 834.73C240.9 796.793 241.377 766.73 234.34 734.758C222.653 739.768 213.828 743.347 201.425 745.256Z" fill="#F0CD95"/>
<path d="M232.552 836.399C228.258 852.027 246.743 848.568 251.394 834.729C250.44 831.031 249.486 827.452 248.651 823.873C242.808 826.14 236.845 827.691 231.001 829.838C231.558 831.985 232.075 834.172 232.552 836.399Z" fill="#189FB1"/>
<path d="M279.777 852.864C282.163 850.12 280.374 845.586 277.392 843.678C274.411 841.65 270.595 841.411 267.136 840.457C261.77 839.025 257.596 837.951 254.137 834.014C253.302 833.06 251.752 832.822 250.679 833.537C244.716 836.52 238.514 845.586 231.955 840.337C231.24 839.86 230.166 840.218 230.047 841.053C229.093 846.421 229.332 847.137 230.166 853.818C246.703 854.216 263.24 853.898 279.777 852.864Z" fill="#F47362"/>
<path d="M230.405 857.636C235.414 857.994 240.423 857.516 245.431 857.039C257.119 856.005 268.806 855.25 280.493 854.772C280.572 853.5 280.493 852.267 280.254 851.074C263.678 852.983 247.101 853.699 230.405 852.983C230.405 854.494 230.405 856.045 230.405 857.636Z" fill="#14345A"/>
<path d="M223.488 682.505C216.929 655.782 206.792 634.786 202.022 604.961L139.889 628.582C147.044 648.863 152.768 657.333 161.236 671.052C176.739 695.747 191.05 718.533 193.912 747.88C206.196 745.971 224.442 741.557 236.129 736.666C232.154 718.533 227.94 700.479 223.488 682.505Z" fill="#14345A"/>
<path d="M194.27 738.815L193.912 736.429C205.719 734.758 219.672 731.657 230.286 728.436L231.001 730.702C220.268 734.043 206.196 737.144 194.27 738.815Z" fill="#5F45AA"/>
<path d="M125.459 730.582C125.339 731.179 120.927 741.915 120.808 742.512C110.194 773.41 110.909 804.666 99.222 828.049C106.139 829.361 111.744 836.757 118.661 838.07C128.082 798.582 147.521 769.235 155.273 749.789C155.988 748 158.135 740.842 159.328 738.098C146.567 735.115 138.338 733.326 125.459 730.582Z" fill="#F0CD95"/>
<path d="M99.222 828.05C106.139 829.362 111.744 836.759 118.661 838.071C120.211 831.39 122.119 825.068 124.147 819.103C117.468 817.91 110.909 816.359 104.708 813.854C103.277 818.864 101.488 823.517 99.222 828.05Z" fill="#189FB1"/>
<path d="M137.504 858.948C140.843 857.755 141.32 853.103 139.769 850.001C139.412 849.404 139.054 848.927 138.577 848.45C129.752 839.503 125.101 837.952 123.789 829.243C118.899 823.517 107.451 831.032 100.772 826.022C100.176 825.545 99.3413 825.783 98.9835 826.26C95.2865 831.032 95.4058 830.555 92.9014 837.117C107.451 845.07 122.318 852.347 137.504 858.948Z" fill="#F47362"/>
<path d="M139.173 858.471C132.853 857.039 127.486 853.222 121.881 850.001C116.753 847.018 111.386 844.632 106.02 842.246C101.647 840.258 97.2742 838.27 92.9014 836.281C92.1064 837.713 91.5498 839.184 91.2318 840.695C108.524 847.495 121.881 855.727 137.265 862.05C137.901 860.857 138.537 859.664 139.173 858.471Z" fill="#14345A"/>
<path d="M188.665 658.884C192.243 640.512 193.554 627.389 192.362 608.779C177.097 604.961 153.365 604.007 137.623 604.961L134.403 613.432C133.21 628.582 137.504 644.33 135.238 659.361C131.66 682.625 124.862 706.723 114.01 729.628C126.77 732.372 146.209 740.961 160.759 740.365C168.391 721.993 183.537 685.726 188.665 658.884Z" fill="#14345A"/>
<path d="M161.951 731.179C148.475 729.271 136.788 726.05 121.642 720.323L122.477 718.057C137.504 723.783 148.952 726.885 162.309 728.793L161.951 731.179Z" fill="#5F45AA"/>
<path d="M162.428 741.559L160.282 740.604C178.17 702.309 191.885 660.197 191.408 617.966L194.032 617.369C194.628 659.959 180.436 703.025 162.428 741.559Z" fill="#5F45AA"/>
<path d="M187.592 497.712C183.895 487.333 177.216 477.312 167.079 471.585C156.823 465.74 142.751 464.785 132.853 470.989C122.358 477.789 118.899 490.434 118.065 502.006C116.872 515.845 118.184 529.803 119.615 543.761C122.358 569.648 131.183 574.898 129.275 618.322C148.117 619.754 186.041 620.589 205.599 615.34C201.187 590.764 191.169 508.091 187.592 497.712Z" fill="#5F45AA"/>
<path d="M169.345 482.562L167.437 481.608C159.685 477.194 150.145 475.762 141.439 477.552L141.081 475.762C149.549 473.973 158.731 475.166 166.483 478.983C165.529 475.882 164.336 472.66 163.025 470.394L164.575 469.439C166.245 472.422 167.795 476.717 168.749 480.534L169.345 482.562Z" fill="#14345A"/>
<path d="M316.747 581.936H182.344V433.768H316.747V581.936Z" fill="#F0CD95"/>
<path d="M316.747 586.709H182.344V438.541H316.747V586.709Z" fill="#D3A479"/>
<path d="M195.105 530.878V438.541H182.344V518.59V586.709H195.105H300.528C261.531 575.018 224.8 557.362 195.105 530.878Z" fill="#B27C4F"/>
<path d="M298.739 556.527L290.153 546.506L281.686 556.527H286.098V574.302H294.327V556.527H298.739Z" fill="#14345A"/>
<path d="M290.63 585.157C288.006 584.68 285.383 585.635 282.878 586.112C275.603 587.663 267.732 585.396 262.247 580.385C267.017 582.891 272.145 584.799 277.512 585.992C278.108 586.112 278.943 586.231 279.539 585.754C280.016 585.277 280.016 584.322 279.658 583.726C278.943 582.056 277.392 581.101 275.723 580.385C274.172 579.789 272.383 579.312 270.952 578.596C268.448 577.284 266.778 574.898 264.393 573.705C262.008 572.392 259.146 572.154 256.403 572.035C253.938 571.875 251.474 571.716 249.009 571.557C248.373 571.557 247.737 571.518 247.101 571.438C218.36 565.95 209.535 558.196 192.839 546.028C181.987 537.915 173.996 527.059 165.887 516.322C156.943 520.617 148.714 526.463 141.081 533.143C152.53 548.175 163.263 557.957 179.363 567.74C199.756 580.266 221.103 584.919 249.486 585.992C250.321 586.35 251.036 586.708 251.752 587.185C253.899 588.498 255.807 590.168 257.834 591.599C259.981 593.031 262.366 594.105 264.87 594.224C267.375 594.224 269.76 593.031 272.264 592.435C275.484 591.599 278.704 591.48 282.043 591.122C285.263 590.764 288.602 589.929 291.226 587.901C291.822 587.543 292.299 586.947 292.18 586.231C292.061 585.515 291.226 585.277 290.63 585.157Z" fill="#F0CD95"/>
<path d="M150.503 489.48C147.998 483.992 145.375 477.908 140.008 475.403C134.284 472.778 127.009 475.403 123.312 480.533C119.615 485.543 118.9 492.463 120.331 498.547C121.642 504.75 124.743 510.357 128.082 515.726C132.018 522.287 136.43 528.61 141.081 534.694C149.072 527.656 157.658 521.452 167.079 516.919C160.52 508.449 155.034 499.143 150.503 489.48Z" fill="#14345A"/>
<path d="M140.127 528.61L138.458 526.82C146.329 520.02 155.154 514.533 164.694 510.477L165.648 512.624C156.346 516.561 147.76 521.929 140.127 528.61Z" fill="#5F45AA"/>
<path d="M163.263 474.927C160.878 462.758 157.539 455.72 155.154 443.551C150.264 444.983 139.769 438.183 134.761 437.348C134.761 452.737 134.761 464.548 131.421 473.376C144.063 469.081 150.383 471.944 163.263 474.927Z" fill="#F0CD95"/>
<path d="M139.054 438.779C138.815 452.141 148.714 462.281 160.878 464.906C158.97 457.986 156.823 452.021 155.154 443.551C151.337 444.625 144.42 440.927 139.054 438.779Z" fill="#14345A"/>
<path d="M175.666 435.319C175.785 434.842 175.427 434.365 175.189 434.007C173.042 431.263 170.896 428.639 168.511 425.895C168.511 424.821 169.822 423.628 169.942 422.554C170.061 421.958 169.822 421.361 169.584 420.884C168.749 418.618 168.868 418.856 168.391 416.589C167.795 413.607 167.318 410.267 165.41 407.881C163.382 405.495 160.162 404.063 157.3 403.347C153.007 402.154 148.475 401.677 143.944 402.393C139.531 403.109 135.357 405.018 132.137 408.119C128.798 411.579 127.128 415.754 126.413 420.407C125.22 429.116 130.229 436.989 136.55 442.835C136.907 443.312 138.458 443.074 140.366 446.175C142.632 449.874 146.567 451.782 150.503 453.214C154.438 454.526 158.731 455.361 162.905 455.123C165.41 455.003 168.272 454.646 170.657 453.572C171.492 453.095 172.327 452.498 172.685 451.544C173.042 450.709 172.923 449.754 172.446 448.919C171.969 448.203 171.134 447.488 171.373 446.533C171.492 446.175 172.565 445.221 171.969 444.982C171.969 444.863 171.373 444.147 170.299 444.267C170.18 444.267 170.18 443.551 170.299 443.432C170.776 442.716 171.373 442.596 171.73 441.881C171.611 440.807 171.492 440.449 171.253 439.375C172.446 438.779 173.4 438.421 174.116 437.467C174.473 437.109 175.547 435.796 175.666 435.319Z" fill="#F0CD95"/>
<path d="M151.457 416.47C151.218 420.526 151.695 424.463 152.769 428.281C153.007 428.877 153.246 429.474 153.126 430.189C153.126 430.786 152.768 431.382 152.291 431.621C151.099 429.593 149.31 427.803 147.283 426.491C146.448 425.895 145.494 425.417 144.42 425.656C143.228 426.014 142.632 427.326 142.512 428.638C142.393 430.547 142.989 432.337 143.705 434.126C144.063 435.081 145.017 437.228 143.347 437.705C138.219 439.017 138.577 443.431 134.522 443.909C133.449 441.403 131.779 439.256 130.11 436.989C128.559 434.723 127.009 432.456 126.293 429.831C125.459 427.207 125.578 424.224 127.009 421.958C128.44 419.691 131.064 418.379 133.568 417.305C139.412 415.038 145.732 413.607 151.934 412.533L151.457 416.47Z" fill="#14345A"/>
<path d="M152.053 414.204C142.632 415.397 133.449 418.856 125.578 424.344C124.862 420.169 124.028 415.874 125.339 411.818C126.89 406.807 131.421 403.109 136.43 401.32C141.32 399.411 146.686 398.934 151.934 398.456C157.3 397.86 162.667 397.025 167.318 394.52C166.682 395.553 166.086 396.587 165.529 397.621C166.841 397.741 168.033 397.263 168.987 396.428C169.226 400.604 167.914 404.779 165.529 408.12C166.245 407.483 166.92 406.847 167.556 406.211C166.841 409.312 164.098 411.46 161.236 412.534C158.254 413.607 155.154 413.846 152.053 414.204Z" fill="#14345A"/>
<path d="M160.997 426.133L160.043 425.298C162.071 423.031 164.694 421.242 167.676 420.168L168.033 421.361C165.41 422.435 162.905 424.105 160.997 426.133Z" fill="#14345A"/>
<path d="M164.933 426.015C164.774 426.651 164.774 427.287 164.933 427.924C165.052 428.282 165.171 428.64 165.529 428.759C165.768 428.759 166.006 428.52 166.245 428.282C166.722 427.566 166.722 426.611 166.483 425.776C166.245 425.418 166.006 425.061 165.648 425.061C165.171 425.18 164.933 425.538 164.933 426.015Z" fill="#14345A"/>
</g>
<defs>
<clipPath id="clip0_855_13176">
<rect width="867" height="476" fill="white" transform="scale(2)"/>
</clipPath>
</defs>
</svg>
