<svg width="56" height="56" viewBox="0 0 56 56" fill="none" xmlns="http://www.w3.org/2000/svg">
<g clip-path="url(#clip0_946_13959)">
<path d="M28 56C43.464 56 56 43.464 56 28C56 12.536 43.464 0 28 0C12.536 0 0 12.536 0 28C0 43.464 12.536 56 28 56Z" fill="#3B5998"/>
<path d="M35.0393 29.0969H30.043V47.4008H22.4732V29.0969H18.873V22.6641H22.4732V18.5014C22.4732 15.5246 23.8873 10.8633 30.1104 10.8633L35.7176 10.8867V17.1308H31.6492C30.9819 17.1308 30.0435 17.4642 30.0435 18.8842V22.6701H35.7006L35.0393 29.0969Z" fill="white"/>
</g>
<defs>
<clipPath id="clip0_946_13959">
<rect width="28" height="28" fill="white" transform="scale(2)"/>
</clipPath>
</defs>
</svg>
