<svg width="56" height="56" viewBox="0 0 56 56" fill="none" xmlns="http://www.w3.org/2000/svg">
<g clip-path="url(#clip0_946_13950)">
<path d="M53.8854 23.13L31.0435 23.1289C30.0349 23.1289 29.2173 23.9464 29.2173 24.955V32.252C29.2173 33.2604 30.0349 34.0781 31.0434 34.0781H43.9066C42.498 37.7335 39.8691 40.7948 36.515 42.74L41.9998 52.2347C50.7982 47.1462 55.9998 38.2181 55.9998 28.2236C55.9998 26.8005 55.8949 25.7832 55.6852 24.6377C55.5257 23.7674 54.7701 23.13 53.8854 23.13Z" fill="#167EE6"/>
<path d="M28 45.0446C21.705 45.0446 16.2096 41.6052 13.2581 36.5156L3.76367 41.9881C8.59531 50.3621 17.6465 56.0011 28 56.0011C33.079 56.0011 37.8715 54.6336 41.9999 52.2504V52.2374L36.5151 42.7426C34.0063 44.1977 31.103 45.0446 28 45.0446Z" fill="#12B347"/>
<path d="M42 52.25V52.237L36.5152 42.7422C34.0063 44.1972 31.1033 45.0442 28 45.0442V56.0007C33.079 56.0007 37.8717 54.6332 42 52.25Z" fill="#0F993E"/>
<path d="M10.9565 28.0007C10.9565 24.8978 11.8033 21.9949 13.2581 19.4861L3.7637 14.0137C1.36741 18.1291 0 22.9086 0 28.0007C0 33.0927 1.36741 37.8722 3.7637 41.9876L13.2581 36.5152C11.8033 34.0064 10.9565 31.1035 10.9565 28.0007Z" fill="#FFD500"/>
<path d="M28 10.9565C32.1049 10.9565 35.8755 12.4152 38.8206 14.8414C39.5472 15.4399 40.6032 15.3967 41.2688 14.7312L46.4389 9.56101C47.194 8.80589 47.1402 7.56984 46.3336 6.87006C41.3991 2.58923 34.9788 0 28 0C17.6465 0 8.59531 5.63905 3.76367 14.013L13.2581 19.4855C16.2096 14.3959 21.705 10.9565 28 10.9565Z" fill="#FF4B26"/>
<path d="M38.8207 14.8414C39.5473 15.4399 40.6034 15.3967 41.2689 14.7312L46.439 9.56102C47.194 8.80589 47.1402 7.56984 46.3337 6.87006C41.3992 2.58912 34.9789 0 28 0V10.9565C32.1049 10.9565 35.8756 12.4152 38.8207 14.8414Z" fill="#D93F21"/>
</g>
<defs>
<clipPath id="clip0_946_13950">
<rect width="28" height="28" fill="white" transform="scale(2)"/>
</clipPath>
</defs>
</svg>
