<svg width="48" height="48" viewBox="0 0 48 48" fill="none" xmlns="http://www.w3.org/2000/svg">
<path fill-rule="evenodd" clip-rule="evenodd" d="M39.6798 36.3868C39.6798 42.9788 30.6398 43.7408 23.8418 43.7408L23.3553 43.7404C19.0242 43.7299 7.99976 43.4564 7.99976 36.3468C7.99976 29.8893 16.6765 29.0263 23.4227 28.9938L24.3282 28.9932C28.659 29.0037 39.6798 29.2772 39.6798 36.3868ZM23.8418 31.9928C15.3198 31.9928 10.9998 33.4568 10.9998 36.3468C10.9998 39.2628 15.3198 40.7408 23.8418 40.7408C32.3618 40.7408 36.6798 39.2768 36.6798 36.3868C36.6798 33.4708 32.3618 31.9928 23.8418 31.9928ZM23.8418 4C29.6978 4 34.4598 8.764 34.4598 14.62C34.4598 20.476 29.6978 25.238 23.8418 25.238H23.7778C17.9338 25.22 13.1998 20.454 13.2197 14.614C13.2197 8.764 17.9838 4 23.8418 4ZM23.8418 6.856C19.5598 6.856 16.0757 10.338 16.0757 14.62C16.0618 18.888 19.5198 22.368 23.7838 22.384L23.8418 23.812V22.384C28.1218 22.384 31.6038 18.9 31.6038 14.62C31.6038 10.338 28.1218 6.856 23.8418 6.856Z" fill="#525558"/>
</svg>
