<svg width="500" height="500" viewBox="0 0 500 500" fill="none" xmlns="http://www.w3.org/2000/svg">
<path d="M250 427.56C357.082 427.56 443.89 422.492 443.89 416.24C443.89 409.988 357.082 404.92 250 404.92C142.918 404.92 56.11 409.988 56.11 416.24C56.11 422.492 142.918 427.56 250 427.56Z" fill="#F5F5F5"/>
<path d="M198.19 339.629C192.598 339.75 187.277 342.056 183.365 346.053C179.453 350.051 177.262 355.421 177.262 361.014C177.262 366.607 179.453 371.977 183.365 375.975C187.277 379.972 192.598 382.278 198.19 382.399H202.47V339.629H198.19Z" fill="#263238"/>
<path d="M354 339.63C351.153 339.568 348.322 340.076 345.673 341.123C343.025 342.17 340.612 343.735 338.577 345.727C336.542 347.719 334.924 350.097 333.82 352.723C332.716 355.348 332.148 358.167 332.148 361.015C332.148 363.863 332.716 366.682 333.82 369.307C334.924 371.932 336.542 374.311 338.577 376.303C340.612 378.295 343.025 379.86 345.673 380.907C348.322 381.954 351.153 382.462 354 382.4H358.27V339.63H354Z" fill="#263238"/>
<path d="M283.4 382.389C295.208 382.389 304.78 372.817 304.78 361.009C304.78 349.201 295.208 339.629 283.4 339.629C271.592 339.629 262.02 349.201 262.02 361.009C262.02 372.817 271.592 382.389 283.4 382.389Z" fill="#263238"/>
<path d="M127.58 382.389C139.388 382.389 148.96 372.817 148.96 361.009C148.96 349.201 139.388 339.629 127.58 339.629C115.772 339.629 106.2 349.201 106.2 361.009C106.2 372.817 115.772 382.389 127.58 382.389Z" fill="#263238"/>
<path d="M306.62 247.66H225.49V350.74H306.62V247.66Z" fill="#0109C8"/>
<path opacity="0.2" d="M306.62 247.66H225.49V350.74H306.62V247.66Z" fill="black"/>
<path d="M388.513 273.293L387.752 273.941L390.982 277.732L391.743 277.084L388.513 273.293Z" fill="#0109C8"/>
<path d="M375.352 257.824L374.591 258.473L384.652 270.277L385.413 269.628L375.352 257.824Z" fill="#0109C8"/>
<path d="M306.62 350.73H407.38V306C407.382 302.679 406.197 299.466 404.04 296.94L372.69 260.1C369.367 256.199 365.235 253.066 360.582 250.918C355.929 248.77 350.865 247.659 345.74 247.66H306.62V350.73Z" fill="#0109C8"/>
<path d="M323.13 301.751V263.851C323.13 263.034 323.291 262.226 323.604 261.472C323.916 260.718 324.375 260.033 324.952 259.456C325.53 258.879 326.216 258.422 326.97 258.11C327.725 257.799 328.534 257.639 329.35 257.641H339C344.051 257.641 349.041 258.737 353.627 260.854C358.212 262.97 362.284 266.057 365.56 269.901L389.27 297.721C390.222 298.836 390.747 300.254 390.75 301.721C390.75 303.369 390.096 304.949 388.932 306.115C387.767 307.281 386.188 307.938 384.54 307.941H329.35C327.706 307.941 326.128 307.289 324.962 306.129C323.797 304.969 323.138 303.395 323.13 301.751Z" fill="white"/>
<path d="M407.38 338.551H394.94C394.267 338.551 393.607 338.375 393.023 338.04C392.439 337.706 391.953 337.225 391.613 336.645C391.272 336.065 391.089 335.406 391.081 334.734C391.074 334.061 391.242 333.398 391.57 332.811L393.67 329.051C394.002 328.447 394.49 327.943 395.082 327.591C395.675 327.24 396.351 327.053 397.04 327.051H407.38V338.551Z" fill="white"/>
<path d="M288.71 230.34H92.62V350.73H288.71V230.34Z" fill="#0109C8"/>
<path opacity="0.6" d="M288.71 230.34H92.62V350.73H288.71V230.34Z" fill="white"/>
<path opacity="0.5" d="M179.09 332.379H145.72V339.629H179.09V332.379Z" fill="#0109C8"/>
<path opacity="0.5" d="M101.78 332.379H92.62V339.629H101.78V332.379Z" fill="#0109C8"/>
<path opacity="0.4" d="M160.36 230.34H92.62V350.73H160.36V230.34Z" fill="#0109C8"/>
<path opacity="0.4" d="M123.06 230.34H121.97V350.73H123.06V230.34Z" fill="#0109C8"/>
<path d="M408.36 350.73H91.64C90.7343 350.73 90 351.465 90 352.37V357.44C90 358.346 90.7343 359.08 91.64 359.08H408.36C409.266 359.08 410 358.346 410 357.44V352.37C410 351.465 409.266 350.73 408.36 350.73Z" fill="#263238"/>
<path d="M358.29 382.389C370.098 382.389 379.67 372.817 379.67 361.009C379.67 349.201 370.098 339.629 358.29 339.629C346.482 339.629 336.91 349.201 336.91 361.009C336.91 372.817 346.482 382.389 358.29 382.389Z" fill="#263238"/>
<path d="M358.29 374.77C365.889 374.77 372.05 368.609 372.05 361.01C372.05 353.411 365.889 347.25 358.29 347.25C350.691 347.25 344.53 353.411 344.53 361.01C344.53 368.609 350.691 374.77 358.29 374.77Z" fill="white"/>
<path d="M202.47 382.389C214.278 382.389 223.85 372.817 223.85 361.009C223.85 349.201 214.278 339.629 202.47 339.629C190.662 339.629 181.09 349.201 181.09 361.009C181.09 372.817 190.662 382.389 202.47 382.389Z" fill="#263238"/>
<path d="M202.47 374.77C210.069 374.77 216.23 368.609 216.23 361.01C216.23 353.411 210.069 347.25 202.47 347.25C194.871 347.25 188.71 353.411 188.71 361.01C188.71 368.609 194.871 374.77 202.47 374.77Z" fill="white"/>
<path d="M230.34 407.529L221.84 407.399L219.53 387.689L228.02 387.829L230.34 407.529Z" fill="#0109C8"/>
<path d="M221.62 406.42L230.88 406.56C231.044 406.559 231.202 406.619 231.324 406.728C231.446 406.837 231.523 406.987 231.54 407.15L232.35 414.73C232.365 414.922 232.34 415.115 232.277 415.297C232.213 415.478 232.112 415.645 231.98 415.785C231.848 415.925 231.688 416.037 231.511 416.112C231.334 416.186 231.143 416.223 230.95 416.22C227.62 416.11 222.81 415.84 218.61 415.78C213.7 415.7 214.18 415.9 208.42 415.78C204.94 415.73 204.42 412.18 205.88 411.89C212.68 410.54 213.36 410.47 219.5 407.02C220.141 406.637 220.873 406.43 221.62 406.42Z" fill="#263238"/>
<path d="M213.32 153.509C210.54 159.449 207.56 165.059 204.25 170.659C202.59 173.439 200.88 176.209 199.03 178.929C198.13 180.289 197.16 181.639 196.2 182.989C195.24 184.339 194.2 185.669 193.09 186.989L192.27 187.989C191.854 188.503 191.407 188.991 190.93 189.449C190.616 189.757 190.282 190.045 189.93 190.309C189.545 190.604 189.137 190.868 188.71 191.099C187.775 191.618 186.762 191.979 185.71 192.169C183.797 192.485 181.834 192.249 180.05 191.489C178.823 190.956 177.675 190.256 176.64 189.409C175.079 188.12 173.688 186.638 172.5 184.999C171.45 183.578 170.475 182.103 169.58 180.579C167.914 177.69 166.428 174.701 165.13 171.629C163.845 168.614 162.72 165.533 161.76 162.399C161.524 161.592 161.587 160.727 161.936 159.962C162.286 159.197 162.9 158.584 163.664 158.234C164.429 157.884 165.294 157.822 166.101 158.058C166.909 158.294 167.604 158.812 168.06 159.519L168.12 159.609C171.264 164.792 174.689 169.8 178.38 174.609C179.244 175.704 180.165 176.752 181.14 177.749C181.921 178.571 182.79 179.305 183.73 179.939C184.09 180.149 184.38 180.249 184.4 180.209C184.42 180.169 184.04 179.979 183.4 180.049C182.974 180.122 182.566 180.278 182.2 180.509C182.15 180.509 182.1 180.579 182.39 180.179L183.01 179.289C186.347 174.296 189.428 169.136 192.24 163.829C195.16 158.469 198.03 152.909 200.76 147.519V147.419C201.573 145.749 203.016 144.471 204.771 143.865C206.526 143.26 208.45 143.376 210.12 144.189C211.79 145.002 213.068 146.445 213.674 148.2C214.279 149.955 214.163 151.879 213.35 153.549L213.32 153.509Z" fill="#0109C8"/>
<path d="M168.39 161.999L166.11 152.539L157.22 156.369C157.22 156.369 158.01 163.879 164.22 164.809L168.39 161.999Z" fill="#263238"/>
<path d="M167.92 159.67C167.92 159.67 170.81 163.39 171.52 164.41C170.52 165.41 163.97 168.72 163.45 168.41C162.62 166.04 161.45 162.91 161.45 162.91L167.92 159.67Z" fill="#263238"/>
<path d="M159.46 146.519L156.19 149.659C155.931 149.914 155.747 150.235 155.657 150.588C155.567 150.94 155.575 151.31 155.68 151.659L157.22 156.329L166.11 152.499L162.46 146.849C162.297 146.614 162.085 146.416 161.84 146.27C161.594 146.123 161.32 146.032 161.035 146C160.751 145.969 160.463 145.999 160.191 146.088C159.92 146.178 159.67 146.325 159.46 146.519Z" fill="#263238"/>
<path d="M164.5 157.569C164.19 155.649 166.11 149.629 167.72 148.769C169.33 147.909 168.41 152.059 168.62 153.459C169.2 157.299 169.4 160.959 167.43 160.759C165.46 160.559 165 160.909 164.5 157.569Z" fill="#263238"/>
<path opacity="0.2" d="M219.53 387.699L220.72 397.859L229.22 397.989L228.03 387.829L219.53 387.699Z" fill="black"/>
<path d="M206.45 142.16C222.61 140.16 238.25 142.32 246.77 143.97C247.628 144.138 248.445 144.475 249.171 144.962C249.898 145.448 250.521 146.075 251.003 146.804C251.485 147.534 251.817 148.353 251.98 149.212C252.142 150.071 252.132 150.954 251.95 151.81C245.61 182.11 246.6 212.59 246.07 219.07L200.63 218.34C197.52 181.19 199.48 157.53 200.68 147.88C200.868 146.42 201.537 145.065 202.582 144.029C203.628 142.993 204.989 142.335 206.45 142.16Z" fill="#0109C8"/>
<path d="M235.15 120.74C233.71 126.85 232.07 138.11 236.27 142.57C232.77 145.67 228.21 149.21 220.82 148.92C213.43 148.63 214.91 143.67 216.96 141.14C223.96 140 223.96 134.86 222.96 129.96L235.15 120.74Z" fill="#FFB573"/>
<path opacity="0.2" d="M230.17 124.5L222.93 130C223.187 131.137 223.344 132.295 223.4 133.46C226.06 133.28 229.8 130.65 230.19 127.91C230.392 126.782 230.385 125.626 230.17 124.5Z" fill="black"/>
<path d="M237.21 111.469C236.14 119.819 235.95 124.769 231.42 128.759C224.62 134.759 214.51 130.149 213.05 121.629C211.74 113.949 213.7 101.629 222.14 98.8486C224.009 98.2453 226 98.1259 227.927 98.5014C229.855 98.877 231.655 99.7353 233.161 100.996C234.666 102.257 235.827 103.879 236.536 105.71C237.244 107.542 237.476 109.523 237.21 111.469Z" fill="#FFB573"/>
<path d="M237.7 118.72C234.4 120.72 230.63 119.72 230.32 117.62C230.01 115.52 232.46 111.89 233.38 110.12C233.12 107.12 231 106.24 231.38 104.12C228.91 104.35 215.44 104.96 215.76 101.92C216.08 98.8799 221.42 95.7499 227.76 96.5399C234.1 97.3299 238.25 100.09 237.65 103.95C241.19 103.38 242.82 109.37 237.7 118.72Z" fill="#263238"/>
<path d="M240.65 120C240.091 120.888 239.361 121.656 238.502 122.26C237.644 122.865 236.675 123.293 235.65 123.52C232.91 124.11 231.65 121.62 232.56 119.12C233.35 116.86 235.73 113.84 238.43 114.37C239.018 114.492 239.566 114.759 240.024 115.146C240.483 115.533 240.839 116.027 241.059 116.586C241.279 117.144 241.357 117.749 241.286 118.345C241.214 118.94 240.996 119.509 240.65 120Z" fill="#FFB573"/>
<path d="M227 302.66C226.66 259.94 236.11 218.91 236.11 218.91L200.69 218.34C200.69 218.34 204.76 280.04 206.18 305.89C207.65 332.76 217.36 395.89 217.36 395.89L231.74 396.1C231.74 396.1 229 336.38 227 302.66Z" fill="#0109C8"/>
<path opacity="0.4" d="M227 302.66C226.66 259.94 236.11 218.91 236.11 218.91L200.69 218.34C200.69 218.34 204.76 280.04 206.18 305.89C207.65 332.76 217.36 395.89 217.36 395.89L231.74 396.1C231.74 396.1 229 336.38 227 302.66Z" fill="black"/>
<path opacity="0.2" d="M228.38 242.419C218.28 256.239 222.82 282.239 226.96 300.619C227.125 280.353 228.846 260.131 232.11 240.129L228.38 242.419Z" fill="black"/>
<path d="M215.44 390.289L216.37 396.149L232.27 396.419L233.17 390.879L215.44 390.289Z" fill="#263238"/>
<path d="M226 112.87C226 113.55 225.56 114.08 225.11 114.04C224.66 114 224.34 113.43 224.39 112.75C224.44 112.07 224.83 111.54 225.28 111.57C225.73 111.6 226.08 112.18 226 112.87Z" fill="#263238"/>
<path d="M217.19 111.879C217.19 112.569 216.75 113.089 216.3 113.059C215.85 113.029 215.53 112.439 215.58 111.759C215.63 111.079 216.02 110.549 216.47 110.579C216.92 110.609 217.24 111.199 217.19 111.879Z" fill="#263238"/>
<path d="M219 112.43C218.051 114.457 216.822 116.342 215.35 118.03C215.795 118.397 216.313 118.665 216.871 118.813C217.428 118.962 218.011 118.988 218.58 118.89L219 112.43Z" fill="#ED893E"/>
<path d="M221.36 121.31C222.129 121.273 222.882 121.075 223.57 120.731C224.259 120.387 224.868 119.903 225.36 119.31C225.392 119.268 225.405 119.214 225.398 119.162C225.39 119.109 225.362 119.062 225.32 119.03C225.278 118.998 225.224 118.985 225.172 118.992C225.119 119 225.072 119.028 225.04 119.07C224.477 119.707 223.771 120.2 222.98 120.51C222.189 120.819 221.335 120.936 220.49 120.85C220.459 120.843 220.427 120.844 220.397 120.851C220.366 120.858 220.338 120.872 220.313 120.891C220.289 120.911 220.269 120.936 220.255 120.964C220.242 120.993 220.234 121.024 220.234 121.055C220.234 121.087 220.242 121.118 220.255 121.146C220.269 121.174 220.289 121.199 220.313 121.219C220.338 121.239 220.366 121.253 220.397 121.26C220.427 121.267 220.459 121.267 220.49 121.26C220.779 121.296 221.069 121.313 221.36 121.31Z" fill="#263238"/>
<path d="M227.44 110.579C227.508 110.577 227.574 110.557 227.63 110.519C227.674 110.489 227.712 110.452 227.742 110.407C227.772 110.363 227.792 110.314 227.802 110.262C227.813 110.21 227.812 110.156 227.802 110.104C227.791 110.052 227.77 110.002 227.74 109.959C227.404 109.412 226.942 108.953 226.392 108.623C225.842 108.292 225.221 108.099 224.58 108.059C224.474 108.059 224.372 108.101 224.297 108.176C224.222 108.251 224.18 108.353 224.18 108.459C224.18 108.567 224.223 108.672 224.3 108.749C224.377 108.825 224.481 108.869 224.59 108.869C225.095 108.911 225.582 109.071 226.013 109.337C226.444 109.603 226.806 109.967 227.07 110.399C227.11 110.459 227.165 110.508 227.23 110.54C227.295 110.572 227.368 110.585 227.44 110.579Z" fill="#263238"/>
<path d="M213.4 108.71C213.465 108.72 213.53 108.713 213.592 108.69C213.653 108.667 213.707 108.63 213.75 108.58C214.068 108.189 214.476 107.879 214.939 107.677C215.402 107.475 215.906 107.387 216.41 107.42C216.516 107.432 216.622 107.402 216.706 107.336C216.79 107.271 216.845 107.176 216.86 107.07C216.867 107.018 216.863 106.964 216.85 106.913C216.836 106.862 216.812 106.814 216.779 106.772C216.747 106.73 216.706 106.695 216.66 106.669C216.614 106.643 216.563 106.626 216.51 106.62C215.875 106.573 215.238 106.678 214.652 106.927C214.066 107.176 213.547 107.561 213.14 108.05C213.073 108.131 213.041 108.236 213.05 108.341C213.059 108.445 213.11 108.542 213.19 108.61C213.247 108.667 213.321 108.702 213.4 108.71Z" fill="#263238"/>
<path d="M275.36 407.529L266.85 407.399L263.35 387.689L271.86 387.829L275.36 407.529Z" fill="#0109C8"/>
<path d="M266.39 406.419L275.65 406.559C275.815 406.56 275.975 406.62 276.099 406.728C276.224 406.836 276.306 406.986 276.33 407.149L277.4 414.729C277.425 414.918 277.408 415.11 277.352 415.292C277.295 415.473 277.2 415.641 277.073 415.782C276.945 415.924 276.789 416.036 276.614 416.111C276.439 416.187 276.25 416.224 276.06 416.219C272.72 416.109 271.67 415.839 267.47 415.779C262.55 415.699 264.83 415.899 259.06 415.779C255.58 415.729 254.9 412.199 256.38 411.889C261.06 410.889 262.23 409.019 264.29 407.019C264.885 406.553 265.639 406.338 266.39 406.419Z" fill="#263238"/>
<path d="M268.16 407.31C266.69 407.36 265.9 407.31 265.52 406.64C265.14 405.97 263.81 404.02 263.91 403.29C264.01 402.56 269.98 401.96 270.57 403.14C271.16 404.32 271.16 407.23 268.16 407.31Z" fill="#263238"/>
<path d="M221.3 407.309C220.38 407.359 219.89 407.309 219.67 406.639C219.213 405.568 218.897 404.442 218.73 403.289C218.8 402.549 222.55 401.959 222.9 403.139C223.25 404.319 223.17 407.229 221.3 407.309Z" fill="#263238"/>
<path opacity="0.2" d="M263.35 387.699L265.16 397.859L273.67 397.989L271.86 387.829L263.35 387.699Z" fill="black"/>
<path d="M260.81 297.61C256.81 259.13 252.11 227.61 246.09 219.07L216 218.59C216 218.59 233.55 278.95 240.31 304.39C247.31 330.84 261.12 393.33 261.12 393.33L274.82 393.52C274.82 393.52 269.15 327.67 260.81 297.61Z" fill="#0109C8"/>
<path opacity="0.4" d="M260.81 297.61C256.81 259.13 252.11 227.61 246.09 219.07L216 218.59C216 218.59 233.55 278.95 240.31 304.39C247.31 330.84 261.12 393.33 261.12 393.33L274.82 393.52C274.82 393.52 269.15 327.67 260.81 297.61Z" fill="black"/>
<path d="M259.4 390.289L260.51 396.149L275.89 396.419L276.57 390.879L259.4 390.289Z" fill="#263238"/>
<path d="M226.17 155.099C226.08 152.959 223.62 150.099 222.02 148.929C233.87 145.659 236.09 141.359 236.09 141.359C236.942 141.581 237.759 141.917 238.52 142.359C239.22 148.999 231 153.569 226.17 155.099Z" fill="white"/>
<path d="M219.18 148.759C216.522 149.995 214.341 152.067 212.97 154.659C208.04 145.859 214.97 140.779 214.97 140.779C215.737 140.562 216.541 140.507 217.33 140.619C216 143.559 217.53 147.429 219.18 148.759Z" fill="white"/>
<path d="M289.529 158.931L214.253 170.57L222.689 225.122L297.964 213.482L289.529 158.931Z" fill="#0109C8"/>
<path opacity="0.9" d="M289.529 158.931L214.253 170.57L222.689 225.122L297.964 213.482L289.529 158.931Z" fill="white"/>
<path opacity="0.2" d="M289.535 158.926L250.291 164.994L258.726 219.546L297.97 213.478L289.535 158.926Z" fill="#0109C8"/>
<path opacity="0.3" d="M234.667 207.902L225.219 209.363L226.644 218.574L236.091 217.113L234.667 207.902Z" fill="#0109C8"/>
<path opacity="0.3" d="M232.901 196.475L223.453 197.936L224.878 207.146L234.325 205.685L232.901 196.475Z" fill="#0109C8"/>
<path opacity="0.5" d="M238.517 166.823L225.195 168.883L225.906 173.478L239.228 171.418L238.517 166.823Z" fill="#0109C8"/>
<path opacity="0.5" d="M280.185 160.369L270.826 161.816L271.537 166.412L280.896 164.965L280.185 160.369Z" fill="#0109C8"/>
<path d="M249.23 145C255 147.757 260.565 150.925 265.88 154.48C268.671 156.309 271.343 158.313 273.88 160.48C275.27 161.683 276.58 162.975 277.8 164.35C278.499 165.16 279.144 166.015 279.73 166.91C280.487 168.046 281.082 169.281 281.5 170.58C281.786 171.461 281.954 172.375 282 173.3C282.014 173.46 282.014 173.62 282 173.78V174.12V174.81L281.95 176.19L281.83 177.48C281.75 178.34 281.66 179.2 281.52 180.01C281.38 180.82 281.29 181.66 281.13 182.45C280.6 185.68 279.82 188.75 279.04 191.81C277.414 197.873 275.41 203.828 273.04 209.64C272.723 210.425 272.131 211.067 271.376 211.448C270.62 211.829 269.751 211.923 268.932 211.711C268.112 211.5 267.398 210.997 266.921 210.298C266.444 209.599 266.238 208.75 266.34 207.91V207.83C267.05 201.83 267.92 195.77 268.55 189.83C268.9 186.83 269.17 183.9 269.35 181.03C269.41 180.31 269.41 179.62 269.45 178.91C269.49 178.2 269.45 177.52 269.45 176.85V175.85V174.93V174.47V174.24C269.45 174.24 269.45 174.01 269.45 174.14C269.442 174.3 269.442 174.46 269.45 174.62C269.45 174.73 269.34 174.51 269.1 174.24C268.79 173.884 268.456 173.55 268.1 173.24C267.221 172.383 266.289 171.581 265.31 170.84C263.19 169.23 260.81 167.65 258.36 166.14C253.45 163.14 248.17 160.26 243.02 157.53H242.95C241.351 156.663 240.152 155.207 239.608 153.471C239.064 151.735 239.217 149.856 240.035 148.23C240.852 146.605 242.271 145.363 243.989 144.765C245.707 144.168 247.591 144.263 249.24 145.03L249.23 145Z" fill="#0109C8"/>
<path d="M267.07 206.309L261.97 213.229L271.65 216.769C271.65 216.769 275.51 209.939 272.21 207.309L267.07 206.309Z" fill="#263238"/>
<path d="M263.25 222.069L266.85 222.739C267.544 222.862 268.258 222.737 268.869 222.385C269.48 222.034 269.947 221.48 270.19 220.819L271.65 216.819L262 213.229L260.9 218.539C260.744 219.318 260.904 220.128 261.344 220.79C261.785 221.452 262.47 221.912 263.25 222.069Z" fill="#263238"/>
<path d="M266.23 208.229C266.23 208.229 266.41 203.519 266.53 202.289C267.94 202.199 275.08 203.849 275.26 204.429C274.38 206.789 273.26 209.929 273.26 209.929L266.23 208.229Z" fill="#263238"/>
<path d="M241.81 109.999C236.98 109.459 217.14 104.629 215.3 102.719C215.17 99.0295 217.3 95.2995 218.61 94.4595C222.26 92.0595 230.29 91.9695 232.84 92.6895C235.39 93.4095 242.37 96.9595 243.53 100.379C244.43 103.089 241.81 109.999 241.81 109.999Z" fill="#0109C8"/>
<path d="M221.78 101.569C215.69 100.619 209.9 101.039 207.85 104.119C205.56 107.559 213.1 102.449 217.6 104.649C225.13 108.349 223.34 108.929 234.75 108.649C228.88 105.669 228.84 102.669 221.78 101.569Z" fill="#0109C8"/>
<path opacity="0.6" d="M221.78 101.569C215.69 100.619 209.9 101.039 207.85 104.119C205.56 107.559 213.1 102.449 217.6 104.649C225.13 108.349 223.34 108.929 234.75 108.649C228.88 105.669 228.84 102.669 221.78 101.569Z" fill="white"/>
<path d="M235.36 115.889C235.48 115.802 235.562 115.673 235.588 115.527C235.614 115.382 235.582 115.232 235.5 115.109C235.414 114.988 235.283 114.907 235.137 114.883C234.991 114.858 234.841 114.893 234.72 114.979C232.632 116.42 230.686 118.057 228.91 119.869C226.73 117.599 220.6 115.209 217.39 115.259C215.1 115.259 213.58 115.149 211.87 116.839C210.41 118.269 211.62 125.839 212.54 127.979C213.071 129.153 213.86 130.191 214.849 131.017C215.838 131.843 217 132.435 218.25 132.749C221.63 133.359 228.85 133.749 229.15 128.809C229.213 127.7 229.357 126.597 229.58 125.509C230.059 125.591 230.544 125.634 231.03 125.639C232.492 125.671 233.922 125.209 235.09 124.329C235.148 124.285 235.197 124.229 235.234 124.166C235.271 124.103 235.295 124.033 235.304 123.96C235.313 123.887 235.308 123.813 235.289 123.743C235.269 123.672 235.235 123.606 235.19 123.549C235.145 123.49 235.089 123.441 235.024 123.404C234.96 123.367 234.889 123.343 234.816 123.334C234.742 123.325 234.668 123.33 234.596 123.35C234.525 123.369 234.458 123.403 234.4 123.449C233.743 123.914 232.999 124.243 232.212 124.415C231.425 124.586 230.611 124.598 229.82 124.449C230.14 122.989 230.3 122.049 229.59 120.829C231.344 118.994 233.276 117.339 235.36 115.889Z" fill="#0109C8"/>
<path opacity="0.6" d="M235.36 115.889C235.48 115.802 235.562 115.673 235.588 115.527C235.614 115.382 235.582 115.232 235.5 115.109C235.414 114.988 235.283 114.907 235.137 114.883C234.991 114.858 234.841 114.893 234.72 114.979C232.632 116.42 230.686 118.057 228.91 119.869C226.73 117.599 220.6 115.209 217.39 115.259C215.1 115.259 213.58 115.149 211.87 116.839C210.41 118.269 211.62 125.839 212.54 127.979C213.071 129.153 213.86 130.191 214.849 131.017C215.838 131.843 217 132.435 218.25 132.749C221.63 133.359 228.85 133.749 229.15 128.809C229.213 127.7 229.357 126.597 229.58 125.509C230.059 125.591 230.544 125.634 231.03 125.639C232.492 125.671 233.922 125.209 235.09 124.329C235.148 124.285 235.197 124.229 235.234 124.166C235.271 124.103 235.295 124.033 235.304 123.96C235.313 123.887 235.308 123.813 235.289 123.743C235.269 123.672 235.235 123.606 235.19 123.549C235.145 123.49 235.089 123.441 235.024 123.404C234.96 123.367 234.889 123.343 234.816 123.334C234.742 123.325 234.668 123.33 234.596 123.35C234.525 123.369 234.458 123.403 234.4 123.449C233.743 123.914 232.999 124.243 232.212 124.415C231.425 124.586 230.611 124.598 229.82 124.449C230.14 122.989 230.3 122.049 229.59 120.829C231.344 118.994 233.276 117.339 235.36 115.889Z" fill="white"/>
</svg>
