<svg width="511" height="403" viewBox="0 0 511 403" fill="none" xmlns="http://www.w3.org/2000/svg">
<path d="M458.311 402.109C458.311 402.257 355.698 402.384 229.166 402.384C102.634 402.384 0 402.257 0 402.109C0 401.961 102.613 401.834 229.166 401.834C355.719 401.834 458.311 401.94 458.311 402.109Z" fill="#263238"/>
<path d="M297.562 3.46875V271.151H464.503V3.46875H297.562ZM384.682 9.96087H458.48V69.0764H384.682V9.96087ZM384.682 75.5686H458.48V134.07H384.682V75.5686ZM384.682 140.61H458.48V200.364H384.682V140.61ZM378.587 264.671H303.669V206.856H378.587V264.671ZM378.587 200.316H303.669V140.55H378.587V200.316ZM378.587 134.07H303.669V75.5686H378.587V134.07ZM378.587 69.0283H303.669V9.96087H378.587V69.0283ZM384.682 264.611V206.796H458.48V264.611H384.682Z" fill="#B2B2B2"/>
<path d="M161.687 47.1191H89.25V145.151H161.687V47.1191Z" fill="#B2B2B2"/>
<path d="M154.84 56.3691H96.0859V135.876H154.84V56.3691Z" fill="white"/>
<path d="M103.412 156.449H46.6328V233.283H103.412V156.449Z" fill="#B2B2B2"/>
<path d="M98.0388 163.713H51.9918V226.032H98.0388V163.713Z" fill="white"/>
<path d="M187.68 333.941H97.2117L97.2117 267.141C97.2117 260.867 99.704 254.85 104.14 250.414C108.577 245.978 114.594 243.485 120.868 243.485H164.012C170.286 243.485 176.303 245.978 180.739 250.414C185.175 254.85 187.668 260.867 187.668 267.141V333.941H187.68Z" fill="white" stroke="#263238" stroke-miterlimit="10"/>
<path d="M83.7573 396.043H20.125L20.125 319.426C20.125 312.906 22.715 306.654 27.3253 302.043C31.9355 297.433 38.1884 294.843 44.7083 294.843H83.7573L83.7573 396.019V396.043Z" fill="white"/>
<path d="M83.7573 396.043H20.125L20.125 319.426C20.125 312.906 22.715 306.654 27.3253 302.043C31.9355 297.433 38.1884 294.843 44.7083 294.843H83.7573L83.7573 396.019V396.043Z" stroke="#263238" stroke-miterlimit="10"/>
<path d="M101.43 396.043H37.7973L37.7973 319.426C37.7973 312.906 40.3874 306.654 44.9976 302.043C49.6079 297.433 55.8607 294.843 62.3806 294.843H101.43L101.43 396.019V396.043Z" fill="white" stroke="#263238" stroke-miterlimit="10"/>
<path d="M173.867 333.941H83.3992L83.3992 267.141C83.3992 260.867 85.8915 254.85 90.3278 250.414C94.7641 245.978 100.781 243.485 107.055 243.485H150.211C156.485 243.485 162.502 245.978 166.939 250.414C171.375 254.85 173.867 260.867 173.867 267.141V333.941Z" fill="white"/>
<path d="M173.867 333.941H83.3992L83.3992 267.141C83.3992 260.867 85.8915 254.85 90.3278 250.414C94.7641 245.978 100.781 243.485 107.055 243.485H150.211C156.485 243.485 162.502 245.978 166.939 250.414C171.375 254.85 173.867 260.867 173.867 267.141V333.941V333.941Z" stroke="#263238" stroke-miterlimit="10"/>
<path d="M163.977 396.043H42.8908V340.192C42.8908 337.923 43.7918 335.748 45.3956 334.145C46.9993 332.541 49.1745 331.64 51.4426 331.64H163.977V396.043Z" fill="white"/>
<path d="M163.977 396.043H42.8908V340.192C42.8908 337.923 43.7918 335.748 45.3956 334.145C46.9993 332.541 49.1745 331.64 51.4426 331.64H163.977V396.043Z" stroke="#263238" stroke-miterlimit="10"/>
<path d="M44.6719 353.863H106.088" stroke="#263238" stroke-miterlimit="10"/>
<path d="M169.984 396.043H106.352V319.426C106.352 312.906 108.942 306.654 113.552 302.043C118.163 297.433 124.415 294.843 130.935 294.843H169.984V396.019V396.043Z" fill="white"/>
<path d="M169.984 396.043H106.352V319.426C106.352 312.906 108.942 306.654 113.552 302.043C118.163 297.433 124.415 294.843 130.935 294.843H169.984V396.019V396.043Z" stroke="#263238" stroke-miterlimit="10"/>
<path d="M187.68 396.043H124.047V319.426C124.047 312.906 126.637 306.654 131.248 302.043C135.858 297.433 142.111 294.843 148.631 294.843H187.68V396.019V396.043Z" fill="white" stroke="#263238" stroke-miterlimit="10"/>
<path d="M269.314 346.25L266.544 320.498H142.531L135.883 346.25H269.314Z" fill="#263238" stroke="#263238" stroke-linecap="round" stroke-linejoin="round"/>
<path d="M284.231 65.1864C284.231 66.7522 281.822 68.2096 281.641 69.7514C281.461 71.2931 283.737 73.1359 283.484 74.6656C283.231 76.1953 280.581 77.2673 280.22 78.8331C279.859 80.3989 281.738 82.5067 281.256 83.9762C280.774 85.4457 277.98 86.084 277.377 87.5174C276.775 88.9507 278.317 91.3837 277.618 92.7689C276.92 94.154 274.005 94.3347 273.234 95.6716C272.463 97.0086 273.583 99.6223 272.668 100.887C271.753 102.152 268.91 101.911 267.85 103.103C266.79 104.296 267.609 107.066 266.525 108.186C265.441 109.306 262.659 108.656 261.503 109.692C260.346 110.728 260.696 113.582 259.467 114.51C258.238 115.437 255.577 114.425 254.276 115.293C252.975 116.16 252.951 119.026 251.602 119.809C250.253 120.592 247.747 119.207 246.35 119.894C244.953 120.58 244.531 123.411 243.086 124.013C241.641 124.615 239.352 122.881 237.871 123.387C236.389 123.892 235.606 126.627 234.089 127C232.571 127.373 230.548 125.398 229.006 125.699C227.464 126 226.332 128.614 224.79 128.819C223.248 129.024 221.478 126.771 219.912 126.868C218.346 126.964 216.889 129.421 215.323 129.421C213.757 129.421 212.276 127.012 210.734 126.868C209.192 126.723 207.385 129.011 205.856 128.819C204.326 128.626 203.146 126 201.628 125.699C200.11 125.398 198.015 127.397 196.545 127C195.076 126.603 194.233 123.856 192.763 123.387C191.294 122.917 188.981 124.591 187.548 124.001C186.114 123.411 185.681 120.58 184.284 119.894C182.887 119.207 180.381 120.592 179.032 119.809C177.683 119.026 177.647 116.196 176.358 115.293C175.069 114.389 172.383 115.461 171.167 114.498C169.95 113.534 170.288 110.691 169.131 109.68C167.975 108.668 165.181 109.294 164.109 108.174C163.037 107.054 163.784 104.284 162.784 103.091C161.784 101.899 158.93 102.14 157.966 100.875C157.002 99.6103 158.207 96.9845 157.4 95.6476C156.593 94.3106 153.786 94.142 153.028 92.7568C152.269 91.3717 153.847 88.9386 153.256 87.5053C152.666 86.072 149.86 85.4456 149.378 83.9641C148.896 82.4826 150.787 80.3507 150.426 78.8211C150.065 77.2914 147.391 76.2555 147.15 74.7138C146.909 73.1721 149.113 71.3654 148.993 69.7995C148.872 68.2337 146.523 66.7884 146.523 65.1864C146.523 63.5845 148.993 62.1511 149.113 60.6094C149.233 59.0677 147.029 57.2248 147.27 55.6951C147.511 54.1655 150.185 53.0935 150.546 51.5879C150.908 50.0823 149.017 47.9745 149.498 46.4448C149.98 44.9151 152.787 44.337 153.377 42.9036C153.967 41.4703 152.437 39.0493 153.148 37.6642C153.859 36.279 156.761 36.0863 157.52 34.7614C158.279 33.4365 157.183 30.7987 158.086 29.534C158.99 28.2693 161.844 28.5102 162.904 27.3177C163.964 26.1253 163.145 23.355 164.229 22.2349C165.313 21.1147 168.096 21.7651 169.264 20.7293C170.432 19.6934 170.059 16.8388 171.287 15.9114C172.516 14.9839 175.19 15.9837 176.479 15.1164C177.767 14.2492 177.804 11.3826 179.153 10.5997C180.502 9.81676 183.007 11.2139 184.404 10.5153C185.801 9.81675 186.223 6.99829 187.668 6.40809C189.114 5.8179 191.402 7.52825 192.884 7.03442C194.365 6.54058 195.148 3.78234 196.666 3.42099C198.183 3.05965 200.219 5.02295 201.749 4.72183C203.278 4.42071 204.422 1.807 205.976 1.60224C207.53 1.39748 209.289 3.66189 210.854 3.55349C212.42 3.44509 213.866 1 215.443 1C217.021 1 218.491 3.40895 220.032 3.55349C221.574 3.69802 223.369 1.40952 224.85 1.60224C226.332 1.79495 227.56 4.43275 229.078 4.72183C230.596 5.0109 232.691 3.02352 234.161 3.42099C235.63 3.81847 236.474 6.57672 237.943 7.03442C239.412 7.49212 241.725 5.82995 243.158 6.40809C244.592 6.98624 245.037 9.84084 246.423 10.5153C247.808 11.1898 250.337 9.81676 251.674 10.5997C253.011 11.3826 253.071 14.2131 254.348 15.1164C255.625 16.0198 258.323 14.9598 259.539 15.9114C260.756 16.8629 260.418 19.7175 261.575 20.7293C262.731 21.741 265.525 21.1268 266.597 22.2349C267.669 23.343 266.935 26.1253 267.922 27.3177C268.91 28.5102 271.777 28.2813 272.74 29.534C273.704 30.7866 272.499 33.4365 273.306 34.7614C274.113 36.0863 276.98 36.279 277.691 37.6642C278.401 39.0493 276.86 41.4703 277.45 42.9036C278.04 44.337 280.846 44.9633 281.328 46.4448C281.81 47.9263 279.919 50.0582 280.292 51.5879C280.666 53.1176 283.316 54.1534 283.556 55.6951C283.797 57.2369 281.593 59.0556 281.714 60.6094C281.834 62.1632 284.231 63.6085 284.231 65.1864Z" fill="#263238"/>
<path opacity="0.1" d="M284.233 65.1864C284.233 63.6085 281.824 62.1511 281.655 60.6094C281.487 59.0677 283.739 57.2248 283.486 55.6951C283.233 54.1655 280.583 53.0935 280.222 51.5879C279.861 50.0823 281.74 47.9745 281.258 46.4448C280.776 44.9151 277.982 44.337 277.379 42.9036C276.777 41.4703 278.319 39.0493 277.62 37.6642C276.922 36.279 274.007 36.0863 273.236 34.7614C272.465 33.4365 273.585 30.8107 272.67 29.534C271.755 28.2573 268.912 28.5222 267.852 27.3177C266.792 26.1133 267.611 23.3671 266.527 22.2349C265.443 21.1027 262.661 21.7772 261.504 20.7293C260.348 19.6814 260.709 16.8509 259.469 15.9114C258.228 14.9719 255.578 15.9957 254.278 15.1164C252.977 14.2372 252.953 11.3826 251.604 10.5997C250.255 9.81676 247.749 11.2139 246.352 10.5153C244.955 9.81675 244.533 6.99829 243.088 6.40809C241.643 5.8179 239.354 7.52825 237.873 7.03442C236.391 6.54058 235.608 3.78234 234.091 3.42099C232.573 3.05965 230.549 5.02295 229.008 4.72183C227.466 4.42071 226.334 1.807 224.78 1.60224C223.226 1.39748 221.48 3.66189 219.962 3.55349C218.445 3.44509 216.939 1 215.373 1C213.807 1 212.326 3.40895 210.784 3.55349C209.242 3.69802 207.436 1.40952 205.906 1.60224C204.376 1.79495 203.196 4.43275 201.678 4.72183C200.161 5.0109 198.065 3.02352 196.595 3.42099C195.126 3.81847 194.283 6.57672 192.813 7.03442C191.344 7.49212 189.031 5.82995 187.598 6.40809C186.165 6.98624 185.731 9.84084 184.334 10.5153C182.937 11.1898 180.431 9.81676 179.082 10.5997C177.733 11.3826 177.697 14.2131 176.408 15.1164C175.12 16.0198 172.446 14.9598 171.217 15.9114C169.989 16.8629 170.338 19.7175 169.194 20.7293C168.049 21.741 165.243 21.1147 164.159 22.2349C163.075 23.355 163.834 26.1253 162.834 27.3177C161.834 28.5102 158.98 28.2693 158.016 29.534C157.052 30.7987 158.257 33.4244 157.45 34.7614C156.643 36.0984 153.837 36.267 153.078 37.6642C152.319 39.0614 153.909 41.4703 153.307 42.9036C152.704 44.337 149.91 44.9633 149.428 46.4448C148.946 47.9263 150.837 50.0582 150.476 51.5879C150.115 53.1176 147.441 54.1534 147.2 55.6951C146.959 57.2369 149.163 59.0556 149.043 60.6094C148.922 62.1632 146.453 63.6085 146.453 65.1864C146.453 66.7643 148.922 68.2096 149.043 69.7514C149.163 71.2931 146.959 73.1359 147.2 74.6656C147.441 76.1953 150.115 77.2673 150.476 78.7729C150.837 80.2785 148.946 82.4465 149.428 83.916C149.91 85.3854 152.704 86.0238 153.307 87.4571C153.909 88.8905 152.367 91.3235 153.078 92.7086C153.453 93.271 154.004 93.6942 154.644 93.9131C154.282 92.6002 153.307 91.1187 153.668 90.0106C154.15 88.5291 156.956 87.9028 157.546 86.4695C158.137 85.0361 156.619 82.6152 157.317 81.23C158.016 79.8449 160.931 79.6521 161.69 78.3272C162.449 77.0023 161.352 74.3645 162.256 73.0998C163.159 71.8351 166.026 72.088 167.013 70.8836C168.001 69.6791 167.266 66.9329 168.338 65.8007C169.41 64.6685 172.217 65.343 173.373 64.2951C174.529 63.2472 174.168 60.4167 175.397 59.4772C176.625 58.5377 179.299 59.5495 180.588 58.6823C181.877 57.815 181.925 54.9484 183.274 54.1655C184.623 53.3826 187.116 54.7798 188.525 54.0812C189.935 53.3826 190.344 50.5641 191.777 49.9739C193.211 49.3837 195.511 51.0941 196.993 50.6002C198.474 50.1064 199.269 47.3481 200.775 46.9868C202.28 46.6255 204.388 48.5888 205.858 48.2876C207.327 47.9865 208.532 45.3728 210.085 45.1681C211.639 44.9633 213.398 47.2277 214.903 47.1193C216.409 47.0109 217.927 44.5658 219.492 44.5658C221.058 44.5658 222.54 46.9748 224.081 47.1193C225.623 47.2638 227.418 44.9753 228.96 45.1681C230.501 45.3608 231.658 47.9986 233.175 48.2876C234.693 48.5767 236.789 46.5893 238.27 46.9868C239.752 47.3843 240.583 50.1425 242.052 50.6002C243.522 51.0579 245.834 49.3957 247.268 49.9739C248.701 50.552 249.135 53.4067 250.52 54.0932C251.905 54.7798 254.434 53.3946 255.771 54.1655C257.108 54.9363 257.168 57.7789 258.457 58.6823C259.746 59.5856 262.42 58.5257 263.648 59.4772C264.877 60.4287 264.516 63.2833 265.672 64.2951C266.828 65.3068 269.623 64.6926 270.707 65.8127C271.791 66.9329 271.032 69.6911 272.032 70.8836C273.031 72.076 275.886 71.8471 276.789 73.1118C277.693 74.3765 276.548 77.0023 277.355 78.3272C277.849 79.1342 279.102 79.5317 280.162 80.0135C280.219 80.2217 280.287 80.4268 280.367 80.6278C280.157 80.0537 280.107 79.4334 280.222 78.8331C280.583 77.3275 283.245 76.2676 283.486 74.7258C283.727 73.1841 281.523 71.3774 281.655 69.8116C281.788 68.2458 284.233 66.7884 284.233 65.1864Z" fill="white"/>
<path d="M284.231 65.1864C284.231 66.7522 281.822 68.2096 281.641 69.7514C281.461 71.2931 283.737 73.1359 283.484 74.6656C283.231 76.1953 280.581 77.2673 280.22 78.8331C279.859 80.3989 281.738 82.5067 281.256 83.9762C280.774 85.4457 277.98 86.084 277.377 87.5174C276.775 88.9507 278.317 91.3837 277.618 92.7689C276.92 94.154 274.005 94.3347 273.234 95.6716C272.463 97.0086 273.583 99.6223 272.668 100.887C271.753 102.152 268.91 101.911 267.85 103.103C266.79 104.296 267.609 107.066 266.525 108.186C265.441 109.306 262.659 108.656 261.503 109.692C260.346 110.728 260.696 113.582 259.467 114.51C258.238 115.437 255.577 114.425 254.276 115.293C252.975 116.16 252.951 119.026 251.602 119.809C250.253 120.592 247.747 119.207 246.35 119.894C244.953 120.58 244.531 123.411 243.086 124.013C241.641 124.615 239.352 122.881 237.871 123.387C236.389 123.892 235.606 126.627 234.089 127C232.571 127.373 230.548 125.398 229.006 125.699C227.464 126 226.332 128.614 224.79 128.819C223.248 129.024 221.478 126.771 219.912 126.868C218.346 126.964 216.889 129.421 215.323 129.421C213.757 129.421 212.276 127.012 210.734 126.868C209.192 126.723 207.385 129.011 205.856 128.819C204.326 128.626 203.146 126 201.628 125.699C200.11 125.398 198.015 127.397 196.545 127C195.076 126.603 194.233 123.856 192.763 123.387C191.294 122.917 188.981 124.591 187.548 124.001C186.114 123.411 185.681 120.58 184.284 119.894C182.887 119.207 180.381 120.592 179.032 119.809C177.683 119.026 177.647 116.196 176.358 115.293C175.069 114.389 172.383 115.461 171.167 114.498C169.95 113.534 170.288 110.691 169.131 109.68C167.975 108.668 165.181 109.294 164.109 108.174C163.037 107.054 163.784 104.284 162.784 103.091C161.784 101.899 158.93 102.14 157.966 100.875C157.002 99.6103 158.207 96.9845 157.4 95.6476C156.593 94.3106 153.786 94.142 153.028 92.7568C152.269 91.3717 153.847 88.9386 153.256 87.5053C152.666 86.072 149.86 85.4457 149.378 83.9641C148.896 82.4826 150.787 80.3507 150.426 78.8211C150.065 77.2914 147.391 76.2555 147.15 74.7138C146.909 73.1721 149.113 71.3654 148.993 69.7995C148.872 68.2337 146.523 66.7884 146.523 65.1864C146.523 63.5845 148.993 62.1511 149.113 60.6094C149.233 59.0677 147.029 57.2248 147.27 55.6951C147.511 54.1655 150.185 53.0935 150.546 51.5879C150.908 50.0823 149.017 47.9745 149.498 46.4448C149.98 44.9151 152.787 44.337 153.377 42.9036C153.967 41.4703 152.437 39.0493 153.148 37.6642C153.859 36.279 156.761 36.0863 157.52 34.7614C158.279 33.4365 157.183 30.7987 158.086 29.534C158.99 28.2693 161.844 28.5102 162.904 27.3177C163.964 26.1253 163.145 23.355 164.229 22.2349C165.313 21.1147 168.096 21.7651 169.264 20.7293C170.432 19.6934 170.059 16.8388 171.287 15.9114C172.516 14.9839 175.19 15.9837 176.479 15.1164C177.767 14.2492 177.804 11.3826 179.153 10.5997C180.502 9.81676 183.007 11.2139 184.404 10.5153C185.801 9.81675 186.223 6.99829 187.668 6.40809C189.114 5.8179 191.402 7.52825 192.884 7.03442C194.365 6.54058 195.148 3.78234 196.666 3.42099C198.183 3.05965 200.219 5.02295 201.749 4.72183C203.278 4.42071 204.422 1.807 205.976 1.60224C207.53 1.39748 209.289 3.66189 210.854 3.55349C212.42 3.44508 213.866 1 215.443 1C217.021 1 218.491 3.40895 220.032 3.55349C221.574 3.69802 223.369 1.40952 224.85 1.60224C226.332 1.79495 227.56 4.43275 229.078 4.72183C230.596 5.0109 232.691 3.02352 234.161 3.42099C235.63 3.81847 236.474 6.57672 237.943 7.03442C239.412 7.49212 241.725 5.82995 243.158 6.40809C244.592 6.98624 245.037 9.84084 246.423 10.5153C247.808 11.1898 250.337 9.81676 251.674 10.5997C253.011 11.3826 253.071 14.2131 254.348 15.1164C255.625 16.0198 258.323 14.9598 259.539 15.9114C260.756 16.8629 260.418 19.7175 261.575 20.7293C262.731 21.741 265.525 21.1268 266.597 22.2349C267.669 23.343 266.935 26.1253 267.922 27.3177C268.91 28.5102 271.777 28.2813 272.74 29.534C273.704 30.7866 272.499 33.4365 273.306 34.7614C274.113 36.0863 276.98 36.279 277.691 37.6642C278.401 39.0493 276.86 41.4703 277.45 42.9036C278.04 44.337 280.846 44.9633 281.328 46.4448C281.81 47.9263 279.919 50.0582 280.292 51.5879C280.666 53.1176 283.316 54.1534 283.556 55.6951C283.797 57.2369 281.593 59.0556 281.714 60.6094C281.834 62.1632 284.231 63.6085 284.231 65.1864Z" stroke="#263238" stroke-linecap="round" stroke-linejoin="round"/>
<path d="M207.152 145.476C207.152 145.476 188.29 150.704 174.631 152.703C160.973 154.703 152.553 154.715 149.747 161.544C146.941 168.373 124.043 245.448 119.226 254.686C114.408 263.924 111.601 284.798 120.033 285.195C128.464 285.593 153.758 232.608 153.758 232.608L161.382 247.062C161.382 247.062 137.702 321.329 138.1 324.545C138.497 327.761 148.94 334.181 168.609 335.783C188.278 337.385 190.29 336.988 203.948 340.601C217.607 344.214 236.06 339.397 244.9 334.579C253.741 329.761 263.762 328.159 267.785 325.75C271.808 323.341 271.796 322.943 271.796 318.126C271.796 313.308 252.922 243.846 252.922 243.846L264.172 214.131C264.172 214.131 289.863 267.128 291.068 271.946C292.272 276.764 299.897 282.786 307.123 281.184C314.35 279.582 321.577 274.355 319.578 262.31C317.578 250.265 283.841 166.362 281.432 159.135C279.023 151.908 281.83 145.079 271.796 142.67C261.763 140.261 212.38 143.067 212.38 143.067L207.152 145.476Z" fill="#0109C8"/>
<path opacity="0.3" d="M281.429 159.136C279.02 151.909 281.826 145.079 271.793 142.671C262.699 140.49 221.349 142.586 213.617 143.008L216.387 152.306C216.387 152.306 235.056 155.92 245.897 155.92C256.737 155.92 265.77 154.715 269.986 166.158C274.202 177.6 300.098 252.278 309.734 267.936C311.623 270.954 313.694 273.854 315.937 276.62C318.948 273.597 320.682 269.008 319.55 262.311C317.563 250.266 283.838 166.363 281.429 159.136Z" fill="black"/>
<path opacity="0.3" d="M267.784 325.75C271.795 323.341 271.795 322.943 271.795 318.125C271.795 313.307 252.921 243.845 252.921 243.845L263.689 215.396C260.593 210.867 256.004 203.447 256.534 200.087C257.09 195.019 257.36 189.924 257.341 184.826C257.341 184.826 254.33 204.098 245.898 214.938C237.467 225.778 194.708 230.596 173.63 230.596C162.633 230.596 156.563 231.909 154.455 233.933L158.165 240.955C166.716 246.363 187.65 254.107 210.969 257.697C234.287 261.286 246.501 308.887 250.716 315.512C254.932 322.136 241.683 332.374 233.251 333.579C224.82 334.783 213.378 328.761 201.935 329.965C190.493 331.17 185.073 337.192 181.459 331.17C177.846 325.147 180.255 310.694 176.641 317.318C173.028 323.943 171.823 331.772 167.608 331.772C164.584 331.772 153.828 331.459 146.867 331.061C153.832 333.728 161.163 335.32 168.607 335.783C188.288 337.397 190.288 336.987 203.947 340.601C217.605 344.214 236.058 339.396 244.899 334.578C253.74 329.76 263.761 328.159 267.784 325.75Z" fill="black"/>
<path opacity="0.3" d="M157.141 239.029L157.37 238.439C157.37 238.439 149.36 226.213 150.251 220.986C151.143 215.758 150.143 201.088 150.143 201.088C150.143 201.088 139.303 242.04 134.485 249.869C129.667 257.698 115.816 279.981 115.816 279.981C115.816 279.981 115.707 280.427 115.539 281.185C116.37 283.594 117.803 285.1 120.031 285.196C128.463 285.606 153.757 232.609 153.757 232.609L157.141 239.029Z" fill="black"/>
<path d="M207.152 145.476C207.152 145.476 188.29 150.704 174.631 152.703C160.973 154.703 152.553 154.715 149.747 161.544C146.941 168.373 124.043 245.448 119.226 254.686C114.408 263.924 111.601 284.798 120.033 285.195C128.464 285.593 153.758 232.608 153.758 232.608L161.382 247.062C161.382 247.062 137.702 321.329 138.1 324.545C138.497 327.761 148.94 334.181 168.609 335.783C188.278 337.385 190.29 336.988 203.948 340.601C217.607 344.214 236.06 339.397 244.9 334.579C253.741 329.761 263.762 328.159 267.785 325.75C271.808 323.341 271.796 322.943 271.796 318.126C271.796 313.308 252.922 243.846 252.922 243.846L264.172 214.131C264.172 214.131 289.863 267.128 291.068 271.946C292.272 276.764 299.897 282.786 307.123 281.184C314.35 279.582 321.577 274.355 319.578 262.31C317.578 250.265 283.841 166.362 281.432 159.135C279.023 151.908 281.83 145.079 271.796 142.67C261.763 140.261 212.38 143.067 212.38 143.067L207.152 145.476Z" stroke="#263238" stroke-linecap="round" stroke-linejoin="round"/>
<path d="M264.173 214.131C264.173 214.131 257.343 205.7 256.536 200.087C255.729 194.474 263.366 173.986 263.366 173.986" stroke="#263238" stroke-linecap="round" stroke-linejoin="round"/>
<path d="M153.755 232.608C153.755 232.608 150.25 225.851 150.25 220.973C150.25 216.095 156.875 193.764 156.875 193.764" stroke="#263238" stroke-linecap="round" stroke-linejoin="round"/>
<path d="M220.809 163.545C227.221 156.872 233.04 149.654 238.201 141.973C224.651 142.37 212.377 143.069 212.377 143.069L207.15 145.478C207.15 145.478 200.405 147.345 192.058 149.284C191.588 155.896 190.6 170.579 190.287 178.805C189.89 189.646 189.492 194.861 189.492 194.861C189.492 194.861 205.945 179.203 220.809 163.545Z" stroke="#263238" stroke-linecap="round" stroke-linejoin="round"/>
<path d="M129.666 250.675C129.666 250.675 124.848 281.184 120.03 285.195C115.212 289.206 107.588 288.014 104.372 273.15C101.156 258.287 104.372 254.686 109.587 247.459C114.803 240.232 127.655 234.607 129.666 250.675Z" fill="#0109C8"/>
<path opacity="0.3" d="M129.658 250.675C129.658 250.675 124.84 281.184 120.022 285.195C115.205 289.206 107.58 288.014 104.364 273.15C101.148 258.287 104.364 254.686 109.58 247.459C114.795 240.232 127.647 234.607 129.658 250.675Z" fill="black"/>
<path d="M129.666 250.675C129.666 250.675 124.848 281.184 120.03 285.195C115.212 289.206 107.588 288.014 104.372 273.15C101.156 258.287 104.372 254.686 109.587 247.459C114.803 240.232 127.655 234.607 129.666 250.675Z" stroke="#263238" stroke-linecap="round" stroke-linejoin="round"/>
<path d="M194.309 115.364C194.309 115.364 199.127 132.226 198.718 143.067C198.308 153.907 195.514 170.372 194.309 177.996C193.105 185.621 198.718 180.405 211.57 163.952C224.421 147.499 228.035 142.669 228.83 137.044C229.625 131.419 229.637 116.171 229.637 116.171C227.484 118.222 224.83 119.673 221.94 120.377C219.051 121.081 216.027 121.013 213.172 120.182C203.138 117.375 196.718 110.148 195.104 110.148C193.49 110.148 194.309 115.364 194.309 115.364Z" fill="white"/>
<path opacity="0.2" d="M213.171 120.182C203.138 117.375 196.718 110.148 195.104 110.148C193.49 110.148 194.309 115.364 194.309 115.364C194.309 115.364 195.273 118.76 196.309 123.47C201.271 129.577 210.967 141.537 212.376 143.067C214.267 145.223 217.773 153.907 211.569 163.952C224.421 147.487 228.035 142.669 228.83 137.044C229.625 131.419 229.637 116.171 229.637 116.171C227.484 118.222 224.83 119.673 221.94 120.377C219.051 121.081 216.027 121.013 213.171 120.182Z" fill="#263238"/>
<path d="M194.309 115.364C194.309 115.364 199.127 132.226 198.718 143.067C198.308 153.907 195.514 170.372 194.309 177.996C193.105 185.621 198.718 180.405 211.57 163.952C224.421 147.499 228.035 142.669 228.83 137.044C229.625 131.419 229.637 116.171 229.637 116.171C227.484 118.222 224.83 119.673 221.94 120.377C219.051 121.081 216.027 121.013 213.172 120.182C203.138 117.375 196.718 110.148 195.104 110.148C193.49 110.148 194.309 115.364 194.309 115.364Z" stroke="#263238" stroke-linecap="round" stroke-linejoin="round"/>
<path d="M189.986 84.5545C189.986 84.5545 185.493 79.303 182.482 83.8077C179.471 88.3124 188.504 103.32 191.118 103.32C193.732 103.32 192.612 92.8172 192.612 90.1914C192.612 87.5657 189.986 84.5545 189.986 84.5545Z" fill="white" stroke="#263238" stroke-linecap="round" stroke-linejoin="round"/>
<path d="M242.153 88.6853C242.153 88.6853 246.646 83.4338 249.657 87.9386C252.668 92.4433 243.635 107.451 241.021 107.451C238.408 107.451 239.528 96.936 239.528 94.3102C239.528 91.6845 242.153 88.6853 242.153 88.6853Z" fill="white"/>
<path opacity="0.2" d="M242.153 88.6853C242.153 88.6853 246.646 83.4338 249.657 87.9386C252.669 92.4433 243.635 107.451 241.021 107.451C238.408 107.451 239.528 96.936 239.528 94.3102C239.528 91.6845 242.153 88.6853 242.153 88.6853Z" fill="#263238"/>
<path d="M242.153 88.6853C242.153 88.6853 246.646 83.4338 249.657 87.9386C252.668 92.4433 243.635 107.451 241.021 107.451C238.408 107.451 239.528 96.936 239.528 94.3102C239.528 91.6845 242.153 88.6853 242.153 88.6853Z" stroke="#263238" stroke-linecap="round" stroke-linejoin="round"/>
<path d="M229.914 47.7695C229.444 48.9138 229.119 50.2869 228.252 50.7928C226.903 51.5636 224.397 50.1785 223 50.865C221.603 51.5516 221.181 54.3821 219.736 54.9843C218.291 55.5866 216.002 53.8642 214.521 54.358C213.039 54.8518 212.256 57.598 210.739 57.9714C209.221 58.3448 207.185 56.3574 205.656 56.6585C204.126 56.9597 202.982 59.5854 201.428 59.7781C199.874 59.9708 198.116 57.7305 196.55 57.8269C195.201 57.9112 193.9 59.8022 192.551 60.2358C190.78 65.0537 189.72 71.4615 189.612 79.9892C189.612 79.9892 189.239 104.741 191.864 111.498C194.49 118.255 208.378 130.637 213.244 131.384C218.11 132.131 220.374 130.637 222.627 128.385C224.879 126.133 239.489 114.124 241.007 109.246C242.525 104.368 248.137 72.8587 246.258 62.3557C245.114 55.9479 238.152 50.6603 229.914 47.7695Z" fill="white"/>
<path opacity="0.2" d="M235.283 50.1191C237.03 53.2146 238.56 58.1048 237.897 65.4521C236.524 80.508 237.548 92.4925 235.151 102.791C232.754 113.089 224.564 124.339 219.975 126.88C215.386 129.422 209.821 128.795 203.654 125.375L203.305 125.194C207.219 128.554 211.098 131.144 213.242 131.469C218.12 132.216 220.372 130.723 222.624 128.47C224.877 126.218 239.487 114.209 241.005 109.331C242.522 104.453 248.135 72.9439 246.256 62.4409C245.377 57.4423 241.017 53.1424 235.283 50.1191Z" fill="#263238"/>
<path d="M229.914 47.7695C229.444 48.9138 229.119 50.2869 228.252 50.7928C226.903 51.5636 224.397 50.1785 223 50.865C221.603 51.5516 221.181 54.3821 219.736 54.9843C218.291 55.5866 216.002 53.8642 214.521 54.358C213.039 54.8518 212.256 57.598 210.739 57.9714C209.221 58.3448 207.185 56.3574 205.656 56.6585C204.126 56.9597 202.982 59.5854 201.428 59.7781C199.874 59.9708 198.116 57.7305 196.55 57.8269C195.201 57.9112 193.9 59.8022 192.551 60.2358C190.78 65.0537 189.72 71.4615 189.612 79.9892C189.612 79.9892 189.239 104.741 191.864 111.498C194.49 118.255 208.378 130.637 213.244 131.384C218.11 132.131 220.374 130.637 222.627 128.385C224.879 126.133 239.489 114.124 241.007 109.246C242.525 104.368 248.137 72.8587 246.258 62.3557C245.114 55.9479 238.152 50.6603 229.914 47.7695Z" stroke="#263238" stroke-linecap="round" stroke-linejoin="round"/>
<path d="M217 101.815C217 101.815 222.625 102.574 223.022 97.3223" stroke="#263238" stroke-linecap="round" stroke-linejoin="round"/>
<path d="M226.385 108.571C226.385 108.571 219.627 109.691 207.992 106.318C207.992 106.318 209.498 115.328 215.496 116.821C221.494 118.315 226.385 108.571 226.385 108.571Z" stroke="#263238" stroke-linecap="round" stroke-linejoin="round"/>
<path d="M211.485 86.6869C211.413 88.855 210.521 90.6015 209.485 90.5653C208.45 90.5292 207.667 88.7345 207.739 86.5665C207.811 84.3984 208.703 82.6519 209.738 82.6881C210.774 82.7242 211.569 84.5068 211.485 86.6869Z" fill="#263238"/>
<path d="M206.75 83.254C207.662 82.8307 208.669 82.6535 209.67 82.7402C210.672 82.8268 211.634 83.1742 212.459 83.7479" stroke="#263238" stroke-linecap="round" stroke-linejoin="round"/>
<path d="M231.301 89.3001C231.072 91.4561 230.097 93.1303 229.025 93.0219C227.953 92.9135 227.351 91.0707 227.579 88.9026C227.808 86.7346 228.784 85.0724 229.856 85.1808C230.928 85.2892 231.53 87.132 231.301 89.3001Z" fill="#263238"/>
<path d="M226.852 85.5429C227.79 85.1844 228.805 85.0792 229.797 85.2378C230.789 85.3964 231.721 85.8131 232.501 86.4462" stroke="#263238" stroke-linecap="round" stroke-linejoin="round"/>
<path d="M202.32 75.8215C204.242 74.649 206.423 73.9677 208.671 73.8374C210.919 73.7072 213.164 74.1321 215.208 75.0747" stroke="#263238" stroke-width="2" stroke-linecap="round" stroke-linejoin="round"/>
<path d="M225.867 77.3042C225.867 77.3042 231.805 73.3415 237.755 80.5322" stroke="#263238" stroke-width="2" stroke-linecap="round" stroke-linejoin="round"/>
<path d="M260.146 286.81C260.146 286.81 254.124 274.356 253.726 263.118C253.329 251.881 258.147 245.858 263.362 251.471C268.577 257.084 264.566 281.185 260.146 286.81Z" fill="#0109C8"/>
<path opacity="0.3" d="M260.146 286.81C260.146 286.81 254.124 274.356 253.726 263.118C253.329 251.881 258.147 245.858 263.362 251.471C268.577 257.084 264.566 281.185 260.146 286.81Z" fill="black"/>
<path d="M260.146 286.81C260.146 286.81 254.124 274.356 253.726 263.118C253.329 251.881 258.147 245.858 263.362 251.471C268.577 257.084 264.566 281.185 260.146 286.81Z" stroke="#263238" stroke-linecap="round" stroke-linejoin="round"/>
<path d="M306.326 247.856C306.326 247.856 279.418 247.856 264.567 242.243C249.716 236.631 236.467 228.585 229.637 222.165C222.808 215.745 220.399 214.131 212.377 213.336C204.355 212.541 198.321 208.109 198.321 210.927C198.321 213.746 200.73 215.745 203.139 216.949C205.548 218.154 214.377 222.165 214.377 222.165C214.377 222.165 215.184 224.176 206.752 225.778C198.334 227.41 190.122 229.967 182.265 233.403C175.038 236.618 172.629 239.027 175.038 239.834C177.447 240.641 185.072 237.823 186.674 237.823C188.276 237.823 197.116 236.618 197.116 236.618C197.116 236.618 180.651 243.845 178.242 245.857C175.833 247.868 169.016 250.675 171.822 251.879C174.629 253.084 186.276 251.072 186.276 251.072C186.276 251.072 174.231 254.686 179.049 256.288C183.867 257.889 193.9 255.493 193.9 255.493C193.9 255.493 205.548 257.095 208.764 255.493C211.98 253.891 230.842 245.857 230.842 245.857C230.842 245.857 259.749 270.741 284.646 276.764C309.542 282.786 309.132 276.764 309.132 276.764" fill="white"/>
<path opacity="0.2" d="M278.224 274.837C283.042 272.705 286.848 270.947 286.848 270.947L288.052 246.857C280.127 246.087 271.19 244.701 264.589 242.208C249.714 236.619 236.465 228.586 229.635 222.166C224.817 217.661 222.228 215.529 218.337 214.385C220.397 216.095 222.408 218.299 222.408 220.407C222.408 224.623 215.182 228.838 209.761 231.247L188.081 240.883C188.081 240.883 205.546 233.656 204.341 237.872C203.137 242.088 191.092 247.508 179.047 250.519C177.221 250.973 175.43 251.556 173.688 252.265C177.951 252.555 186.274 251.121 186.274 251.121C186.274 251.121 174.23 254.735 179.047 256.337C183.865 257.939 193.899 255.542 193.899 255.542C193.899 255.542 205.546 257.144 208.762 255.542C211.978 253.94 230.84 245.906 230.84 245.906C230.84 245.906 255.038 266.731 278.224 274.837Z" fill="#263238"/>
<path d="M306.326 247.856C306.326 247.856 279.418 247.856 264.567 242.243C249.716 236.631 236.467 228.585 229.637 222.165C222.808 215.745 220.399 214.131 212.377 213.336C204.355 212.541 198.321 208.109 198.321 210.927C198.321 213.746 200.73 215.745 203.139 216.949C205.548 218.154 214.377 222.165 214.377 222.165C214.377 222.165 215.184 224.176 206.752 225.778C198.334 227.41 190.122 229.967 182.265 233.403C175.038 236.618 172.629 239.027 175.038 239.834C177.447 240.641 185.072 237.823 186.674 237.823C188.276 237.823 197.116 236.618 197.116 236.618C197.116 236.618 180.651 243.845 178.242 245.857C175.833 247.868 169.016 250.675 171.822 251.879C174.629 253.084 186.276 251.072 186.276 251.072C186.276 251.072 174.231 254.686 179.049 256.288C183.867 257.889 193.9 255.493 193.9 255.493C193.9 255.493 205.548 257.095 208.764 255.493C211.98 253.891 230.842 245.857 230.842 245.857C230.842 245.857 259.749 270.741 284.646 276.764C309.542 282.786 309.132 276.764 309.132 276.764" stroke="#263238" stroke-linecap="round" stroke-linejoin="round"/>
<path d="M186.273 251.073L200.462 246.074" stroke="#263238" stroke-linecap="round" stroke-linejoin="round"/>
<path d="M193.898 255.494L203.257 253.049" stroke="#263238" stroke-linecap="round" stroke-linejoin="round"/>
<path d="M319.577 270.344C317.963 280.378 313.555 287.207 295.078 286.81C276.602 286.412 260.148 286.81 260.148 286.81C261.687 281.014 262.763 275.106 263.364 269.14C264.569 258.3 264.569 242.244 264.569 242.244C264.569 242.244 289.863 247.857 310.339 245.858" fill="#0109C8"/>
<path opacity="0.3" d="M319.578 270.344C317.964 280.378 313.555 287.207 295.079 286.81C276.602 286.412 260.149 286.81 260.149 286.81C261.688 281.014 262.763 275.106 263.365 269.14C264.569 258.3 264.569 242.244 264.569 242.244C264.569 242.244 289.863 247.857 310.339 245.858" fill="black"/>
<path d="M319.577 270.344C317.963 280.378 313.555 287.207 295.078 286.81C276.602 286.412 260.148 286.81 260.148 286.81C261.687 281.014 262.763 275.106 263.364 269.14C264.569 258.3 264.569 242.244 264.569 242.244C264.569 242.244 289.863 247.857 310.339 245.858" stroke="#263238" stroke-linecap="round" stroke-linejoin="round"/>
<path d="M132.074 193.259C132.074 193.259 129.906 199.956 116.813 224.575C105.78 245.34 102.359 254.29 102.359 261.914C102.359 269.538 109.189 278.379 119.222 271.947C129.255 265.515 132.471 257.819 134.109 246.581C135.747 235.343 144.383 198.33 144.383 198.33C144.383 198.33 141.71 189.248 132.074 193.259Z" fill="white"/>
<path opacity="0.2" d="M134.112 246.58C135.714 235.342 144.386 198.328 144.386 198.328C144.386 198.328 142.435 191.74 135.955 192.306L133.546 201.821C133.546 201.821 124.85 248.061 116.418 260.106C115.026 262.27 113.202 264.123 111.062 265.551C108.921 266.979 106.509 267.95 103.976 268.405C106.566 273.355 112.082 276.523 119.225 271.946C129.27 265.526 132.51 257.817 134.112 246.58Z" fill="#263238"/>
<path d="M132.074 193.259C132.074 193.259 129.906 199.956 116.813 224.575C105.78 245.34 102.359 254.29 102.359 261.914C102.359 269.538 109.189 278.379 119.222 271.947C129.255 265.515 132.471 257.819 134.109 246.581C135.747 235.343 144.383 198.33 144.383 198.33C144.383 198.33 141.71 189.248 132.074 193.259Z" stroke="#263238" stroke-linecap="round" stroke-linejoin="round"/>
<path d="M136.085 179.612C136.085 179.612 122.438 179.612 120.836 181.611C119.234 183.61 119.222 188.838 124.04 188.838C128.858 188.838 136.494 188.44 138.903 186.838C141.312 185.236 140.12 178.877 136.085 179.612Z" fill="white" stroke="#263238" stroke-linecap="round" stroke-linejoin="round"/>
<path d="M130.374 201.438C130.219 202.601 130.358 203.786 130.779 204.882C131.2 205.978 131.889 206.952 132.783 207.713C135.915 210.507 141.853 208.761 140.805 207.026C139.757 205.292 133.482 201.787 133.482 201.787L130.374 201.438Z" fill="white" stroke="#263238" stroke-linecap="round" stroke-linejoin="round"/>
<path d="M129.661 195.27C129.661 195.27 127.252 199.281 128.854 201.292C130.456 203.304 134.877 203.701 140.104 202.497C145.332 201.292 146.922 195.667 142.513 195.27C138.232 195.051 133.943 195.051 129.661 195.27Z" fill="white" stroke="#263238" stroke-linecap="round" stroke-linejoin="round"/>
<path d="M127.653 188.837C127.653 188.837 124.449 190.849 125.654 194.065C126.858 197.281 132.074 197.269 138.494 196.064C144.914 194.86 144.926 188.042 142.517 187.633C140.108 187.223 127.653 188.837 127.653 188.837Z" fill="white" stroke="#263238" stroke-linecap="round" stroke-linejoin="round"/>
<path d="M151.141 215.746C146.617 215.743 142.279 213.943 139.081 210.743C135.882 207.542 134.086 203.203 134.086 198.678V172.385H168.209V198.678C168.209 200.92 167.767 203.139 166.91 205.21C166.052 207.281 164.795 209.162 163.21 210.747C161.625 212.332 159.743 213.589 157.673 214.447C155.602 215.304 153.383 215.746 151.141 215.746Z" fill="white"/>
<path opacity="0.3" d="M155.886 172.469V201.376C155.886 201.376 154.561 208.049 145.66 209.808C143.379 210.247 141.055 210.421 138.734 210.326C140.322 212.026 142.243 213.382 144.378 214.308C146.512 215.234 148.814 215.711 151.14 215.71C155.661 215.71 159.996 213.916 163.196 210.724C166.396 207.531 168.198 203.199 168.208 198.678V172.385H155.97L155.886 172.469Z" fill="black"/>
<path d="M151.141 215.746C146.617 215.743 142.279 213.943 139.081 210.743C135.882 207.542 134.086 203.203 134.086 198.678V172.385H168.209V198.678C168.209 200.92 167.767 203.139 166.91 205.21C166.052 207.281 164.795 209.162 163.21 210.747C161.625 212.332 159.743 213.589 157.673 214.447C155.602 215.304 153.383 215.746 151.141 215.746V215.746Z" stroke="#263238" stroke-linecap="round" stroke-linejoin="round"/>
<path d="M129.461 133.384C131.032 132.33 132.931 131.877 134.809 132.108" stroke="#263238" stroke-linecap="round" stroke-linejoin="round"/>
<path d="M143.819 170.373C143.819 170.373 146.011 165.013 140.892 158.918C136.857 154.101 129.606 153.402 125.691 148.548C123.102 145.344 123.68 140.61 125.944 137.033" stroke="#263238" stroke-linecap="round" stroke-linejoin="round"/>
<path d="M145.32 150.607C145.32 150.607 154.089 152.8 156.763 160.099C159.437 167.398 157.498 170.084 157.498 170.084" stroke="#263238" stroke-linecap="round" stroke-linejoin="round"/>
<path d="M6 346.25H510" stroke="#263238" stroke-linecap="round" stroke-linejoin="round"/>
<path d="M463.816 123.531H346.248C341.758 123.531 338.118 127.171 338.118 131.661V356.585C338.118 361.075 341.758 364.715 346.248 364.715H463.816C468.307 364.715 471.947 361.075 471.947 356.585V131.661C471.947 127.171 468.307 123.531 463.816 123.531Z" fill="#263238" stroke="#263238" stroke-linecap="round" stroke-linejoin="round"/>
<path d="M457.613 123.531H340.044C335.554 123.531 331.914 127.171 331.914 131.661V356.585C331.914 361.075 335.554 364.715 340.044 364.715H457.613C462.103 364.715 465.743 361.075 465.743 356.585V131.661C465.743 127.171 462.103 123.531 457.613 123.531Z" fill="white" stroke="#263238" stroke-linecap="round" stroke-linejoin="round"/>
<path d="M408.071 137.936H391.413C390.96 137.936 390.525 137.756 390.204 137.435C389.883 137.115 389.703 136.68 389.703 136.226C389.706 135.773 389.888 135.34 390.208 135.02C390.528 134.7 390.961 134.519 391.413 134.516H408.071C408.525 134.516 408.96 134.696 409.281 135.017C409.602 135.337 409.782 135.772 409.782 136.226C409.783 136.451 409.74 136.674 409.655 136.882C409.569 137.091 409.443 137.28 409.284 137.439C409.125 137.598 408.936 137.724 408.728 137.809C408.52 137.895 408.296 137.938 408.071 137.936Z" fill="#263238"/>
<path d="M457.273 343.154H340.367V138.141H368.07L371.178 140.718C372.269 141.619 373.64 142.113 375.056 142.115H423.958C425.43 142.119 426.852 141.584 427.957 140.61L430.775 138.201H457.273V343.154Z" fill="#263238"/>
<path d="M426.124 242.729C441.058 227.794 441.058 203.581 426.124 188.646C411.189 173.712 386.976 173.712 372.041 188.646C357.107 203.581 357.107 227.794 372.041 242.729C386.976 257.663 411.189 257.663 426.124 242.729Z" stroke="#0109C8" stroke-miterlimit="10"/>
<path d="M399.075 247.206C416.484 247.206 430.596 233.094 430.596 215.685C430.596 198.277 416.484 184.164 399.075 184.164C381.667 184.164 367.554 198.277 367.554 215.685C367.554 233.094 381.667 247.206 399.075 247.206Z" fill="#0109C8"/>
<path d="M448.648 291.097C446.334 290.501 443.979 290.074 441.602 289.82C438.205 289.567 435.495 290.856 434.146 290.856C432.797 290.856 431.207 287.496 426.004 285.424C420.801 283.352 416.742 290.085 412.225 290.085C410.081 290.085 408.696 288.556 407.299 286.906C406.67 285.939 405.879 285.087 404.962 284.388C404.037 283.523 402.859 282.979 401.601 282.834C401.265 282.81 400.927 282.81 400.59 282.834C400.253 282.811 399.915 282.811 399.578 282.834C398.32 282.979 397.142 283.523 396.217 284.388C395.3 285.087 394.51 285.939 393.881 286.906C392.484 288.556 391.111 290.085 388.955 290.085C384.438 290.085 380.367 283.352 375.175 285.424C369.984 287.496 368.394 290.856 367.033 290.856C365.672 290.856 362.974 289.567 359.577 289.82C357.201 290.076 354.846 290.502 352.531 291.097C354.845 291.698 357.2 292.125 359.577 292.374C362.974 292.639 365.684 291.338 367.033 291.338C368.382 291.338 369.972 294.711 375.175 296.782C380.379 298.854 384.438 292.121 388.955 292.121C391.111 292.121 392.484 293.639 393.881 295.301C394.514 296.261 395.304 297.108 396.217 297.806C397.145 298.668 398.321 299.216 399.578 299.372C399.915 299.396 400.253 299.396 400.59 299.372C400.927 299.396 401.265 299.396 401.601 299.372C402.858 299.216 404.034 298.668 404.962 297.806C405.876 297.108 406.666 296.261 407.299 295.301C408.696 293.639 410.081 292.121 412.225 292.121C416.742 292.121 420.813 298.854 426.004 296.782C431.195 294.711 432.785 291.338 434.146 291.338C435.507 291.338 438.205 292.639 441.602 292.374C443.979 292.126 446.335 291.699 448.648 291.097Z" fill="#0109C8"/>
<path opacity="0.7" d="M443.378 291.084C441.985 290.693 440.563 290.411 439.126 290.241C437.091 290.072 435.513 290.927 434.634 290.927C433.754 290.927 432.863 288.699 429.731 287.314C426.6 285.929 424.155 290.409 421.432 290.409C420.132 290.409 419.301 289.397 418.457 288.301C418.082 287.67 417.606 287.104 417.048 286.627C416.51 286.065 415.796 285.704 415.025 285.603C414.82 285.585 414.615 285.585 414.41 285.603C413.923 285.579 413.436 285.66 412.983 285.841C412.53 286.022 412.121 286.298 411.785 286.651C411.227 287.129 410.751 287.694 410.375 288.325C409.532 289.422 408.701 290.433 407.4 290.433C406.222 290.267 405.12 289.756 404.233 288.964C403.463 288.297 402.598 287.749 401.667 287.338C401.262 287.158 400.821 287.072 400.378 287.085C399.939 287.072 399.503 287.158 399.102 287.338C398.17 287.749 397.306 288.297 396.536 288.964C395.645 289.758 394.538 290.269 393.356 290.433C392.067 290.433 391.236 289.422 390.393 288.325C390.018 287.694 389.542 287.129 388.984 286.651C388.444 286.091 387.731 285.731 386.96 285.627C386.756 285.609 386.551 285.609 386.346 285.627C386.142 285.61 385.936 285.61 385.732 285.627C384.961 285.731 384.248 286.091 383.708 286.651C383.154 287.129 382.682 287.695 382.311 288.325C381.468 289.422 380.637 290.433 379.336 290.433C376.614 290.433 374.169 285.965 371.037 287.338C367.906 288.711 366.942 290.951 366.135 290.951C365.328 290.951 363.726 290.096 361.642 290.265C360.205 290.435 358.784 290.717 357.391 291.108C358.782 291.504 360.205 291.786 361.642 291.951C363.678 292.132 365.316 291.264 366.135 291.264C366.954 291.264 367.906 293.505 371.037 294.878C374.169 296.251 376.614 291.782 379.336 291.782C380.637 291.782 381.468 292.794 382.311 293.89C382.679 294.519 383.152 295.082 383.708 295.552C384.25 296.111 384.962 296.476 385.732 296.588C385.936 296.6 386.142 296.6 386.346 296.588C386.551 296.6 386.756 296.6 386.96 296.588C387.731 296.476 388.442 296.111 388.984 295.552C389.544 295.082 390.021 294.52 390.393 293.89C391.236 292.794 392.067 291.782 393.356 291.782C394.541 291.938 395.65 292.45 396.536 293.252C397.306 293.918 398.17 294.466 399.102 294.878C399.503 295.054 399.94 295.136 400.378 295.119C400.821 295.136 401.261 295.054 401.667 294.878C402.601 294.467 403.467 293.914 404.233 293.24C405.119 292.448 406.222 291.94 407.4 291.782C408.701 291.782 409.532 292.794 410.375 293.89C410.748 294.52 411.224 295.082 411.785 295.552C412.325 296.114 413.037 296.478 413.808 296.588C414.009 296.6 414.21 296.6 414.41 296.588C414.615 296.6 414.82 296.6 415.025 296.588C415.796 296.478 416.508 296.114 417.048 295.552C417.609 295.082 418.085 294.52 418.457 293.89C419.301 292.794 420.132 291.782 421.432 291.782C424.155 291.782 426.6 296.251 429.731 294.878C432.863 293.505 433.814 291.264 434.634 291.264C435.453 291.264 437.042 292.132 439.126 291.951C440.564 291.786 441.986 291.504 443.378 291.108V291.084Z" fill="white"/>
<path d="M398.821 223.827C397.985 223.828 397.157 223.665 396.385 223.346C395.613 223.027 394.911 222.558 394.32 221.967C393.729 221.376 393.261 220.675 392.942 219.902C392.623 219.13 392.459 218.302 392.461 217.467V197.328C392.461 196.493 392.626 195.667 392.945 194.896C393.265 194.125 393.734 193.425 394.324 192.835C394.915 192.246 395.616 191.778 396.388 191.46C397.159 191.142 397.986 190.979 398.821 190.98C400.504 190.98 402.119 191.649 403.309 192.84C404.499 194.03 405.168 195.645 405.168 197.328V217.467C405.17 218.301 405.007 219.128 404.688 219.9C404.37 220.671 403.903 221.372 403.313 221.963C402.724 222.554 402.023 223.022 401.252 223.342C400.482 223.662 399.655 223.827 398.821 223.827Z" fill="#263238"/>
<path d="M398.874 228.392C395.896 228.389 393.042 227.206 390.935 225.102C388.829 222.998 387.642 220.144 387.636 217.167V207.712C387.587 207.533 387.581 207.346 387.616 207.164C387.652 206.982 387.729 206.811 387.841 206.664C387.954 206.517 388.099 206.398 388.265 206.316C388.43 206.234 388.613 206.191 388.798 206.191C388.983 206.191 389.166 206.234 389.332 206.316C389.498 206.398 389.643 206.517 389.755 206.664C389.868 206.811 389.945 206.982 389.98 207.164C390.016 207.346 390.009 207.533 389.961 207.712V217.167C389.961 219.531 390.9 221.798 392.571 223.469C394.243 225.141 396.51 226.08 398.874 226.08C401.238 226.08 403.505 225.141 405.176 223.469C406.848 221.798 407.787 219.531 407.787 217.167V207.712C407.734 207.532 407.725 207.343 407.758 207.159C407.791 206.975 407.867 206.801 407.979 206.652C408.092 206.502 408.237 206.381 408.404 206.297C408.572 206.213 408.756 206.17 408.943 206.17C409.13 206.17 409.314 206.213 409.482 206.297C409.649 206.381 409.794 206.502 409.907 206.652C410.019 206.801 410.095 206.975 410.128 207.159C410.162 207.343 410.152 207.532 410.099 207.712V217.167C410.096 220.143 408.912 222.996 406.808 225.101C404.703 227.206 401.85 228.389 398.874 228.392Z" fill="#263238"/>
<path d="M398.872 240.484C398.552 240.484 398.246 240.358 398.02 240.132C397.794 239.906 397.667 239.599 397.667 239.28V227.235C397.619 227.057 397.612 226.869 397.648 226.687C397.683 226.506 397.76 226.335 397.873 226.188C397.985 226.041 398.13 225.922 398.296 225.84C398.462 225.758 398.644 225.715 398.829 225.715C399.015 225.715 399.197 225.758 399.363 225.84C399.529 225.922 399.674 226.041 399.786 226.188C399.899 226.335 399.976 226.506 400.011 226.687C400.047 226.869 400.04 227.057 399.992 227.235V239.28C399.993 239.585 399.877 239.88 399.669 240.103C399.461 240.327 399.176 240.463 398.872 240.484Z" fill="#263238"/>
<path d="M406.611 241.099H391.122C390.943 241.148 390.756 241.154 390.574 241.119C390.393 241.083 390.222 241.006 390.074 240.894C389.927 240.781 389.808 240.637 389.726 240.471C389.644 240.305 389.602 240.122 389.602 239.937C389.602 239.752 389.644 239.569 389.726 239.403C389.808 239.237 389.927 239.092 390.074 238.98C390.222 238.868 390.393 238.791 390.574 238.755C390.756 238.719 390.943 238.726 391.122 238.775H406.611C406.79 238.726 406.977 238.719 407.159 238.755C407.341 238.791 407.512 238.868 407.659 238.98C407.806 239.092 407.925 239.237 408.007 239.403C408.089 239.569 408.132 239.752 408.132 239.937C408.132 240.122 408.089 240.305 408.007 240.471C407.925 240.637 407.806 240.781 407.659 240.894C407.512 241.006 407.341 241.083 407.159 241.119C406.977 241.154 406.79 241.148 406.611 241.099Z" fill="#263238"/>
<path opacity="0.3" d="M457.275 254.252V138.141H430.777L427.958 140.55C426.854 141.523 425.432 142.059 423.96 142.055H375.058C373.642 142.053 372.271 141.559 371.18 140.658L368.144 138.141H341.164L457.275 254.252Z" fill="white"/>
<path d="M457.273 343.154H340.367V138.141H368.07L371.178 140.718C372.269 141.619 373.64 142.113 375.056 142.115H423.958C425.43 142.119 426.852 141.584 427.957 140.61L430.775 138.201H457.273V343.154Z" stroke="#263238" stroke-linecap="round" stroke-linejoin="round"/>
<path d="M402.558 349.478C402.558 348.951 402.402 348.436 402.109 347.998C401.816 347.56 401.399 347.219 400.912 347.018C400.425 346.817 399.889 346.765 399.373 346.868C398.856 346.972 398.382 347.227 398.01 347.6C397.638 347.974 397.385 348.449 397.284 348.966C397.183 349.484 397.237 350.019 397.44 350.505C397.644 350.991 397.987 351.406 398.426 351.697C398.865 351.988 399.381 352.143 399.908 352.14C400.257 352.14 400.603 352.071 400.925 351.937C401.247 351.803 401.54 351.607 401.786 351.36C402.033 351.112 402.227 350.819 402.36 350.496C402.492 350.173 402.56 349.827 402.558 349.478Z" fill="#263238"/>
</svg>
