<svg width="484" height="475" viewBox="0 0 484 475" fill="none" xmlns="http://www.w3.org/2000/svg">
<path d="M164.893 73.941C161.277 74.0423 157.837 75.524 155.279 78.082C152.721 80.6399 151.239 84.08 151.138 87.6961C151.06 90.7669 151.993 93.7783 153.794 96.2667L153.921 96.4571L163.909 110.032C164.108 110.315 164.373 110.544 164.681 110.701C164.99 110.857 165.331 110.935 165.677 110.929C166.022 110.923 166.361 110.832 166.663 110.665C166.966 110.497 167.223 110.258 167.411 109.969L176.437 96.5524C178.232 94.0598 179.235 91.0843 179.315 88.0136C179.311 86.137 178.933 84.2801 178.202 82.5515C177.472 80.823 176.404 79.2576 175.061 77.947C173.718 76.6364 172.127 75.6071 170.381 74.9192C168.635 74.2313 166.769 73.8987 164.893 73.941ZM165.221 96.3831C163.633 96.3831 162.08 95.9121 160.759 95.0296C159.439 94.1472 158.409 92.8929 157.801 91.4254C157.194 89.958 157.035 88.3432 157.344 86.7854C157.654 85.2276 158.419 83.7966 159.542 82.6734C160.665 81.5503 162.096 80.7854 163.654 80.4756C165.212 80.1657 166.827 80.3247 168.294 80.9326C169.762 81.5404 171.016 82.5697 171.898 83.8904C172.781 85.2111 173.252 86.7638 173.252 88.3521C173.253 89.4072 173.047 90.4521 172.643 91.4271C172.24 92.4021 171.649 93.2879 170.903 94.034C170.157 94.78 169.271 95.3715 168.296 95.7746C167.321 96.1777 166.276 96.3844 165.221 96.3831Z" fill="#E0E0E0"/>
<path d="M378.607 45.362C379.432 39.4049 371.02 34.506 364.703 33.9981C361.688 33.7547 358.556 34.2097 355.699 33.2151C349.52 31.0989 347.044 23.068 341.013 20.518C336.495 18.6134 331.299 20.3064 326.929 22.5072C322.56 24.708 318.232 27.4802 313.344 27.7977C309.111 28.0622 304.477 26.4856 300.763 28.5701C297.991 30.1149 296.531 33.3103 293.981 35.1937C291.431 37.0771 288.225 37.4263 285.124 37.5956C282.024 37.7649 278.776 37.7966 275.982 39.0875C273.189 40.3784 270.83 43.3198 271.411 46.4095L378.607 45.362Z" fill="#EBEBEB"/>
<path d="M193.761 13.6609C194.194 10.4866 189.719 7.88373 186.354 7.60863C184.746 7.48166 183.085 7.72501 181.561 7.19597C178.27 6.04265 176.958 1.79971 173.742 0.43477C171.34 -0.570416 168.578 0.328961 166.25 1.49286C163.923 2.65676 161.616 4.13809 159.013 4.30738C156.759 4.44493 154.294 3.60904 152.315 4.70946C150.845 5.53477 150.072 7.23829 148.707 8.24348C147.293 9.11317 145.658 9.55422 143.999 9.51319C142.341 9.47859 140.69 9.75123 139.131 10.3173C138.361 10.6177 137.707 11.1589 137.269 11.8605C136.83 12.5621 136.63 13.3865 136.698 14.2111L193.761 13.6609Z" fill="#F5F5F5"/>
<path d="M94.0649 70.2152C94.7103 65.5278 88.0972 61.6764 83.1348 61.2743C80.7647 61.0838 78.2993 61.4436 76.0562 60.6606C71.1995 58.9677 69.2526 52.6826 64.5124 50.6828C60.9678 49.2015 56.8836 50.5241 53.4448 52.2488C50.006 53.9735 46.5989 56.1637 42.7581 56.4071C39.4145 56.6187 35.7958 55.349 32.8649 57.0102C30.6852 58.227 29.5425 60.7453 27.5744 62.216C25.6064 63.6867 23.0141 64.0147 20.5699 64.11C18.1257 64.2052 15.618 64.2687 13.396 65.2845C11.174 66.3002 9.34355 68.6492 9.79853 71.0405L94.0649 70.2152Z" fill="#F5F5F5"/>
<path d="M468.004 60.2378C468.004 60.2378 467.39 60.0791 466.3 59.8569C464.76 59.5497 463.179 59.5068 461.624 59.7299C459.325 60.0566 457.16 61.0041 455.36 62.4704C453.165 64.2709 451.616 66.7371 450.948 69.4961V69.5808L450.683 70.6389L450.281 69.6548C449.205 67.0325 447.361 64.7971 444.991 63.2428C443.057 61.9753 440.832 61.2215 438.526 61.0525C436.378 60.939 434.228 61.2113 432.177 61.8567C432.673 61.5402 433.216 61.3045 433.785 61.1584C435.324 60.6746 436.936 60.4703 438.547 60.5553C440.956 60.661 443.297 61.3901 445.34 62.6714C447.847 64.2711 449.798 66.6068 450.926 69.3586H450.26V69.2739C450.948 66.3496 452.599 63.7412 454.947 61.8673C456.845 60.3497 459.135 59.403 461.55 59.1374C463.158 58.9444 464.789 59.063 466.353 59.4866C466.943 59.6401 467.501 59.8943 468.004 60.2378Z" fill="#E0E0E0"/>
<path d="M5.25892 151.245L43.1386 356.884L121.935 371.169L192.53 325.745L268.036 343.976L346.334 293.738L308 98.6574L230.04 137.521L162.787 122.919L89.5676 161.688L5.25892 151.245Z" fill="white"/>
<path d="M122.061 371.729L42.7039 357.339L42.6404 356.979L4.63378 150.652L89.4821 161.169L162.734 122.39L229.986 137.023L308.401 97.874L308.528 98.5512L346.937 293.991L346.63 294.182L268.141 344.536L267.929 344.483L192.635 326.305L122.061 371.729ZM43.6033 356.429L121.838 370.618L192.445 325.173L192.657 325.226L267.95 343.404L345.752 293.483L307.66 99.44L230.123 138.081H229.944L162.871 123.512L89.6725 162.269H89.535L5.94582 151.837L43.6033 356.429Z" fill="#E0E0E0"/>
<path d="M13.4091 157.805L49.1831 352.832L121.419 363.762L191.814 317.026L265.732 334.622L338.973 290.362L304.479 106.815L231.302 144.198L162.737 132.326L87.8669 168.862L54.3783 163.889L13.4091 157.805Z" fill="#EBEBEB"/>
<path d="M67.4817 164.925L67.6933 238.261L320.111 303.059L307.541 311.354L69.3333 249.445L67.27 355.572L51.9171 353.244L54.3719 163.888L67.4817 164.925Z" fill="#FAFAFA"/>
<path d="M17.3552 175.252L55.2666 183.769L53.9546 195.821L18.7096 186.69L17.3552 175.252Z" fill="#FAFAFA"/>
<path d="M26.443 228.877L53.6042 222.889L53.4244 236.686L28.4111 242.294L26.443 228.877Z" fill="#FAFAFA"/>
<path d="M36.453 283.411L52.8005 284.839L52.7052 292.733L37.7438 292.246L36.453 283.411Z" fill="#FAFAFA"/>
<path d="M67.2719 355.571L88.201 358.735L93.0364 316.517L125.901 319.861L129.043 358.693L142.947 349.466L142.661 268.501L69.3352 249.445L67.2719 355.571Z" fill="#E0E0E0"/>
<path d="M151.053 270.681L150.651 314.179L150.365 344.536L142.948 349.467L142.186 265.274L151.053 270.681Z" fill="#FAFAFA"/>
<path d="M185.038 321.512L150.65 314.179L150.555 324.369L174.224 328.696L185.038 321.512Z" fill="#FAFAFA"/>
<path d="M106.198 159.91L100.654 246.726L113.118 249.922L120.144 153.106L106.198 159.91Z" fill="#FAFAFA"/>
<path d="M143.624 257.752L145.74 149.361L153.242 152.356L152.66 190.066L230.631 212.646L249.158 137.743L263.421 129.765L240.598 214.974L222.928 281.432C222.928 281.432 212.633 279.041 212.992 277.348C213.352 275.655 227.086 226.316 227.086 226.316L151.454 201.79L150.089 264.111L143.624 257.752Z" fill="#FAFAFA"/>
<path d="M233.369 225.396L285.766 240.717L310.113 136.823L305.51 113.926L278.454 226.899L235.38 213.672L233.369 225.396Z" fill="#FAFAFA"/>
<path d="M204.254 320.771L212.983 277.347L223.352 279.823L214.136 323.755L204.254 320.771Z" fill="#FAFAFA"/>
<path d="M312.188 213.842L290.772 319.492L309.722 307.546L328.376 237.532L325.689 219.227L312.188 213.842Z" fill="#E0E0E0"/>
<path opacity="0.1" d="M87.8669 168.862L121.419 363.762L49.1831 352.832L13.4091 157.805L87.8669 168.862Z" fill="black"/>
<path d="M135.888 145.426L143.284 148.378L326.005 221.375L320.651 192.923L162.731 132.327L135.888 145.426Z" fill="#E0E0E0"/>
<path opacity="0.1" d="M162.729 132.325L191.806 317.025L265.724 334.621L231.294 144.196L162.729 132.325Z" fill="black"/>
<path d="M449.394 434.486H348.346L354.039 428.867H452.727L449.394 434.486Z" fill="#E0E0E0"/>
<path d="M458.407 474.724C458.407 474.872 355.772 474.999 229.214 474.999C102.656 474.999 0 474.872 0 474.724C0 474.576 102.635 474.449 229.214 474.449C355.794 474.449 458.407 474.555 458.407 474.724Z" fill="#263238"/>
<path d="M128.88 102.561C128.88 102.635 127.674 102.149 125.431 101.651C122.262 100.956 118.995 100.827 115.781 101.27C111.009 101.901 106.507 103.846 102.777 106.889C98.2032 110.609 94.9767 115.728 93.5928 121.459C93.5928 121.512 93.5928 121.564 93.5928 121.617L93.3283 122.675L92.9262 121.681C90.6714 116.257 86.8231 111.645 81.8903 108.455C77.8738 105.841 73.2548 104.3 68.4737 103.979C65.2518 103.75 62.0141 104.046 58.8874 104.857C56.676 105.439 55.5015 105.915 55.4804 105.915C55.7416 105.754 56.018 105.62 56.3057 105.513C57.129 105.131 57.9775 104.806 58.8451 104.54C61.9916 103.636 65.2698 103.278 68.5372 103.482C73.4288 103.744 78.1684 105.271 82.2924 107.915C87.3529 111.168 91.2936 115.895 93.5822 121.459L92.9156 121.522V121.353C94.3312 115.473 97.6537 110.227 102.364 106.434C106.202 103.352 110.829 101.412 115.717 100.836C118.985 100.431 122.3 100.631 125.494 101.429C126.359 101.641 127.207 101.914 128.034 102.244C128.326 102.32 128.61 102.426 128.88 102.561Z" fill="#263238"/>
<path d="M232.982 65.0106C232.982 65.0106 232.305 64.8201 231.067 64.5556C229.325 64.2056 227.535 64.1555 225.776 64.4075C223.18 64.7643 220.733 65.8338 218.708 67.4971C216.223 69.5277 214.47 72.3141 213.714 75.4328V75.5174L213.45 76.5755L213.047 75.5809C211.833 72.622 209.748 70.1018 207.069 68.3542C204.882 66.9213 202.366 66.0692 199.758 65.8782C197.982 65.7342 196.196 65.8807 194.467 66.312C193.251 66.6083 192.595 66.8728 192.573 66.8199C192.552 66.767 192.722 66.7141 193.028 66.566C193.47 66.3602 193.926 66.1869 194.393 66.0475C196.556 65.3861 198.836 65.2007 201.077 65.5039C203.318 65.8071 205.467 66.5917 207.376 67.8039C210.193 69.6076 212.387 72.234 213.661 75.327H212.995V75.2317C213.79 71.9596 215.651 69.0449 218.285 66.9469C220.418 65.2488 222.984 64.1821 225.692 63.8678C227.502 63.6595 229.335 63.7886 231.098 64.2488C231.575 64.3721 232.042 64.5313 232.495 64.7249C232.834 64.9048 232.992 64.9788 232.982 65.0106Z" fill="#263238"/>
<path d="M162.286 27.9453C162.286 27.9453 161.63 28.7071 160.434 30.0615C158.757 31.97 157.242 34.0158 155.906 36.1773C151.463 43.3155 149.134 51.5661 149.187 59.9737C149.182 60.0724 149.182 60.1713 149.187 60.27H148.489C147.805 55.7559 146.333 51.3971 144.14 47.393C141.141 41.8924 136.907 37.1622 131.771 33.5744C130.986 33.0843 130.227 32.5545 129.496 31.9872C129.722 32.0682 129.939 32.1747 130.141 32.3046C130.554 32.5374 131.199 32.8443 131.93 33.3627C134.07 34.7322 136.06 36.3247 137.865 38.1136C143.93 44.0546 147.903 51.8036 149.187 60.1959H148.489V59.8996C148.427 51.3646 150.862 42.9977 155.493 35.8281C156.876 33.6674 158.467 31.6474 160.244 29.797C160.858 29.1198 161.397 28.6648 161.736 28.3368C161.909 28.193 162.093 28.0621 162.286 27.9453Z" fill="#263238"/>
<path d="M483.794 377.804H199.612V384.385H483.794V377.804Z" fill="#E0E0E0"/>
<path d="M202.48 384.511C202.48 384.511 202.48 384.394 202.48 384.14C202.48 383.886 202.48 383.484 202.48 382.976C202.48 381.918 202.48 380.342 202.48 378.204V378.109H202.565C219.325 377.982 274.589 377.898 340.116 377.898L441.82 377.982L472.632 378.077L481.012 378.141H483.191C483.689 378.141 483.932 378.141 483.932 378.141C483.932 378.141 483.689 378.141 483.191 378.141H481.012L472.632 378.204L441.82 378.3L340.116 378.395C274.642 378.395 219.378 378.3 202.618 378.173L202.702 378.088C202.702 380.204 202.702 381.802 202.702 382.86C202.702 383.368 202.702 383.749 202.702 384.024C202.702 384.299 202.48 384.511 202.48 384.511Z" fill="#263238"/>
<path d="M236.317 378.269C236.726 380.33 236.726 382.451 236.317 384.512C235.908 382.451 235.908 380.33 236.317 378.269Z" fill="#263238"/>
<path d="M273.583 378.269C273.992 380.33 273.992 382.451 273.583 384.512C273.174 382.451 273.174 380.33 273.583 378.269Z" fill="#263238"/>
<path d="M310.849 378.269C311.258 380.33 311.258 382.451 310.849 384.512C310.439 382.451 310.439 380.33 310.849 378.269Z" fill="#263238"/>
<path d="M348.114 378.269C348.523 380.33 348.523 382.451 348.114 384.512C347.705 382.451 347.705 380.33 348.114 378.269Z" fill="#263238"/>
<path d="M385.372 378.269C385.781 380.33 385.781 382.451 385.372 384.512C384.963 382.451 384.963 380.33 385.372 378.269Z" fill="#263238"/>
<path d="M422.645 378.269C423.055 380.33 423.055 382.451 422.645 384.512C422.236 382.451 422.236 380.33 422.645 378.269Z" fill="#263238"/>
<path d="M459.872 378.269C460.281 380.33 460.281 382.451 459.872 384.512C459.463 382.451 459.463 380.33 459.872 378.269Z" fill="#263238"/>
<path d="M324.997 59.0319H249.693V377.485H324.997V59.0319Z" fill="#455A64"/>
<path d="M286.528 74.9239H263.641V119.025H286.528V74.9239Z" fill="white"/>
<path d="M275.763 119.036C275.594 119.036 275.456 109.153 275.456 96.9745C275.456 84.7959 275.594 74.9239 275.763 74.9239C275.932 74.9239 276.059 84.7959 276.059 96.9745C276.059 109.153 275.901 119.036 275.763 119.036Z" fill="#263238"/>
<path d="M286.528 90.2467C282.723 90.5532 278.905 90.6556 275.09 90.5536C271.271 90.6557 267.449 90.5533 263.641 90.2467C267.449 89.9402 271.271 89.8378 275.09 89.9399C278.905 89.8379 282.723 89.9403 286.528 90.2467Z" fill="#263238"/>
<path d="M286.648 106.021C282.808 106.328 278.955 106.43 275.104 106.328C271.257 106.43 267.407 106.328 263.571 106.021C267.407 105.715 271.257 105.613 275.104 105.715C278.955 105.613 282.808 105.715 286.648 106.021Z" fill="#263238"/>
<path d="M286.621 133.12H263.735V177.221H286.621V133.12Z" fill="white"/>
<path d="M275.818 177.231C275.648 177.231 275.511 167.359 275.511 155.18C275.511 143.001 275.648 133.129 275.818 133.129C275.987 133.129 276.125 143.001 276.125 155.18C276.125 167.359 275.987 177.231 275.818 177.231Z" fill="#263238"/>
<path d="M286.621 148.441C282.814 148.747 278.992 148.849 275.173 148.747C271.358 148.849 267.539 148.747 263.735 148.441C267.539 148.134 271.358 148.032 275.173 148.134C278.992 148.032 282.814 148.134 286.621 148.441Z" fill="#263238"/>
<path d="M286.734 164.217C282.898 164.524 279.048 164.626 275.201 164.524C271.35 164.626 267.497 164.524 263.657 164.217C267.497 163.911 271.35 163.808 275.201 163.91C279.048 163.809 282.898 163.911 286.734 164.217Z" fill="#263238"/>
<path d="M286.621 190.806H263.735V234.907H286.621V190.806Z" fill="white"/>
<path d="M275.818 234.907C275.648 234.907 275.511 225.035 275.511 212.856C275.511 200.678 275.648 190.806 275.818 190.806C275.987 190.806 276.125 200.678 276.125 212.856C276.125 225.035 275.987 234.907 275.818 234.907Z" fill="#263238"/>
<path d="M286.621 206.128C282.814 206.435 278.992 206.537 275.173 206.435C271.358 206.537 267.539 206.435 263.735 206.128C267.539 205.822 271.358 205.72 275.173 205.822C278.992 205.72 282.814 205.822 286.621 206.128Z" fill="#263238"/>
<path d="M286.734 221.903C282.898 222.21 279.048 222.312 275.201 222.21C271.35 222.312 267.497 222.21 263.657 221.903C267.497 221.597 271.35 221.494 275.201 221.596C279.048 221.494 282.898 221.597 286.734 221.903Z" fill="#263238"/>
<path d="M286.621 250.154H263.735V294.255H286.621V250.154Z" fill="white"/>
<path d="M275.818 294.266C275.648 294.266 275.511 284.394 275.511 272.215C275.511 260.037 275.648 250.154 275.818 250.154C275.987 250.154 276.125 260.026 276.125 272.215C276.125 284.404 275.987 294.266 275.818 294.266Z" fill="#263238"/>
<path d="M286.621 265.477C282.814 265.783 278.992 265.886 275.173 265.784C271.358 265.886 267.539 265.783 263.735 265.477C267.54 265.184 271.358 265.085 275.173 265.181C278.992 265.085 282.813 265.184 286.621 265.477Z" fill="#263238"/>
<path d="M286.734 281.252C282.898 281.558 279.048 281.66 275.201 281.559C271.35 281.661 267.497 281.558 263.657 281.252C267.497 280.945 271.35 280.843 275.201 280.945C279.048 280.843 282.898 280.945 286.734 281.252Z" fill="#263238"/>
<path d="M357.022 59.0319H302.149V377.485H357.022V59.0319Z" fill="#455A64"/>
<g opacity="0.3">
<path d="M357.03 59.0319H302.157V377.485H357.03V59.0319Z" fill="black"/>
</g>
<path d="M340.617 74.9239H317.731V119.025H340.617V74.9239Z" fill="white"/>
<path d="M329.813 119.036C329.644 119.036 329.507 109.153 329.507 96.9745C329.507 84.7959 329.644 74.9239 329.813 74.9239C329.983 74.9239 330.12 84.7959 330.12 96.9745C330.12 109.153 329.983 119.036 329.813 119.036Z" fill="#263238"/>
<path d="M340.617 90.2467C336.813 90.5532 332.995 90.6556 329.179 90.5536C325.36 90.6557 321.539 90.5533 317.731 90.2467C321.539 89.9402 325.36 89.8378 329.179 89.9399C332.995 89.8379 336.813 89.9403 340.617 90.2467Z" fill="#263238"/>
<path d="M340.737 106.021C336.898 106.328 333.044 106.43 329.194 106.328C325.346 106.43 321.497 106.328 317.66 106.021C321.497 105.715 325.346 105.613 329.194 105.715C333.044 105.613 336.898 105.715 340.737 106.021Z" fill="#263238"/>
<path d="M340.719 134.78H317.832V178.881H340.719V134.78Z" fill="white"/>
<path d="M329.899 178.892C329.73 178.892 329.593 169.009 329.593 156.831C329.593 144.652 329.73 134.78 329.899 134.78C330.069 134.78 330.206 144.652 330.206 156.831C330.206 169.009 330.069 178.892 329.899 178.892Z" fill="#263238"/>
<path d="M340.719 150.103C336.911 150.409 333.089 150.512 329.27 150.41C325.455 150.512 321.637 150.409 317.832 150.103C321.637 149.797 325.455 149.694 329.27 149.796C333.089 149.694 336.911 149.797 340.719 150.103Z" fill="#263238"/>
<path d="M340.823 165.878C336.987 166.184 333.137 166.287 329.29 166.185C325.439 166.287 321.586 166.184 317.746 165.878C321.586 165.571 325.439 165.469 329.29 165.571C333.137 165.469 336.987 165.571 340.823 165.878Z" fill="#263238"/>
<path d="M340.719 190.806H317.832V234.907H340.719V190.806Z" fill="white"/>
<path d="M329.899 234.907C329.73 234.907 329.593 225.035 329.593 212.856C329.593 200.678 329.73 190.806 329.899 190.806C330.069 190.806 330.206 200.678 330.206 212.856C330.206 225.035 330.069 234.907 329.899 234.907Z" fill="#263238"/>
<path d="M340.719 206.128C336.911 206.435 333.089 206.537 329.27 206.435C325.455 206.537 321.637 206.435 317.832 206.128C321.637 205.822 325.455 205.72 329.27 205.822C333.089 205.72 336.911 205.822 340.719 206.128Z" fill="#263238"/>
<path d="M340.823 221.903C336.987 222.21 333.137 222.312 329.29 222.21C325.439 222.312 321.586 222.21 317.746 221.903C321.586 221.597 325.439 221.494 329.29 221.596C333.137 221.494 336.987 221.597 340.823 221.903Z" fill="#263238"/>
<path d="M341.641 251.117H318.754V295.218H341.641V251.117Z" fill="white"/>
<path d="M330.834 295.218C330.665 295.218 330.538 285.346 330.538 273.168C330.538 260.989 330.665 251.117 330.834 251.117C331.004 251.117 331.141 260.989 331.141 273.168C331.141 285.346 331.004 295.218 330.834 295.218Z" fill="#263238"/>
<path d="M341.641 266.44C337.836 266.746 334.018 266.849 330.203 266.747C326.384 266.849 322.562 266.746 318.754 266.44C322.562 266.133 326.384 266.031 330.203 266.133C334.018 266.031 337.836 266.133 341.641 266.44Z" fill="#263238"/>
<path d="M341.758 282.215C337.922 282.521 334.072 282.623 330.225 282.522C326.378 282.623 322.528 282.521 318.692 282.215C322.528 281.908 326.378 281.806 330.225 281.908C334.072 281.806 337.922 281.908 341.758 282.215Z" fill="#263238"/>
<path d="M286.621 310.911H263.735V355.012H286.621V310.911Z" fill="white"/>
<path d="M275.818 354.989C275.648 354.989 275.511 345.107 275.511 332.928C275.511 320.75 275.648 310.878 275.818 310.878C275.987 310.878 276.125 320.75 276.125 332.928C276.125 345.107 275.987 354.989 275.818 354.989Z" fill="#263238"/>
<path d="M286.621 326.232C282.814 326.538 278.992 326.64 275.173 326.539C271.358 326.641 267.539 326.538 263.735 326.232C267.539 325.925 271.358 325.823 275.173 325.925C278.992 325.823 282.814 325.926 286.621 326.232Z" fill="#263238"/>
<path d="M286.734 342.007C282.898 342.313 279.048 342.415 275.201 342.313C271.35 342.416 267.497 342.313 263.657 342.007C267.497 341.7 271.35 341.598 275.201 341.7C279.048 341.598 282.898 341.7 286.734 342.007Z" fill="#263238"/>
<path d="M340.719 312.804H317.832V356.905H340.719V312.804Z" fill="white"/>
<path d="M329.899 356.905C329.73 356.905 329.593 347.033 329.593 334.854C329.593 322.676 329.73 312.804 329.899 312.804C330.069 312.804 330.206 322.676 330.206 334.854C330.206 347.033 330.069 356.905 329.899 356.905Z" fill="#263238"/>
<path d="M340.719 328.125C336.911 328.431 333.089 328.533 329.27 328.432C325.455 328.534 321.637 328.431 317.832 328.125C321.637 327.818 325.455 327.716 329.27 327.818C333.089 327.716 336.911 327.819 340.719 328.125Z" fill="#263238"/>
<path d="M340.823 343.901C336.987 344.208 333.137 344.31 329.29 344.208C325.439 344.31 321.586 344.208 317.746 343.901C321.586 343.595 325.439 343.493 329.29 343.595C333.137 343.493 336.987 343.595 340.823 343.901Z" fill="#263238"/>
<path d="M394.505 235.723H421.19V197.156H394.505V235.723Z" fill="#0109C8"/>
<g opacity="0.3">
<path d="M394.497 235.721H421.182V197.154H394.497V235.721Z" fill="black"/>
</g>
<path d="M370.492 235.723H397.177V197.156H370.492V235.723Z" fill="#0109C8"/>
<path d="M376.862 227.934C376.862 227.934 376.862 227.807 376.862 227.543C376.862 227.278 376.862 226.844 376.862 226.358C376.862 225.3 376.862 223.744 376.862 221.829C376.862 217.904 376.809 212.391 376.767 205.958V205.799H388.977L389.167 206V212.148C389.167 214.147 389.167 216.073 389.167 217.935C389.167 221.639 389.167 225.025 389.167 227.955V228.104H388.977L380.078 228.029H377.676H377.063C376.925 228.029 376.862 228.029 376.862 228.029H377.095H377.74H380.174L388.977 227.955L388.829 228.093C388.829 225.162 388.829 221.744 388.829 218.073C388.829 216.211 388.829 214.285 388.829 212.285V206.138C388.659 205.958 389.062 206.36 389.019 206.317H376.862L377.042 206.138C377.042 212.486 376.978 217.988 376.957 221.893C376.957 223.818 376.957 225.363 376.904 226.453C376.904 226.961 376.904 227.373 376.904 227.68C376.896 227.766 376.881 227.851 376.862 227.934Z" fill="#263238"/>
<path d="M379.288 218.137C379.288 218.137 379.585 218.137 379.733 218.444C379.776 218.548 379.793 218.662 379.782 218.774C379.771 218.887 379.732 218.995 379.669 219.089C379.575 219.201 379.45 219.281 379.309 219.32C379.168 219.358 379.019 219.353 378.881 219.305C378.743 219.257 378.624 219.168 378.538 219.05C378.452 218.932 378.404 218.791 378.4 218.645C378.412 218.531 378.45 218.422 378.513 218.326C378.576 218.23 378.66 218.151 378.759 218.094C379.098 217.915 379.331 218.094 379.288 218.094C379.246 218.094 379.087 218.094 378.908 218.274C378.853 218.312 378.81 218.365 378.784 218.426C378.758 218.487 378.75 218.555 378.761 218.62C378.773 218.686 378.802 218.747 378.847 218.796C378.891 218.845 378.949 218.881 379.013 218.899C379.341 219.026 379.521 218.729 379.468 218.475C379.415 218.221 379.278 218.19 379.288 218.137Z" fill="#263238"/>
<path d="M343.305 377.73H453.97V228.571H343.305V377.73Z" fill="#0109C8"/>
<path d="M409.656 377.73L469.015 377.804V228.581H409.656V377.73Z" fill="#0109C8"/>
<g opacity="0.3">
<path d="M409.656 377.728L469.015 377.802V228.579H409.656V377.728Z" fill="black"/>
</g>
<path d="M351.423 329.745H371.664V309.504H351.423V329.745Z" fill="#EBEBEB"/>
<path d="M360.766 331.776C360.66 331.776 360.576 326.539 360.576 320.137C360.576 313.736 360.66 308.498 360.766 308.498C360.872 308.498 360.957 313.725 360.957 320.137C360.957 326.549 360.872 331.776 360.766 331.776Z" fill="#455A64"/>
<path d="M347.628 316.286C347.628 316.18 353.511 316.096 360.769 316.096C368.028 316.096 373.921 316.18 373.921 316.286C373.921 316.392 368.038 316.477 360.769 316.477C353.5 316.477 347.628 316.392 347.628 316.286Z" fill="#455A64"/>
<path d="M380.304 329.745H400.545V309.504H380.304V329.745Z" fill="#EBEBEB"/>
<path d="M389.642 331.776C389.536 331.776 389.441 326.539 389.441 320.137C389.441 313.736 389.536 308.498 389.642 308.498C389.748 308.498 389.833 313.725 389.833 320.137C389.833 326.549 389.748 331.776 389.642 331.776Z" fill="#455A64"/>
<path d="M376.493 316.286C376.493 316.18 382.376 316.096 389.635 316.096C396.893 316.096 402.787 316.18 402.787 316.286C402.787 316.392 396.904 316.477 389.635 316.477C382.366 316.477 376.493 316.392 376.493 316.286Z" fill="#455A64"/>
<path d="M351.423 297.769H371.664V277.528H351.423V297.769Z" fill="#EBEBEB"/>
<path d="M360.766 299.801C360.66 299.801 360.576 294.563 360.576 288.162C360.576 281.76 360.66 276.523 360.766 276.523C360.872 276.523 360.957 281.75 360.957 288.162C360.957 294.574 360.872 299.801 360.766 299.801Z" fill="#455A64"/>
<path d="M347.628 284.311C347.628 284.205 353.511 284.12 360.769 284.12C368.028 284.12 373.921 284.205 373.921 284.311C373.921 284.416 368.038 284.501 360.769 284.501C353.5 284.501 347.628 284.416 347.628 284.311Z" fill="#455A64"/>
<path d="M380.304 297.769H400.545V277.528H380.304V297.769Z" fill="#EBEBEB"/>
<path d="M389.642 299.801C389.536 299.801 389.441 294.563 389.441 288.162C389.441 281.76 389.536 276.523 389.642 276.523C389.748 276.523 389.833 281.75 389.833 288.162C389.833 294.574 389.748 299.801 389.642 299.801Z" fill="#455A64"/>
<path d="M376.493 284.311C376.493 284.205 382.376 284.12 389.635 284.12C396.893 284.12 402.787 284.205 402.787 284.311C402.787 284.416 396.904 284.501 389.635 284.501C382.366 284.501 376.493 284.416 376.493 284.311Z" fill="#455A64"/>
<path d="M351.423 265.708H371.664V245.467L351.423 245.467V265.708Z" fill="#EBEBEB"/>
<path d="M360.766 267.751C360.66 267.751 360.576 262.514 360.576 256.112C360.576 249.711 360.66 244.473 360.766 244.473C360.872 244.473 360.957 249.7 360.957 256.112C360.957 262.524 360.872 267.751 360.766 267.751Z" fill="#455A64"/>
<path d="M347.628 252.261C347.628 252.155 353.511 252.07 360.769 252.07C368.028 252.07 373.921 252.155 373.921 252.261C373.921 252.367 368.038 252.451 360.769 252.451C353.5 252.451 347.628 252.356 347.628 252.261Z" fill="#455A64"/>
<path d="M380.304 265.708H400.545V245.467L380.304 245.467V265.708Z" fill="#EBEBEB"/>
<path d="M389.642 267.751C389.536 267.751 389.441 262.514 389.441 256.112C389.441 249.711 389.536 244.473 389.642 244.473C389.748 244.473 389.833 249.7 389.833 256.112C389.833 262.524 389.748 267.751 389.642 267.751Z" fill="#455A64"/>
<path d="M376.493 252.261C376.493 252.155 382.376 252.07 389.635 252.07C396.893 252.07 402.787 252.155 402.787 252.261C402.787 252.367 396.904 252.451 389.635 252.451C382.366 252.451 376.493 252.356 376.493 252.261Z" fill="#455A64"/>
<g opacity="0.7">
<path d="M429.978 265.708H450.219V245.467L429.978 245.467V265.708Z" fill="white"/>
</g>
<path d="M440.103 267.751C439.997 267.751 439.913 262.514 439.913 256.112C439.913 249.711 439.997 244.473 440.103 244.473C440.209 244.473 440.293 249.7 440.293 256.112C440.293 262.524 440.209 267.751 440.103 267.751Z" fill="#263238"/>
<path d="M426.183 252.261C426.183 252.155 432.077 252.07 439.335 252.07C446.594 252.07 452.477 252.155 452.477 252.261C452.477 252.367 446.594 252.451 439.335 252.451C432.077 252.451 426.183 252.356 426.183 252.261Z" fill="#263238"/>
<g opacity="0.7">
<path d="M429.978 298.076H450.219V277.835H429.978V298.076Z" fill="white"/>
</g>
<path d="M440.103 300.117C439.997 300.117 439.913 294.88 439.913 288.478C439.913 282.077 439.997 276.839 440.103 276.839C440.209 276.839 440.293 282.066 440.293 288.478C440.293 294.89 440.209 300.117 440.103 300.117Z" fill="#263238"/>
<path d="M426.183 284.627C426.183 284.521 432.077 284.437 439.335 284.437C446.594 284.437 452.477 284.521 452.477 284.627C452.477 284.733 446.594 284.817 439.335 284.817C432.077 284.817 426.183 284.733 426.183 284.627Z" fill="#263238"/>
<g opacity="0.7">
<path d="M429.978 330.452H450.219V310.211H429.978V330.452Z" fill="white"/>
</g>
<path d="M440.103 332.474C439.997 332.474 439.913 327.247 439.913 320.835C439.913 314.423 439.997 309.196 440.103 309.196C440.209 309.196 440.293 314.433 440.293 320.835C440.293 327.236 440.209 332.474 440.103 332.474Z" fill="#263238"/>
<path d="M426.183 316.995C426.183 316.889 432.077 316.805 439.335 316.805C446.594 316.805 452.477 316.889 452.477 316.995C452.477 317.101 446.594 317.186 439.335 317.186C432.077 317.186 426.183 317.101 426.183 316.995Z" fill="#263238"/>
<path d="M366.219 377.062C366.219 377.062 366.219 376.999 366.219 376.883C366.219 376.766 366.219 376.565 366.219 376.343C366.219 375.842 366.219 375.154 366.219 374.28C366.219 372.449 366.219 369.836 366.166 366.577C366.166 359.985 366.166 350.801 366.092 340.273V340.093H387.254V340.273C387.254 350.854 387.254 360.154 387.191 366.81C387.191 370.1 387.191 372.745 387.191 374.587C387.191 375.486 387.191 376.174 387.191 376.703C387.191 376.925 387.191 377.105 387.191 377.242C387.191 377.38 387.191 377.422 387.191 377.422C387.186 377.362 387.186 377.302 387.191 377.242C387.191 377.105 387.191 376.925 387.191 376.703C387.191 376.195 387.191 375.507 387.191 374.587C387.191 372.745 387.191 370.1 387.191 366.81C387.191 360.154 387.191 350.885 387.127 340.273L387.307 340.463H366.569L366.759 340.273C366.759 350.854 366.706 359.985 366.685 366.577C366.685 369.836 366.685 372.449 366.632 374.28C366.632 375.161 366.632 375.849 366.632 376.343C366.632 376.565 366.632 376.745 366.632 376.883C366.632 377.02 366.219 377.062 366.219 377.062Z" fill="#263238"/>
<path d="M377.286 359.382H384.354V342.463H377.286V359.382Z" fill="#E0E0E0"/>
<path d="M384.377 359.404H377.267V342.474H384.377V359.404ZM377.298 359.404H384.335V342.474H377.341L377.298 359.404Z" fill="#263238"/>
<path d="M368.831 359.382H375.899V342.463H368.831V359.382Z" fill="#E0E0E0"/>
<path d="M375.922 359.404H368.812V342.474H375.922V359.404ZM368.843 359.404H375.88V342.474H368.875L368.843 359.404Z" fill="#263238"/>
<path d="M368.683 361.139C368.683 361.192 368.334 361.192 368.175 361.594C368.128 361.7 368.104 361.816 368.104 361.932C368.104 362.049 368.128 362.164 368.175 362.271C368.243 362.388 368.343 362.482 368.463 362.542C368.584 362.602 368.719 362.626 368.853 362.61C368.983 362.573 369.1 362.5 369.19 362.398C369.28 362.297 369.339 362.172 369.36 362.038C369.38 361.924 369.369 361.808 369.328 361.7C369.287 361.592 369.218 361.497 369.128 361.425C368.789 361.149 368.472 361.213 368.461 361.16C368.451 361.107 368.789 360.906 369.286 361.213C369.432 361.302 369.549 361.431 369.624 361.585C369.699 361.739 369.729 361.911 369.71 362.081C369.71 362.311 369.628 362.534 369.48 362.71C369.331 362.886 369.124 363.003 368.897 363.042C368.67 363.08 368.436 363.036 368.238 362.918C368.04 362.8 367.891 362.616 367.816 362.398C367.751 362.243 367.724 362.075 367.736 361.908C367.749 361.74 367.802 361.578 367.89 361.435C367.943 361.338 368.017 361.253 368.107 361.187C368.196 361.121 368.299 361.076 368.408 361.054C368.609 361.075 368.683 361.107 368.683 361.139Z" fill="#263238"/>
<path d="M346.936 340.273C346.931 340.195 346.931 340.118 346.936 340.04C346.936 339.839 346.936 339.606 346.936 339.331C346.936 338.633 346.936 337.734 346.936 336.633H346.989H358.797L358.871 336.707V340.389H358.797H350.332H347.867H350.353H358.818L358.744 340.463V336.855C358.892 337.014 358.744 336.855 358.818 336.94H347.01V336.887C347.01 337.945 347.01 338.866 347.01 339.553C347.01 339.829 347.01 340.072 347.01 340.273C347.01 340.474 346.936 340.273 346.936 340.273Z" fill="#263238"/>
<path d="M392.875 332.771C392.87 332.69 392.87 332.608 392.875 332.527C392.875 332.326 392.875 332.093 392.875 331.818C392.875 331.131 392.875 330.231 392.875 329.131V329.078H392.928H404.736C404.736 329.078 404.662 328.993 404.81 329.152V332.855H404.736H396.271H393.806H396.282H404.747L404.673 332.94V329.311L404.747 329.385H392.938C392.938 330.443 392.938 331.363 392.938 332.041C392.938 332.326 392.938 332.559 392.938 332.76C392.938 332.961 392.875 332.771 392.875 332.771Z" fill="#263238"/>
<path d="M400.24 303.144C400.24 303.144 400.24 303.07 400.24 302.911V302.202C400.24 301.515 400.24 300.615 400.24 299.504H412.048L412.133 299.578V303.26H412.059H403.594H401.129H403.605H412.07L411.996 303.334C411.996 302.763 411.996 302.16 411.996 301.557V299.726C412.154 299.885 411.996 299.726 412.07 299.811H400.261L400.314 299.758C400.314 300.816 400.314 301.747 400.314 302.425V303.144C400.29 303.144 400.265 303.144 400.24 303.144Z" fill="#263238"/>
<path d="M357.778 271.296V271.052C357.778 270.851 357.778 270.618 357.778 270.343C357.778 269.656 357.778 268.756 357.778 267.656H369.597L369.671 267.73V271.401H369.597H361.132H358.667H361.143H369.608L369.534 271.486C369.534 270.904 369.534 270.312 369.534 269.698V267.857L369.618 267.931H357.799H357.852C357.852 268.989 357.852 269.909 357.852 270.587V271.306C357.789 271.2 357.778 271.296 357.778 271.296Z" fill="#263238"/>
<path d="M391.398 237.288C391.393 237.211 391.393 237.133 391.398 237.056C391.398 236.855 391.398 236.622 391.398 236.347C391.398 235.641 391.398 234.742 391.398 233.649H403.207L403.281 233.723V237.405H403.207H394.742H392.276H394.752H403.217L403.143 237.479V233.871C403.291 234.03 403.143 233.871 403.217 233.955H391.409V233.903C391.409 234.961 391.409 235.892 391.409 236.569C391.409 236.844 391.409 237.087 391.409 237.288C391.409 237.489 391.398 237.288 391.398 237.288Z" fill="#263238"/>
<path d="M350.624 274.809C350.619 274.731 350.619 274.654 350.624 274.576V273.867C350.624 273.18 350.624 272.28 350.624 271.18V271.127H350.677H362.485C362.485 271.127 362.411 271.053 362.57 271.212V273.042C362.57 273.656 362.57 274.248 362.57 274.82V274.894H362.496H354.031H351.576H354.052H362.517L362.443 274.968V271.36L362.517 271.434H350.709H350.762C350.762 272.492 350.762 273.412 350.762 274.09C350.762 274.375 350.762 274.608 350.762 274.809C350.716 274.81 350.67 274.81 350.624 274.809Z" fill="#263238"/>
<path d="M405.304 306.709C405.304 306.709 405.304 306.635 405.304 306.476C405.304 306.318 405.304 306.043 405.304 305.768C405.304 305.069 405.304 304.17 405.304 303.069H417.112L417.197 303.143V304.974C417.197 305.577 417.197 306.17 417.197 306.752V306.826H417.123H408.658H406.203H408.679H417.144L417.07 306.9V303.143L417.144 303.218H405.335L405.388 303.165C405.388 304.251 405.388 305.14 405.388 305.831C405.388 306.106 405.388 306.339 405.388 306.551C405.388 306.762 405.304 306.709 405.304 306.709Z" fill="#263238"/>
<path d="M400.24 240.928C400.24 240.928 400.24 240.854 400.24 240.695V239.986C400.24 239.288 400.24 238.388 400.24 237.288H412.048L412.133 237.362V241.044H412.059H403.594H401.129H403.605H412.07L411.996 241.118C411.996 240.536 411.996 239.944 411.996 239.341V237.51L412.07 237.584H400.261L400.314 237.531C400.314 238.625 400.314 239.514 400.314 240.198V240.716C400.251 240.833 400.24 240.928 400.24 240.928Z" fill="#263238"/>
<path d="M343.099 343.912C343.094 343.835 343.094 343.757 343.099 343.68C343.099 343.479 343.099 343.246 343.099 342.971C343.099 342.283 343.099 341.384 343.099 340.273H343.152H354.96L355.034 340.347V344.029H354.96H346.496H344.03H346.517H354.981L354.907 344.103V342.325C354.907 342.018 354.907 341.712 354.907 341.405V340.495L354.992 340.579H343.184V340.526C343.184 341.585 343.184 342.516 343.184 343.193C343.184 343.468 343.184 343.711 343.184 343.912H343.099Z" fill="#263238"/>
<path d="M445.47 101.365H343.502V172.342H381.635L394.65 186.488L407.601 172.342H445.47V101.365Z" fill="white"/>
<path d="M445.478 101.366C445.478 101.366 445.478 101.778 445.478 102.614C445.478 103.45 445.478 104.731 445.478 106.318C445.478 109.598 445.478 114.391 445.53 120.538C445.53 132.897 445.594 150.652 445.647 172.385V172.596H445.425H407.556L407.735 172.512L394.795 186.669L394.605 186.881L394.414 186.669L381.389 172.522L381.59 172.607H343.181V172.332C343.181 146.843 343.181 122.75 343.181 101.355V101.101H343.478L417.216 101.228L438.071 101.292H443.573H445.054H445.52H445.033H443.594H438.039L417.131 101.366L343.552 101.482L343.795 101.239C343.795 122.633 343.795 146.737 343.795 172.216L343.52 171.94H381.78L381.855 172.025L394.858 186.182H394.478L407.429 172.036L407.503 171.962H407.619H445.488L445.276 172.184C445.276 150.556 445.361 132.844 445.393 120.517C445.393 114.349 445.393 109.534 445.446 106.244C445.446 104.614 445.446 103.366 445.446 102.498C445.446 101.63 445.478 101.366 445.478 101.366Z" fill="#263238"/>
<path d="M394.088 57.0963C390.129 57.1845 386.271 58.3533 382.929 60.4762C379.587 62.5992 376.89 65.5954 375.128 69.1408C373.366 72.6863 372.607 76.646 372.933 80.5916C373.259 84.5372 374.658 88.3185 376.978 91.5266L377.19 91.8122L392.585 112.688C392.899 113.114 393.311 113.458 393.786 113.692C394.26 113.925 394.784 114.041 395.313 114.03C395.842 114.018 396.361 113.88 396.825 113.626C397.289 113.373 397.686 113.011 397.981 112.572L411.885 91.9075C414.509 87.8973 416.318 83.7073 416.318 78.766C416.313 75.8741 415.731 73.0124 414.605 70.3487C413.479 67.685 411.832 65.2731 409.761 63.2546C407.691 61.236 405.237 59.6514 402.546 58.5939C399.854 57.5364 396.979 57.0272 394.088 57.0963ZM394.606 94.595C391.377 94.595 388.22 93.6375 385.536 91.8435C382.851 90.0496 380.758 87.4998 379.522 84.5165C378.287 81.5333 377.963 78.2506 378.593 75.0836C379.223 71.9166 380.778 69.0075 383.062 66.7242C385.345 64.4409 388.254 62.886 391.421 62.2561C394.588 61.6261 397.871 61.9494 400.854 63.1851C403.837 64.4208 406.387 66.5134 408.181 69.1983C409.975 71.8831 410.932 75.0396 410.932 78.2687C410.932 82.5987 409.212 86.7514 406.151 89.8132C403.089 92.8749 398.936 94.595 394.606 94.595Z" fill="#0109C8"/>
<g opacity="0.3">
<path d="M394.088 57.0963C390.129 57.1845 386.271 58.3533 382.929 60.4762C379.587 62.5992 376.89 65.5954 375.128 69.1408C373.366 72.6863 372.607 76.646 372.933 80.5916C373.259 84.5372 374.658 88.3185 376.978 91.5266L377.19 91.8122L392.585 112.688C392.899 113.114 393.311 113.458 393.786 113.692C394.26 113.925 394.784 114.041 395.313 114.03C395.842 114.018 396.361 113.88 396.825 113.626C397.289 113.373 397.686 113.011 397.981 112.572L411.885 91.9075C414.509 87.8973 416.318 83.7073 416.318 78.766C416.313 75.8741 415.731 73.0124 414.605 70.3487C413.479 67.685 411.832 65.2731 409.761 63.2546C407.691 61.236 405.237 59.6514 402.546 58.5939C399.854 57.5364 396.979 57.0272 394.088 57.0963ZM394.606 94.595C391.377 94.595 388.22 93.6375 385.536 91.8435C382.851 90.0496 380.758 87.4998 379.522 84.5165C378.287 81.5333 377.963 78.2506 378.593 75.0836C379.223 71.9166 380.778 69.0075 383.062 66.7242C385.345 64.4409 388.254 62.886 391.421 62.2561C394.588 61.6261 397.871 61.9494 400.854 63.1851C403.837 64.4208 406.387 66.5134 408.181 69.1983C409.975 71.8831 410.932 75.0396 410.932 78.2687C410.932 82.5987 409.212 86.7514 406.151 89.8132C403.089 92.8749 398.936 94.595 394.606 94.595Z" fill="black"/>
</g>
<path d="M392.798 57.0963C388.84 57.1845 384.982 58.3533 381.64 60.4762C378.298 62.5992 375.6 65.5954 373.838 69.1408C372.077 72.6863 371.318 76.646 371.644 80.5916C371.97 84.5372 373.369 88.3185 375.689 91.5266L375.901 91.8122L391.296 112.688C391.611 113.114 392.024 113.458 392.499 113.692C392.975 113.925 393.5 114.041 394.029 114.03C394.559 114.018 395.078 113.88 395.543 113.626C396.009 113.373 396.406 113.011 396.703 112.572L410.595 91.9075C413.23 87.8973 415.029 83.7073 415.029 78.766C415.024 75.8741 414.441 73.0124 413.316 70.3487C412.19 67.685 410.543 65.2731 408.472 63.2546C406.401 61.236 403.948 59.6514 401.257 58.5939C398.565 57.5364 395.689 57.0272 392.798 57.0963ZM393.317 91.6535C390.87 91.6556 388.477 90.932 386.442 89.5741C384.406 88.2162 382.819 86.2852 381.882 84.0252C380.944 81.7653 380.697 79.2779 381.173 76.8779C381.65 74.4778 382.827 72.2728 384.556 70.5419C386.286 68.811 388.49 67.6319 390.889 67.1538C393.289 66.6757 395.776 66.92 398.037 67.8559C400.298 68.7918 402.23 70.3771 403.59 72.4115C404.95 74.4458 405.675 76.8376 405.675 79.2845C405.675 82.5631 404.374 85.7076 402.056 88.027C399.739 90.3463 396.595 91.6507 393.317 91.6535Z" fill="#0109C8"/>
<path d="M355.022 138.889H353.354L355.895 131.526H357.901L360.439 138.889H358.771L356.927 133.208H356.87L355.022 138.889ZM354.918 135.995H358.858V137.21H354.918V135.995ZM363.936 138.889H361.326V131.526H363.957C364.698 131.526 365.335 131.673 365.87 131.968C366.404 132.261 366.815 132.681 367.103 133.23C367.393 133.779 367.538 134.436 367.538 135.2C367.538 135.967 367.393 136.626 367.103 137.177C366.815 137.729 366.402 138.152 365.863 138.446C365.326 138.741 364.683 138.889 363.936 138.889ZM362.882 137.555H363.871C364.331 137.555 364.718 137.473 365.032 137.31C365.348 137.145 365.586 136.89 365.744 136.545C365.904 136.197 365.985 135.749 365.985 135.2C365.985 134.656 365.904 134.211 365.744 133.866C365.586 133.521 365.35 133.267 365.036 133.104C364.722 132.941 364.335 132.86 363.874 132.86H362.882V137.555ZM371.301 138.889H368.691V131.526H371.322C372.063 131.526 372.7 131.673 373.235 131.968C373.769 132.261 374.18 132.681 374.468 133.23C374.758 133.779 374.903 134.436 374.903 135.2C374.903 135.967 374.758 136.626 374.468 137.177C374.18 137.729 373.767 138.152 373.228 138.446C372.691 138.741 372.049 138.889 371.301 138.889ZM370.248 137.555H371.236C371.696 137.555 372.083 137.473 372.397 137.31C372.714 137.145 372.951 136.89 373.109 136.545C373.27 136.197 373.35 135.749 373.35 135.2C373.35 134.656 373.27 134.211 373.109 133.866C372.951 133.521 372.715 133.267 372.401 133.104C372.087 132.941 371.7 132.86 371.24 132.86H370.248V137.555ZM353.753 150.891V143.528H356.658C357.214 143.528 357.688 143.628 358.081 143.827C358.477 144.023 358.777 144.303 358.983 144.664C359.192 145.024 359.296 145.447 359.296 145.934C359.296 146.422 359.191 146.843 358.98 147.195C358.769 147.545 358.463 147.814 358.063 148.001C357.665 148.188 357.184 148.281 356.618 148.281H354.673V147.03H356.366C356.664 147.03 356.91 146.989 357.107 146.908C357.303 146.826 357.45 146.704 357.545 146.541C357.644 146.378 357.693 146.176 357.693 145.934C357.693 145.689 357.644 145.483 357.545 145.315C357.45 145.147 357.302 145.02 357.103 144.934C356.907 144.845 356.659 144.801 356.359 144.801H355.309V150.891H353.753ZM357.729 147.54L359.559 150.891H357.84L356.05 147.54H357.729ZM360.396 150.891V143.528H365.357V144.812H361.953V146.566H365.102V147.85H361.953V149.608H365.372V150.891H360.396ZM370.589 145.646C370.56 145.356 370.437 145.131 370.219 144.97C370.001 144.809 369.705 144.729 369.331 144.729C369.077 144.729 368.862 144.765 368.687 144.837C368.512 144.907 368.378 145.004 368.285 145.128C368.194 145.253 368.148 145.394 368.148 145.552C368.143 145.684 368.171 145.799 368.231 145.898C368.293 145.996 368.378 146.081 368.486 146.153C368.594 146.222 368.718 146.283 368.86 146.336C369.001 146.386 369.152 146.43 369.313 146.466L369.974 146.624C370.295 146.696 370.59 146.792 370.859 146.911C371.127 147.031 371.36 147.179 371.556 147.354C371.753 147.528 371.905 147.735 372.013 147.972C372.123 148.209 372.179 148.481 372.182 148.788C372.179 149.239 372.064 149.629 371.836 149.96C371.611 150.288 371.285 150.544 370.859 150.726C370.434 150.905 369.923 150.995 369.324 150.995C368.729 150.995 368.212 150.904 367.771 150.722C367.332 150.54 366.989 150.27 366.742 149.913C366.498 149.554 366.37 149.109 366.358 148.579H367.864C367.881 148.826 367.952 149.032 368.076 149.198C368.203 149.361 368.372 149.484 368.583 149.568C368.796 149.65 369.037 149.69 369.306 149.69C369.569 149.69 369.798 149.652 369.992 149.575C370.189 149.499 370.341 149.392 370.449 149.255C370.557 149.119 370.611 148.962 370.611 148.784C370.611 148.619 370.561 148.48 370.463 148.367C370.367 148.255 370.226 148.159 370.039 148.08C369.854 148.001 369.628 147.929 369.36 147.864L368.558 147.663C367.937 147.512 367.447 147.276 367.088 146.954C366.728 146.633 366.549 146.201 366.552 145.657C366.549 145.211 366.668 144.821 366.908 144.488C367.15 144.155 367.482 143.895 367.904 143.708C368.325 143.521 368.805 143.428 369.342 143.428C369.888 143.428 370.365 143.521 370.772 143.708C371.182 143.895 371.501 144.155 371.729 144.488C371.956 144.821 372.074 145.207 372.081 145.646H370.589ZM377.223 145.646C377.194 145.356 377.071 145.131 376.852 144.97C376.634 144.809 376.338 144.729 375.964 144.729C375.71 144.729 375.496 144.765 375.321 144.837C375.146 144.907 375.012 145.004 374.918 145.128C374.827 145.253 374.782 145.394 374.782 145.552C374.777 145.684 374.804 145.799 374.864 145.898C374.927 145.996 375.012 146.081 375.12 146.153C375.227 146.222 375.352 146.283 375.494 146.336C375.635 146.386 375.786 146.43 375.946 146.466L376.608 146.624C376.929 146.696 377.224 146.792 377.492 146.911C377.761 147.031 377.993 147.179 378.19 147.354C378.386 147.528 378.538 147.735 378.646 147.972C378.757 148.209 378.813 148.481 378.815 148.788C378.813 149.239 378.698 149.629 378.47 149.96C378.245 150.288 377.919 150.544 377.492 150.726C377.068 150.905 376.556 150.995 375.957 150.995C375.363 150.995 374.845 150.904 374.404 150.722C373.966 150.54 373.623 150.27 373.376 149.913C373.132 149.554 373.003 149.109 372.991 148.579H374.498C374.514 148.826 374.585 149.032 374.71 149.198C374.837 149.361 375.006 149.484 375.217 149.568C375.43 149.65 375.671 149.69 375.939 149.69C376.203 149.69 376.432 149.652 376.626 149.575C376.822 149.499 376.975 149.392 377.082 149.255C377.19 149.119 377.244 148.962 377.244 148.784C377.244 148.619 377.195 148.48 377.097 148.367C377.001 148.255 376.86 148.159 376.673 148.08C376.488 148.001 376.262 147.929 375.993 147.864L375.192 147.663C374.571 147.512 374.081 147.276 373.721 146.954C373.362 146.633 373.183 146.201 373.186 145.657C373.183 145.211 373.302 144.821 373.541 144.488C373.783 144.155 374.115 143.895 374.537 143.708C374.959 143.521 375.438 143.428 375.975 143.428C376.522 143.428 376.999 143.521 377.406 143.708C377.816 143.895 378.135 144.155 378.362 144.488C378.59 144.821 378.707 145.207 378.715 145.646H377.223ZM354.619 162.038C354.382 162.038 354.178 161.954 354.008 161.786C353.84 161.619 353.756 161.415 353.756 161.175C353.756 160.94 353.84 160.739 354.008 160.571C354.178 160.403 354.382 160.32 354.619 160.32C354.849 160.32 355.051 160.403 355.223 160.571C355.396 160.739 355.482 160.94 355.482 161.175C355.482 161.333 355.441 161.478 355.36 161.61C355.281 161.74 355.176 161.844 355.047 161.923C354.918 162 354.775 162.038 354.619 162.038ZM354.619 158.425C354.382 158.425 354.178 158.341 354.008 158.173C353.84 158.006 353.756 157.802 353.756 157.562C353.756 157.327 353.84 157.127 354.008 156.962C354.178 156.794 354.382 156.71 354.619 156.71C354.849 156.71 355.051 156.794 355.223 156.962C355.396 157.127 355.482 157.327 355.482 157.562C355.482 157.723 355.441 157.869 355.36 158.001C355.281 158.13 355.176 158.233 355.047 158.31C354.918 158.387 354.775 158.425 354.619 158.425Z" fill="#263238"/>
<path d="M376.245 160.482H374.67C374.641 160.278 374.583 160.097 374.494 159.939C374.405 159.779 374.291 159.642 374.152 159.529C374.013 159.417 373.853 159.331 373.671 159.271C373.491 159.211 373.296 159.181 373.085 159.181C372.704 159.181 372.372 159.275 372.089 159.465C371.806 159.652 371.587 159.925 371.431 160.284C371.275 160.642 371.197 161.075 371.197 161.586C371.197 162.111 371.275 162.552 371.431 162.909C371.589 163.266 371.81 163.535 372.092 163.718C372.375 163.9 372.702 163.991 373.074 163.991C373.282 163.991 373.475 163.963 373.653 163.908C373.832 163.853 373.992 163.773 374.131 163.667C374.27 163.559 374.385 163.429 374.476 163.275C374.569 163.122 374.634 162.947 374.67 162.751L376.245 162.758C376.204 163.096 376.102 163.422 375.939 163.736C375.779 164.047 375.562 164.326 375.288 164.573C375.018 164.818 374.694 165.012 374.318 165.156C373.944 165.297 373.521 165.368 373.049 165.368C372.392 165.368 371.805 165.219 371.287 164.922C370.772 164.625 370.365 164.195 370.065 163.631C369.768 163.068 369.619 162.386 369.619 161.586C369.619 160.783 369.77 160.1 370.072 159.537C370.374 158.973 370.784 158.544 371.302 158.25C371.819 157.952 372.402 157.804 373.049 157.804C373.475 157.804 373.871 157.864 374.235 157.984C374.602 158.103 374.927 158.278 375.209 158.508C375.492 158.736 375.722 159.015 375.9 159.346C376.079 159.677 376.194 160.056 376.245 160.482ZM384.127 161.586C384.127 162.389 383.975 163.072 383.67 163.635C383.368 164.198 382.956 164.628 382.433 164.926C381.913 165.22 381.329 165.368 380.679 165.368C380.025 165.368 379.438 165.219 378.918 164.922C378.398 164.625 377.986 164.195 377.685 163.631C377.383 163.068 377.232 162.386 377.232 161.586C377.232 160.783 377.383 160.1 377.685 159.537C377.986 158.973 378.398 158.544 378.918 158.25C379.438 157.952 380.025 157.804 380.679 157.804C381.329 157.804 381.913 157.952 382.433 158.25C382.956 158.544 383.368 158.973 383.67 159.537C383.975 160.1 384.127 160.783 384.127 161.586ZM382.549 161.586C382.549 161.066 382.471 160.627 382.315 160.27C382.161 159.913 381.945 159.642 381.664 159.458C381.384 159.273 381.055 159.181 380.679 159.181C380.303 159.181 379.975 159.273 379.694 159.458C379.414 159.642 379.196 159.913 379.04 160.27C378.886 160.627 378.81 161.066 378.81 161.586C378.81 162.106 378.886 162.544 379.04 162.902C379.196 163.259 379.414 163.529 379.694 163.714C379.975 163.899 380.303 163.991 380.679 163.991C381.055 163.991 381.384 163.899 381.664 163.714C381.945 163.529 382.161 163.259 382.315 162.902C382.471 162.544 382.549 162.106 382.549 161.586ZM372.359 177.27H369.749V169.907H372.38C373.121 169.907 373.758 170.054 374.293 170.349C374.827 170.642 375.238 171.062 375.526 171.611C375.816 172.16 375.961 172.817 375.961 173.581C375.961 174.348 375.816 175.007 375.526 175.558C375.238 176.11 374.825 176.533 374.285 176.827C373.749 177.122 373.106 177.27 372.359 177.27ZM371.305 175.936H372.294C372.754 175.936 373.141 175.854 373.455 175.691C373.771 175.526 374.009 175.271 374.167 174.926C374.327 174.578 374.408 174.13 374.408 173.581C374.408 173.037 374.327 172.593 374.167 172.247C374.009 171.902 373.773 171.648 373.459 171.485C373.145 171.322 372.758 171.241 372.297 171.241H371.305V175.936ZM377.114 177.27V169.907H382.075V171.19H378.67V172.945H381.82V174.228H378.67V175.986H382.089V177.27H377.114ZM386.522 176.414C386.285 176.414 386.081 176.33 385.911 176.162C385.743 175.995 385.659 175.791 385.659 175.551C385.659 175.316 385.743 175.115 385.911 174.947C386.081 174.779 386.285 174.696 386.522 174.696C386.752 174.696 386.953 174.779 387.126 174.947C387.298 175.115 387.385 175.316 387.385 175.551C387.385 175.709 387.344 175.854 387.262 175.986C387.183 176.116 387.079 176.22 386.95 176.299C386.82 176.376 386.678 176.414 386.522 176.414ZM386.522 172.801C386.285 172.801 386.081 172.717 385.911 172.549C385.743 172.382 385.659 172.178 385.659 171.938C385.659 171.703 385.743 171.503 385.911 171.338C386.081 171.17 386.285 171.086 386.522 171.086C386.752 171.086 386.953 171.17 387.126 171.338C387.298 171.503 387.385 171.703 387.385 171.938C387.385 172.099 387.344 172.245 387.262 172.377C387.183 172.506 387.079 172.609 386.95 172.686C386.82 172.763 386.678 172.801 386.522 172.801Z" fill="#263238"/>
<path d="M360.249 142.24H358.674C358.646 142.036 358.587 141.855 358.498 141.697C358.409 141.537 358.296 141.4 358.157 141.287C358.018 141.175 357.857 141.088 357.675 141.029C357.495 140.969 357.3 140.939 357.089 140.939C356.708 140.939 356.376 141.033 356.093 141.223C355.81 141.41 355.591 141.683 355.435 142.042C355.279 142.399 355.202 142.833 355.202 143.344C355.202 143.869 355.279 144.31 355.435 144.667C355.593 145.024 355.814 145.293 356.097 145.476C356.38 145.658 356.707 145.749 357.078 145.749C357.287 145.749 357.48 145.721 357.657 145.666C357.837 145.611 357.996 145.531 358.135 145.425C358.274 145.317 358.389 145.187 358.48 145.033C358.574 144.88 358.638 144.705 358.674 144.508L360.249 144.516C360.208 144.854 360.106 145.18 359.943 145.494C359.783 145.805 359.566 146.084 359.293 146.331C359.022 146.576 358.698 146.77 358.322 146.914C357.948 147.055 357.525 147.126 357.053 147.126C356.396 147.126 355.809 146.977 355.291 146.68C354.776 146.383 354.369 145.952 354.069 145.389C353.772 144.826 353.623 144.144 353.623 143.344C353.623 142.541 353.774 141.858 354.076 141.295C354.378 140.731 354.788 140.302 355.306 140.008C355.823 139.71 356.406 139.562 357.053 139.562C357.48 139.562 357.875 139.622 358.239 139.742C358.606 139.861 358.931 140.036 359.214 140.266C359.496 140.494 359.726 140.773 359.904 141.104C360.084 141.435 360.199 141.813 360.249 142.24ZM362.922 139.662V147.025H361.365V139.662H362.922ZM353.472 152.948V151.665H359.519V152.948H357.265V159.027H355.726V152.948H353.472ZM360.084 151.665H361.827L363.506 154.836H363.578L365.257 151.665H367L364.315 156.425V159.027H362.769V156.425L360.084 151.665ZM354.619 170.174C354.382 170.174 354.178 170.091 354.008 169.923C353.84 169.755 353.756 169.551 353.756 169.312C353.756 169.077 353.84 168.875 354.008 168.708C354.178 168.54 354.382 168.456 354.619 168.456C354.849 168.456 355.051 168.54 355.223 168.708C355.396 168.875 355.482 169.077 355.482 169.312C355.482 169.47 355.441 169.615 355.36 169.747C355.281 169.876 355.176 169.98 355.047 170.059C354.918 170.136 354.775 170.174 354.619 170.174ZM354.619 166.561C354.382 166.561 354.178 166.478 354.008 166.31C353.84 166.142 353.756 165.938 353.756 165.699C353.756 165.464 353.84 165.264 354.008 165.098C354.178 164.93 354.382 164.847 354.619 164.847C354.849 164.847 355.051 164.93 355.223 165.098C355.396 165.264 355.482 165.464 355.482 165.699C355.482 165.859 355.441 166.005 355.36 166.137C355.281 166.267 355.176 166.37 355.047 166.446C354.918 166.523 354.775 166.561 354.619 166.561Z" fill="#263238"/>
<path d="M383.333 128.75V118.559H387.354C388.123 118.559 388.78 118.697 389.324 118.972C389.871 119.244 390.288 119.631 390.573 120.131C390.862 120.629 391.006 121.215 391.006 121.888C391.006 122.565 390.86 123.147 390.568 123.634C390.276 124.119 389.853 124.49 389.299 124.749C388.748 125.008 388.082 125.137 387.299 125.137H384.607V123.406H386.951C387.362 123.406 387.704 123.349 387.976 123.236C388.248 123.124 388.45 122.954 388.583 122.729C388.719 122.503 388.787 122.223 388.787 121.888C388.787 121.55 388.719 121.264 388.583 121.032C388.45 120.8 388.246 120.624 387.971 120.505C387.699 120.382 387.355 120.321 386.941 120.321H385.488V128.75H383.333ZM388.836 124.112L391.369 128.75H388.991L386.513 124.112H388.836ZM391.507 118.559H393.92L396.244 122.948H396.344L398.667 118.559H401.081L397.364 125.147V128.75H395.224V125.147L391.507 118.559ZM385.09 144.753H382.781L386.299 134.562H389.075L392.588 144.753H390.279L387.727 136.891H387.647L385.09 144.753ZM384.945 140.747H390.399V142.429H384.945V140.747ZM397.427 144.753H393.815V134.562H397.457C398.482 134.562 399.364 134.766 400.104 135.175C400.844 135.579 401.413 136.161 401.811 136.921C402.212 137.681 402.413 138.59 402.413 139.648C402.413 140.709 402.212 141.622 401.811 142.385C401.413 143.147 400.841 143.733 400.094 144.141C399.351 144.549 398.462 144.753 397.427 144.753ZM395.969 142.907H397.338C397.975 142.907 398.51 142.794 398.945 142.569C399.383 142.34 399.711 141.986 399.93 141.509C400.152 141.028 400.263 140.407 400.263 139.648C400.263 138.895 400.152 138.279 399.93 137.802C399.711 137.324 399.384 136.972 398.95 136.747C398.515 136.521 397.979 136.409 397.343 136.409H395.969V142.907ZM407.621 144.753H404.009V134.562H407.651C408.676 134.562 409.559 134.766 410.298 135.175C411.038 135.579 411.607 136.161 412.005 136.921C412.407 137.681 412.607 138.59 412.607 139.648C412.607 140.709 412.407 141.622 412.005 142.385C411.607 143.147 411.035 143.733 410.288 144.141C409.545 144.549 408.656 144.753 407.621 144.753ZM406.164 142.907H407.532C408.169 142.907 408.705 142.794 409.139 142.569C409.577 142.34 409.905 141.986 410.124 141.509C410.347 141.028 410.458 140.407 410.458 139.648C410.458 138.895 410.347 138.279 410.124 137.802C409.905 137.324 409.579 136.972 409.144 136.747C408.709 136.521 408.174 136.409 407.537 136.409H406.164V142.907ZM414.203 144.753V134.562H418.224C418.993 134.562 419.65 134.7 420.194 134.975C420.741 135.247 421.158 135.634 421.443 136.135C421.732 136.632 421.876 137.218 421.876 137.891C421.876 138.568 421.73 139.15 421.438 139.638C421.146 140.122 420.723 140.494 420.169 140.752C419.619 141.011 418.952 141.141 418.169 141.141H415.477V139.409H417.821C418.232 139.409 418.574 139.353 418.846 139.24C419.118 139.127 419.32 138.958 419.453 138.732C419.589 138.507 419.657 138.226 419.657 137.891C419.657 137.553 419.589 137.268 419.453 137.035C419.32 136.803 419.116 136.627 418.841 136.508C418.569 136.385 418.225 136.324 417.811 136.324H416.358V144.753H414.203ZM419.707 140.116L422.239 144.753H419.861L417.383 140.116H419.707ZM383.333 160.756V150.566H390.2V152.342H385.488V154.77H389.846V156.547H385.488V158.98H390.22V160.756H383.333ZM397.441 153.497C397.401 153.095 397.23 152.783 396.928 152.561C396.626 152.339 396.217 152.228 395.699 152.228C395.348 152.228 395.051 152.278 394.809 152.377C394.566 152.473 394.381 152.608 394.251 152.78C394.125 152.953 394.062 153.148 394.062 153.367C394.056 153.55 394.094 153.709 394.177 153.845C394.263 153.981 394.381 154.099 394.53 154.198C394.679 154.294 394.852 154.379 395.047 154.452C395.243 154.522 395.452 154.581 395.674 154.631L396.59 154.85C397.034 154.95 397.443 155.082 397.814 155.248C398.186 155.414 398.507 155.618 398.779 155.86C399.051 156.102 399.262 156.388 399.411 156.716C399.564 157.044 399.642 157.421 399.645 157.845C399.642 158.469 399.483 159.01 399.167 159.468C398.856 159.922 398.405 160.275 397.814 160.527C397.227 160.776 396.519 160.901 395.689 160.901C394.867 160.901 394.15 160.775 393.54 160.523C392.933 160.27 392.458 159.897 392.117 159.403C391.778 158.905 391.601 158.29 391.584 157.557H393.669C393.692 157.899 393.79 158.184 393.963 158.413C394.139 158.638 394.372 158.809 394.664 158.925C394.96 159.038 395.293 159.094 395.664 159.094C396.029 159.094 396.346 159.041 396.615 158.935C396.887 158.829 397.098 158.681 397.247 158.492C397.396 158.303 397.471 158.086 397.471 157.841C397.471 157.612 397.403 157.419 397.267 157.263C397.134 157.107 396.938 156.975 396.68 156.865C396.424 156.756 396.111 156.656 395.739 156.567L394.629 156.288C393.77 156.079 393.092 155.752 392.594 155.308C392.097 154.863 391.85 154.265 391.853 153.512C391.85 152.895 392.014 152.355 392.346 151.894C392.681 151.433 393.14 151.073 393.724 150.815C394.308 150.556 394.971 150.427 395.714 150.427C396.471 150.427 397.131 150.556 397.695 150.815C398.262 151.073 398.703 151.433 399.018 151.894C399.333 152.355 399.496 152.89 399.506 153.497H397.441ZM406.623 153.497C406.583 153.095 406.412 152.783 406.11 152.561C405.808 152.339 405.398 152.228 404.881 152.228C404.529 152.228 404.232 152.278 403.99 152.377C403.748 152.473 403.562 152.608 403.433 152.78C403.307 152.953 403.244 153.148 403.244 153.367C403.237 153.55 403.275 153.709 403.358 153.845C403.445 153.981 403.562 154.099 403.712 154.198C403.861 154.294 404.033 154.379 404.229 154.452C404.425 154.522 404.634 154.581 404.856 154.631L405.772 154.85C406.216 154.95 406.624 155.082 406.996 155.248C407.367 155.414 407.689 155.618 407.961 155.86C408.233 156.102 408.444 156.388 408.593 156.716C408.746 157.044 408.824 157.421 408.827 157.845C408.824 158.469 408.664 159.01 408.349 159.468C408.037 159.922 407.586 160.275 406.996 160.527C406.409 160.776 405.7 160.901 404.871 160.901C404.048 160.901 403.332 160.775 402.721 160.523C402.114 160.27 401.64 159.897 401.298 159.403C400.96 158.905 400.783 158.29 400.766 157.557H402.851C402.874 157.899 402.972 158.184 403.144 158.413C403.32 158.638 403.554 158.809 403.846 158.925C404.141 159.038 404.475 159.094 404.846 159.094C405.211 159.094 405.528 159.041 405.797 158.935C406.069 158.829 406.279 158.681 406.428 158.492C406.578 158.303 406.652 158.086 406.652 157.841C406.652 157.612 406.584 157.419 406.448 157.263C406.316 157.107 406.12 156.975 405.861 156.865C405.606 156.756 405.292 156.656 404.921 156.567L403.811 156.288C402.952 156.079 402.274 155.752 401.776 155.308C401.278 154.863 401.031 154.265 401.035 153.512C401.031 152.895 401.196 152.355 401.527 151.894C401.862 151.433 402.322 151.073 402.906 150.815C403.489 150.556 404.153 150.427 404.896 150.427C405.652 150.427 406.312 150.556 406.876 150.815C407.444 151.073 407.885 151.433 408.2 151.894C408.515 152.355 408.678 152.89 408.688 153.497H406.623Z" fill="#263238"/>
<path d="M430.767 131.385C430.767 131.533 420.694 131.66 408.261 131.66C395.829 131.66 385.745 131.533 385.745 131.385C385.745 131.236 395.829 131.11 408.261 131.11C420.694 131.11 430.767 131.226 430.767 131.385Z" fill="black"/>
<path d="M409.676 140.4C409.676 140.548 401.349 140.675 391.075 140.675C380.801 140.675 372.484 140.548 372.484 140.4C372.484 140.252 380.812 140.125 391.075 140.125C401.338 140.125 409.676 140.252 409.676 140.4Z" fill="black"/>
<path d="M360.249 151.002H358.674C358.646 150.798 358.587 150.617 358.498 150.459C358.409 150.298 358.296 150.162 358.157 150.049C358.018 149.936 357.857 149.85 357.675 149.79C357.495 149.73 357.3 149.7 357.089 149.7C356.708 149.7 356.376 149.795 356.093 149.984C355.81 150.171 355.591 150.444 355.435 150.804C355.279 151.161 355.202 151.595 355.202 152.105C355.202 152.63 355.279 153.071 355.435 153.428C355.593 153.785 355.814 154.055 356.097 154.237C356.38 154.419 356.707 154.51 357.078 154.51C357.287 154.51 357.48 154.483 357.657 154.428C357.837 154.373 357.996 154.292 358.135 154.187C358.274 154.079 358.389 153.948 358.48 153.795C358.574 153.642 358.638 153.467 358.674 153.27L360.249 153.277C360.208 153.615 360.106 153.941 359.943 154.255C359.783 154.567 359.566 154.846 359.293 155.093C359.022 155.337 358.698 155.531 358.322 155.675C357.948 155.817 357.525 155.887 357.053 155.887C356.396 155.887 355.809 155.739 355.291 155.441C354.776 155.144 354.369 154.714 354.069 154.151C353.772 153.588 353.623 152.906 353.623 152.105C353.623 151.302 353.774 150.619 354.076 150.056C354.378 149.493 354.788 149.064 355.306 148.769C355.823 148.472 356.406 148.323 357.053 148.323C357.48 148.323 357.875 148.383 358.239 148.503C358.606 148.623 358.931 148.798 359.214 149.028C359.496 149.256 359.726 149.535 359.904 149.866C360.084 150.196 360.199 150.575 360.249 151.002ZM368.131 152.105C368.131 152.908 367.979 153.591 367.674 154.154C367.372 154.718 366.96 155.148 366.438 155.445C365.918 155.74 365.333 155.887 364.683 155.887C364.029 155.887 363.442 155.739 362.922 155.441C362.402 155.144 361.991 154.714 361.689 154.151C361.387 153.588 361.236 152.906 361.236 152.105C361.236 151.302 361.387 150.619 361.689 150.056C361.991 149.493 362.402 149.064 362.922 148.769C363.442 148.472 364.029 148.323 364.683 148.323C365.333 148.323 365.918 148.472 366.438 148.769C366.96 149.064 367.372 149.493 367.674 150.056C367.979 150.619 368.131 151.302 368.131 152.105ZM366.553 152.105C366.553 151.585 366.475 151.147 366.319 150.79C366.166 150.432 365.949 150.162 365.668 149.977C365.388 149.793 365.06 149.7 364.683 149.7C364.307 149.7 363.979 149.793 363.698 149.977C363.418 150.162 363.2 150.432 363.044 150.79C362.891 151.147 362.814 151.585 362.814 152.105C362.814 152.625 362.891 153.064 363.044 153.421C363.2 153.778 363.418 154.049 363.698 154.234C363.979 154.418 364.307 154.51 364.683 154.51C365.06 154.51 365.388 154.418 365.668 154.234C365.949 154.049 366.166 153.778 366.319 153.421C366.475 153.064 366.553 152.625 366.553 152.105ZM373.832 148.424H375.388V153.205C375.388 153.742 375.26 154.212 375.004 154.615C374.75 155.017 374.394 155.331 373.936 155.556C373.478 155.779 372.945 155.891 372.336 155.891C371.725 155.891 371.191 155.779 370.733 155.556C370.275 155.331 369.919 155.017 369.665 154.615C369.411 154.212 369.284 153.742 369.284 153.205V148.424H370.841V153.072C370.841 153.353 370.902 153.602 371.024 153.82C371.149 154.038 371.324 154.21 371.549 154.334C371.774 154.459 372.037 154.521 372.336 154.521C372.638 154.521 372.901 154.459 373.124 154.334C373.349 154.21 373.523 154.038 373.645 153.82C373.769 153.602 373.832 153.353 373.832 153.072V148.424ZM359.911 160.427V167.789H358.566L355.363 163.155H355.309V167.789H353.753V160.427H355.119L358.297 165.057H358.362V160.427H359.911ZM360.917 161.71V160.427H366.963V161.71H364.709V167.789H363.171V161.71H360.917ZM367.959 167.789V160.427H370.864C371.42 160.427 371.895 160.526 372.288 160.725C372.683 160.921 372.984 161.201 373.19 161.563C373.399 161.922 373.503 162.345 373.503 162.832C373.503 163.321 373.397 163.741 373.186 164.093C372.976 164.443 372.67 164.712 372.27 164.899C371.872 165.086 371.39 165.179 370.825 165.179H368.88V163.928H370.573C370.87 163.928 371.117 163.887 371.313 163.806C371.51 163.724 371.656 163.602 371.752 163.439C371.85 163.276 371.899 163.074 371.899 162.832C371.899 162.587 371.85 162.381 371.752 162.213C371.656 162.045 371.509 161.918 371.31 161.832C371.113 161.744 370.865 161.699 370.566 161.699H369.516V167.789H367.959ZM371.935 164.439L373.765 167.789H372.047L370.256 164.439H371.935ZM373.865 160.427H375.609L377.287 163.597H377.359L379.038 160.427H380.782L378.096 165.186V167.789H376.55V165.186L373.865 160.427ZM354.619 178.936C354.382 178.936 354.178 178.852 354.008 178.684C353.84 178.517 353.756 178.313 353.756 178.073C353.756 177.838 353.84 177.637 354.008 177.469C354.178 177.301 354.382 177.218 354.619 177.218C354.849 177.218 355.051 177.301 355.223 177.469C355.396 177.637 355.482 177.838 355.482 178.073C355.482 178.231 355.441 178.376 355.36 178.508C355.281 178.638 355.176 178.742 355.047 178.821C354.918 178.898 354.775 178.936 354.619 178.936ZM354.619 175.323C354.382 175.323 354.178 175.239 354.008 175.071C353.84 174.904 353.756 174.7 353.756 174.46C353.756 174.225 353.84 174.025 354.008 173.86C354.178 173.692 354.382 173.608 354.619 173.608C354.849 173.608 355.051 173.692 355.223 173.86C355.396 174.025 355.482 174.225 355.482 174.46C355.482 174.621 355.441 174.767 355.36 174.899C355.281 175.028 355.176 175.131 355.047 175.208C354.918 175.285 354.775 175.323 354.619 175.323Z" fill="#263238"/>
<path d="M413.393 149.775C413.393 149.934 407.203 150.05 399.574 150.05C391.945 150.05 385.745 149.934 385.745 149.775C385.745 149.617 391.935 149.5 399.574 149.5C407.214 149.5 413.393 149.627 413.393 149.775Z" fill="black"/>
<path d="M434.674 160.619C434.674 160.778 425.152 160.894 413.396 160.894C401.641 160.894 392.16 160.778 392.16 160.619C392.16 160.461 401.683 160.344 413.439 160.344C425.194 160.344 434.674 160.471 434.674 160.619Z" fill="black"/>
<path d="M119.84 371.367C114.247 371.488 108.924 373.795 105.011 377.793C101.099 381.791 98.9076 387.162 98.9076 392.756C98.9076 398.35 101.099 403.722 105.011 407.72C108.924 411.718 114.247 414.025 119.84 414.146H124.12V371.367H119.84Z" fill="#263238"/>
<path d="M275.682 371.368C272.834 371.306 270.003 371.814 267.354 372.861C264.705 373.909 262.292 375.474 260.256 377.467C258.22 379.459 256.603 381.838 255.498 384.463C254.394 387.089 253.825 389.909 253.825 392.758C253.825 395.606 254.394 398.426 255.498 401.052C256.603 403.677 258.22 406.056 260.256 408.048C262.292 410.041 264.705 411.606 267.354 412.654C270.003 413.701 272.834 414.209 275.682 414.147H279.953V371.368H275.682Z" fill="#263238"/>
<path d="M205.067 414.136C216.878 414.136 226.452 404.562 226.452 392.751C226.452 380.941 216.878 371.367 205.067 371.367C193.257 371.367 183.683 380.941 183.683 392.751C183.683 404.562 193.257 414.136 205.067 414.136Z" fill="#263238"/>
<path d="M49.2147 414.136C61.025 414.136 70.5992 404.562 70.5992 392.751C70.5992 380.941 61.025 371.367 49.2147 371.367C37.4043 371.367 27.8302 380.941 27.8302 392.751C27.8302 404.562 37.4043 414.136 49.2147 414.136Z" fill="#263238"/>
<path d="M228.292 279.379H147.145V382.481H228.292V279.379Z" fill="#0109C8"/>
<path opacity="0.2" d="M228.292 279.379H147.145V382.481H228.292V279.379Z" fill="black"/>
<path d="M310.203 305.017L309.441 305.666L312.672 309.457L313.433 308.809L310.203 305.017Z" fill="#0109C8"/>
<path d="M297.039 289.545L296.278 290.194L306.341 302.001L307.102 301.352L297.039 289.545Z" fill="#0109C8"/>
<path d="M228.292 382.471H329.073V337.731C329.075 334.409 327.89 331.195 325.733 328.669L294.376 291.822C291.052 287.919 286.92 284.786 282.266 282.638C277.612 280.489 272.546 279.377 267.42 279.379H228.292V382.471Z" fill="#0109C8"/>
<path d="M244.806 333.481V295.573C244.806 294.756 244.967 293.948 245.279 293.193C245.592 292.439 246.051 291.754 246.629 291.177C247.206 290.6 247.892 290.143 248.647 289.831C249.402 289.52 250.211 289.36 251.027 289.361H260.679C265.731 289.361 270.722 290.458 275.309 292.575C279.895 294.692 283.968 297.78 287.245 301.624L310.96 329.45C311.912 330.566 312.437 331.984 312.44 333.451C312.44 335.099 311.786 336.68 310.621 337.846C309.457 339.013 307.877 339.669 306.229 339.672H251.027C249.382 339.672 247.804 339.021 246.638 337.86C245.473 336.7 244.814 335.125 244.806 333.481Z" fill="white"/>
<path d="M329.073 370.289H316.631C315.958 370.288 315.297 370.112 314.713 369.778C314.129 369.444 313.643 368.963 313.303 368.383C312.962 367.802 312.779 367.143 312.771 366.471C312.764 365.798 312.932 365.135 313.26 364.547L315.36 360.787C315.693 360.183 316.18 359.679 316.773 359.327C317.366 358.975 318.042 358.788 318.731 358.786H329.073V370.289Z" fill="white"/>
<path d="M210.378 262.055H14.2474V382.47H210.378V262.055Z" fill="#0109C8"/>
<path opacity="0.6" d="M210.378 262.055H14.2474V382.47H210.378V262.055Z" fill="white"/>
<path opacity="0.5" d="M100.735 364.115H67.3585V371.367H100.735V364.115Z" fill="#0109C8"/>
<path opacity="0.5" d="M23.4093 364.115H14.2474V371.367H23.4093V364.115Z" fill="#0109C8"/>
<path opacity="0.4" d="M82.0016 262.055H14.2474V382.47H82.0016V262.055Z" fill="#0109C8"/>
<path opacity="0.4" d="M44.6937 262.055H43.6035V382.47H44.6937V262.055Z" fill="#0109C8"/>
<path d="M330.054 382.471H13.2672C12.3612 382.471 11.6268 383.205 11.6268 384.111V389.182C11.6268 390.088 12.3612 390.823 13.2672 390.823H330.054C330.96 390.823 331.694 390.088 331.694 389.182V384.111C331.694 383.205 330.96 382.471 330.054 382.471Z" fill="#263238"/>
<path d="M279.973 414.136C291.783 414.136 301.358 404.562 301.358 392.751C301.358 380.941 291.783 371.367 279.973 371.367C268.163 371.367 258.589 380.941 258.589 392.751C258.589 404.562 268.163 414.136 279.973 414.136Z" fill="#263238"/>
<path d="M279.973 406.515C287.574 406.515 293.736 400.354 293.736 392.753C293.736 385.151 287.574 378.99 279.973 378.99C272.372 378.99 266.21 385.151 266.21 392.753C266.21 400.354 272.372 406.515 279.973 406.515Z" fill="white"/>
<path d="M124.12 414.136C135.931 414.136 145.505 404.562 145.505 392.751C145.505 380.941 135.931 371.367 124.12 371.367C112.31 371.367 102.736 380.941 102.736 392.751C102.736 404.562 112.31 414.136 124.12 414.136Z" fill="#263238"/>
<path d="M124.12 406.515C131.721 406.515 137.883 400.354 137.883 392.753C137.883 385.151 131.721 378.99 124.12 378.99C116.519 378.99 110.357 385.151 110.357 392.753C110.357 400.354 116.519 406.515 124.12 406.515Z" fill="white"/>
</svg>
